<svg xmlns="http://www.w3.org/2000/svg" width="40.987" height="23.83" viewBox="0 0 91.26 53.06" shape-rendering="geometricPrecision" text-rendering="geometricPrecision" image-rendering="optimizeQuality" fill-rule="evenodd" clip-rule="evenodd"><g fill="#fefefe" stroke="#000" stroke-width=".71"><path d="M64 1.51c1.3 0 2.35 1.07 2.35 2.38 0 1.31-1.05 2.38-2.35 2.38s-2.35-1.07-2.35-2.38c0-1.31 1.05-2.38 2.35-2.38zm0 5.91c1.92 0 3.49-1.58 3.49-3.53 0-1.95-1.56-3.53-3.49-3.53-1.92 0-3.49 1.58-3.49 3.53 0 1.95 1.56 3.53 3.49 3.53zM33.57 20.51c-.76.62-1.64.93-2.69.93-1.14 0-2.15-.3-3.08-.93l-.53-.35-1.54 2.64.41.32c1.24.98 2.72 1.48 4.39 1.48 2.18 0 3.97-.56 5.34-1.66 1.4-1.13 2.11-2.65 2.11-4.5 0-1.22-.37-2.26-1.1-3.1-.49-.56-1.09-.98-1.79-1.26 1-.98 1.49-1.88 1.49-2.75 0-1.1-.45-1.98-1.34-2.64-.83-.61-1.86-.92-3.08-.92-1.34 0-2.55.35-3.61 1.03a5.96 5.96 0 00-2.33 2.82l-.21.52 2.59 1.25.25-.56c.25-.56.68-1.06 1.28-1.49.59-.42 1.22-.63 1.92-.63 1.28 0 1.28.44 1.28.65 0 .13-.1.65-1.33 1.73-.83.72-1.79 1.37-2.86 1.95l-.57.31 1.64 2.52.51-.41c.67-.54 1.34-.8 2.05-.8.54 0 .98.17 1.33.53.35.36.53.79.53 1.31 0 .76-.35 1.42-1.08 2.01zM43.39 17c.49-.51 1.07-.76 1.77-.76.65 0 1.19.26 1.67.8.49.56.73 1.17.73 1.88s-.24 1.33-.73 1.88c-.48.54-1.02.8-1.67.8-.7 0-1.28-.25-1.76-.78-.5-.53-.74-1.15-.74-1.9 0-.77.24-1.39.74-1.92zm1.84 7.59c1.6 0 2.93-.56 3.96-1.65 1.02-1.08 1.55-2.44 1.55-4.03 0-1.57-.53-2.91-1.57-3.99-1.05-1.08-2.35-1.63-3.87-1.63-.4 0-.78.03-1.13.1.4-.43.86-.83 1.38-1.22 1.23-.9 2.53-1.54 3.89-1.88l.51-.13-.35-2.76-.62.12c-2.89.53-5.27 1.81-7.08 3.78-1.82 1.99-2.75 4.32-2.75 6.93 0 1.89.58 3.44 1.72 4.6 1.15 1.16 2.61 1.75 4.36 1.75zm10.66-12.53c.45-.92 1.07-1.35 1.95-1.35.86 0 1.47.43 1.92 1.35.5 1.04.76 2.43.76 4.12 0 1.7-.25 3.09-.76 4.13-.45.92-1.07 1.35-1.95 1.35-.86 0-1.47-.43-1.92-1.35-.5-1.04-.76-2.43-.76-4.13 0-1.7.26-3.09.76-4.12zm1.89 12.57c1.98 0 3.53-.87 4.6-2.58 1.01-1.62 1.52-3.59 1.52-5.86 0-2.27-.51-4.24-1.52-5.86-1.07-1.71-2.61-2.58-4.6-2.58-1.92 0-3.43.87-4.49 2.58-1.01 1.62-1.52 3.59-1.52 5.86 0 2.27.51 4.24 1.52 5.86 1.07 1.71 2.58 2.58 4.49 2.58z" fill-rule="nonzero" stroke-miterlimit="10"/><path d="M38.93 36.75l9.71 7.79-9.71 7.79v-4.77C17.11 46.35.36 39.31.36 30.8c0-6.12 8.68-11.49 21.69-14.47v8.21c-8.01 1.55-13.1 3.88-13.1 6.49 0 4.15 12.92 7.6 29.98 8.33v-2.61zm30.28-20.42C82.22 19.31 90.9 23.05 90.9 30.8c0 3.31-4.06 8.25-10.5 11.26-8.63 4.04-20.97 5.68-28.26 5.68h-.29l4-3.21-6.29-5.04h2.58c10.64 0 30.16-4.83 30.16-8.47 0-3.64-5.09-4.93-13.1-6.49v-8.21z" stroke-miterlimit="22.926"/></g></svg>