<?xml version="1.0" encoding="UTF-8"?>
<!DOCTYPE svg PUBLIC "-//W3C//DTD SVG 1.1//EN" "http://www.w3.org/Graphics/SVG/1.1/DTD/svg11.dtd">
<!-- Creator: CorelDRAW 2018 (64-Bit) -->
<svg xmlns="http://www.w3.org/2000/svg" xml:space="preserve" width="10.8444mm" height="6.3051mm" version="1.1" style="shape-rendering:geometricPrecision; text-rendering:geometricPrecision; image-rendering:optimizeQuality; fill-rule:evenodd; clip-rule:evenodd"
viewBox="0 0 91.26 53.06"
 xmlns:xlink="http://www.w3.org/1999/xlink">
 <defs>
  <style type="text/css">
   <![CDATA[
    .str1 {stroke:black;stroke-width:0.71;stroke-miterlimit:22.9256}
    .str0 {stroke:black;stroke-width:0.71;stroke-miterlimit:10}
    .fil1 {fill:#FEFEFE}
    .fil0 {fill:#FEFEFE;fill-rule:nonzero}
   ]]>
  </style>
 </defs>
 <g id="Layer_x0020_1">
  <metadata id="CorelCorpID_0Corel-Layer"/>
  <path class="fil0 str0" d="M64 1.51c1.3,0 2.35,1.07 2.35,2.38 0,1.31 -1.05,2.38 -2.35,2.38 -1.3,0 -2.35,-1.07 -2.35,-2.38 0,-1.31 1.05,-2.38 2.35,-2.38zm0 5.91c1.92,0 3.49,-1.58 3.49,-3.53 0,-1.95 -1.56,-3.53 -3.49,-3.53 -1.92,0 -3.49,1.58 -3.49,3.53 0,1.95 1.56,3.53 3.49,3.53zm-30.43 13.09c-0.76,0.62 -1.64,0.93 -2.69,0.93 -1.14,0 -2.15,-0.3 -3.08,-0.93l-0.53 -0.35 -1.54 2.64 0.41 0.32c1.24,0.98 2.72,1.48 4.39,1.48 2.18,0 3.97,-0.56 5.34,-1.66 1.4,-1.13 2.11,-2.65 2.11,-4.5 0,-1.22 -0.37,-2.26 -1.1,-3.1 -0.49,-0.56 -1.09,-0.98 -1.79,-1.26 1,-0.98 1.49,-1.88 1.49,-2.75 0,-1.1 -0.45,-1.98 -1.34,-2.64 -0.83,-0.61 -1.86,-0.92 -3.08,-0.92 -1.34,0 -2.55,0.35 -3.61,1.03 -1.07,0.69 -1.85,1.64 -2.33,2.82l-0.21 0.52 2.59 1.25 0.25 -0.56c0.25,-0.56 0.68,-1.06 1.28,-1.49 0.59,-0.42 1.22,-0.63 1.92,-0.63 1.28,0 1.28,0.44 1.28,0.65 0,0.13 -0.1,0.65 -1.33,1.73 -0.83,0.72 -1.79,1.37 -2.86,1.95l-0.57 0.31 1.64 2.52 0.51 -0.41c0.67,-0.54 1.34,-0.8 2.05,-0.8 0.54,0 0.98,0.17 1.33,0.53 0.35,0.36 0.53,0.79 0.53,1.31 0,0.76 -0.35,1.42 -1.08,2.01zm9.82 -3.51c0.49,-0.51 1.07,-0.76 1.77,-0.76 0.65,0 1.19,0.26 1.67,0.8 0.49,0.56 0.73,1.17 0.73,1.88 0,0.71 -0.24,1.33 -0.73,1.88 -0.48,0.54 -1.02,0.8 -1.67,0.8 -0.7,0 -1.28,-0.25 -1.76,-0.78 -0.5,-0.53 -0.74,-1.15 -0.74,-1.9 0,-0.77 0.24,-1.39 0.74,-1.92zm1.84 7.59c1.6,0 2.93,-0.56 3.96,-1.65 1.02,-1.08 1.55,-2.44 1.55,-4.03 0,-1.57 -0.53,-2.91 -1.57,-3.99 -1.05,-1.08 -2.35,-1.63 -3.87,-1.63 -0.4,0 -0.78,0.03 -1.13,0.1 0.4,-0.43 0.86,-0.83 1.38,-1.22 1.23,-0.9 2.53,-1.54 3.89,-1.88l0.51 -0.13 -0.35 -2.76 -0.62 0.12c-2.89,0.53 -5.27,1.81 -7.08,3.78 -1.82,1.99 -2.75,4.32 -2.75,6.93 0,1.89 0.58,3.44 1.72,4.6 1.15,1.16 2.61,1.75 4.36,1.75zm10.66 -12.53c0.45,-0.92 1.07,-1.35 1.95,-1.35 0.86,0 1.47,0.43 1.92,1.35 0.5,1.04 0.76,2.43 0.76,4.12 0,1.7 -0.25,3.09 -0.76,4.13 -0.45,0.92 -1.07,1.35 -1.95,1.35 -0.86,0 -1.47,-0.43 -1.92,-1.35 -0.5,-1.04 -0.76,-2.43 -0.76,-4.13 0,-1.7 0.26,-3.09 0.76,-4.12zm1.89 12.57c1.98,0 3.53,-0.87 4.6,-2.58 1.01,-1.62 1.52,-3.59 1.52,-5.86 0,-2.27 -0.51,-4.24 -1.52,-5.86 -1.07,-1.71 -2.61,-2.58 -4.6,-2.58 -1.92,0 -3.43,0.87 -4.49,2.58 -1.01,1.62 -1.52,3.59 -1.52,5.86 0,2.27 0.51,4.24 1.52,5.86 1.07,1.71 2.58,2.58 4.49,2.58z"/>
  <path class="fil1 str1" d="M38.93 36.75l9.71 7.79 -9.71 7.79 0 -4.77c-21.82,-1.21 -38.57,-8.25 -38.57,-16.76 0,-6.12 8.68,-11.49 21.69,-14.47l0 8.21c-8.01,1.55 -13.1,3.88 -13.1,6.49 0,4.15 12.92,7.6 29.98,8.33l0 -2.61z"/>
  <path class="fil1 str1" d="M69.21 16.33c13.01,2.98 21.69,6.72 21.69,14.47 0,3.31 -4.06,8.25 -10.5,11.26 -8.63,4.04 -20.97,5.68 -28.26,5.68l-0.29 0 4 -3.21 -6.29 -5.04 2.58 0c10.64,0 30.16,-4.83 30.16,-8.47 0,-3.64 -5.09,-4.93 -13.1,-6.49l0 -8.21z"/>
 </g>
</svg>
