<svg xmlns="http://www.w3.org/2000/svg" width="12.182" height="9.6" viewBox="0 0 10.93 8.61" shape-rendering="geometricPrecision" text-rendering="geometricPrecision" image-rendering="optimizeQuality" fill-rule="evenodd" clip-rule="evenodd"><defs><style>.fil0{fill:#767676;fill-rule:nonzero}</style></defs><g id="Layer_x0020_1"><g id="_1286923472"><path class="fil0" d="M9.34 3.89l-.06-.02V1.43C9.28.64 8.64.01 7.86.01H1.43C.64.01.01.65.01 1.43v4.38c0 .79.64 1.42 1.42 1.42H6.3l.03.05c.42.82 1.25 1.33 2.17 1.33 1.34 0 2.44-1.09 2.44-2.44 0-1.01-.64-1.92-1.59-2.28zM8.87.94l.05.15c.03.11.05.21.05.32v2.36l-.11-.02c-.14-.02-.25-.03-.36-.03-.53 0-1.03.17-1.46.49l-.07.05-.67-.75L8.88.93zM.82.49c.18-.12.39-.18.61-.18h6.43c.25 0 .49.08.69.24l.08.07-3.16 3.19a1.075 1.075 0 01-1.52.01L.73.56l.1-.07zM.35 6.16l-.03-.21C.31 5.9.31 3.09.31 1.41c0-.15.03-.29.09-.43L.46.85l2.45 2.46L.36 6.16zm5.7.01c0 .2.03.41.08.62l.03.12H1.42c-.33 0-.64-.14-.85-.4l-.05-.07 2.62-2.9.53.53c.27.27.64.43 1.03.43s.76-.15 1.03-.43l.33-.33.67.74-.06.07c-.4.45-.62 1.02-.62 1.62zm2.44 2.09c-1.15 0-2.09-.94-2.09-2.09s.94-2.09 2.09-2.09 2.09.94 2.09 2.09-.94 2.09-2.09 2.09z"/><path class="fil0" d="M9.1 6.53l.04-.06c.08-.14.12-.3.12-.46 0-.51-.41-.92-.92-.92s-.92.41-.92.92.41.92.92.92c.17 0 .34-.05.49-.14l.07-.04.42.46c.02.02.05.04.08.04s.06-.01.08-.03l.06-.05c.04-.04.05-.11.01-.15l-.44-.48zm-.76.16a.71.71 0 01-.71-.7.704.704 0 11.71.7z"/></g></g></svg>