<?xml version="1.0" encoding="UTF-8"?>
<!DOCTYPE svg PUBLIC "-//W3C//DTD SVG 1.1//EN" "http://www.w3.org/Graphics/SVG/1.1/DTD/svg11.dtd">
<!-- Creator: CorelDRAW 2018 (64-Bit) -->
<svg xmlns="http://www.w3.org/2000/svg" xml:space="preserve" width="3.2231mm" height="2.54mm" version="1.1" style="shape-rendering:geometricPrecision; text-rendering:geometricPrecision; image-rendering:optimizeQuality; fill-rule:evenodd; clip-rule:evenodd"
viewBox="0 0 10.93 8.61"
 xmlns:xlink="http://www.w3.org/1999/xlink">
 <defs>
  <style type="text/css">
   <![CDATA[
    .fil0 {fill:#767676;fill-rule:nonzero}
   ]]>
  </style>
 </defs>
 <g id="Layer_x0020_1">
  <metadata id="CorelCorpID_0Corel-Layer"/>
  <g id="_1286923472">
   <path class="fil0" d="M9.34 3.89l-0.06 -0.02 0 -2.44c0,-0.79 -0.64,-1.42 -1.42,-1.42l-6.43 0c-0.79,0 -1.42,0.64 -1.42,1.42l0 4.38c0,0.79 0.64,1.42 1.42,1.42l4.87 0 0.03 0.05c0.42,0.82 1.25,1.33 2.17,1.33 1.34,0 2.44,-1.09 2.44,-2.44 0,-1.01 -0.64,-1.92 -1.59,-2.28zm-0.47 -2.95l0 0 0.05 0.15c0.03,0.11 0.05,0.21 0.05,0.32l0 2.36 -0.11 -0.02c-0.14,-0.02 -0.25,-0.03 -0.36,-0.03 -0.53,0 -1.03,0.17 -1.46,0.49l-0.07 0.05 -0.67 -0.75 2.58 -2.58zm-8.05 -0.45l0 0c0.18,-0.12 0.39,-0.18 0.61,-0.18l6.43 0c0.25,0 0.49,0.08 0.69,0.24l0.08 0.07 -3.16 3.19c-0.2,0.2 -0.47,0.32 -0.76,0.32 -0.29,0 -0.56,-0.11 -0.76,-0.31l-3.22 -3.26 0.1 -0.07zm-0.47 5.67l0 0 -0.03 -0.21c-0.01,-0.05 -0.01,-2.86 -0.01,-4.54 0,-0.15 0.03,-0.29 0.09,-0.43l0.06 -0.13 2.45 2.46 -2.55 2.85zm5.7 0.01l0 0c0,0.2 0.03,0.41 0.08,0.62l0.03 0.12 -4.74 0c-0.33,0 -0.64,-0.14 -0.85,-0.4l-0.05 -0.07 2.62 -2.9 0.53 0.53c0.27,0.27 0.64,0.43 1.03,0.43 0.39,0 0.76,-0.15 1.03,-0.43l0.33 -0.33 0.67 0.74 -0.06 0.07c-0.4,0.45 -0.62,1.02 -0.62,1.62zm2.44 2.09l0 0c-1.15,0 -2.09,-0.94 -2.09,-2.09 0,-1.15 0.94,-2.09 2.09,-2.09 1.15,0 2.09,0.94 2.09,2.09 0,1.15 -0.94,2.09 -2.09,2.09z"/>
   <path class="fil0" d="M9.1 6.53l0.04 -0.06c0.08,-0.14 0.12,-0.3 0.12,-0.46 0,-0.51 -0.41,-0.92 -0.92,-0.92 -0.51,0 -0.92,0.41 -0.92,0.92 0,0.51 0.41,0.92 0.92,0.92 0.17,0 0.34,-0.05 0.49,-0.14l0.07 -0.04 0.42 0.46c0.02,0.02 0.05,0.04 0.08,0.04 0.03,0 0.06,-0.01 0.08,-0.03l0.06 -0.05c0.04,-0.04 0.05,-0.11 0.01,-0.15l-0.44 -0.48zm-0.76 0.16l0 0c-0.39,0 -0.71,-0.32 -0.71,-0.7 0,-0.39 0.32,-0.71 0.71,-0.71 0.39,0 0.7,0.32 0.7,0.71 0,0.39 -0.32,0.7 -0.7,0.7z"/>
  </g>
 </g>
</svg>
