<?xml version="1.0" encoding="UTF-8"?>
<!DOCTYPE svg PUBLIC "-//W3C//DTD SVG 1.1//EN" "http://www.w3.org/Graphics/SVG/1.1/DTD/svg11.dtd">
<!-- Creator: CorelDRAW 2018 (64-Bit) -->
<svg xmlns="http://www.w3.org/2000/svg" xml:space="preserve" width="5.506mm" height="5.5032mm" version="1.1" style="shape-rendering:geometricPrecision; text-rendering:geometricPrecision; image-rendering:optimizeQuality; fill-rule:evenodd; clip-rule:evenodd"
viewBox="0 0 21.31 21.3"
 xmlns:xlink="http://www.w3.org/1999/xlink">
 <defs>
  <style type="text/css">
   <![CDATA[
    .fil0 {fill:#FEFEFE;fill-rule:nonzero}
   ]]>
  </style>
 </defs>
 <g id="Layer_x0020_1">
  <metadata id="CorelCorpID_0Corel-Layer"/>
  <g id="_1597897984">
   <path class="fil0" d="M21.31 10.65c0,2.85 -1.11,5.52 -3.12,7.54 -2.01,2.01 -4.69,3.12 -7.54,3.12 -2.85,0 -5.53,-1.11 -7.54,-3.12 -2.01,-2.01 -3.12,-4.69 -3.12,-7.54 0,-2.85 1.11,-5.52 3.12,-7.53 4.16,-4.16 10.92,-4.16 15.07,0 2.01,2.01 3.12,4.69 3.12,7.53zm-17.65 -7l0 0c-1.87,1.87 -2.9,4.35 -2.9,7 0,2.64 1.03,5.13 2.9,7 3.86,3.86 10.13,3.86 13.99,0 1.87,-1.87 2.9,-4.35 2.9,-7 0,-2.64 -1.03,-5.13 -2.9,-7 -1.87,-1.87 -4.35,-2.89 -7,-2.89 -2.65,0 -5.13,1.03 -7,2.89z"/>
   <path class="fil0" d="M12.63 18.38l-7.73 -7.53c-0,-0 -0,-0 -0,-0 -0.05,-0.05 -0.08,-0.13 -0.08,-0.2 0,-0.07 0.03,-0.15 0.09,-0.21l7.73 -7.52c0.08,-0.08 0.21,-0.1 0.31,-0.06 0.11,0.04 0.18,0.15 0.18,0.27l0 3.92 3.09 0c0.08,-0 0.15,0.03 0.2,0.08 0.05,0.05 0.08,0.13 0.08,0.2l0 6.64c0,0.16 -0.13,0.29 -0.29,0.29l-3.09 0 -0 3.92c0,0.08 -0.03,0.15 -0.08,0.2 -0.03,0.03 -0.06,0.05 -0.09,0.06 -0.11,0.05 -0.23,0.02 -0.31,-0.06zm-0.09 -4.41l0 0c-0,-0.08 0.03,-0.15 0.08,-0.2 0.05,-0.05 0.13,-0.08 0.2,-0.08l3.09 0 0 -6.06 -3.09 0c-0.16,0 -0.29,-0.13 -0.29,-0.29l0 -3.52 -7.03 6.84 7.03 6.84 0 -3.52z"/>
  </g>
 </g>
</svg>
