<?xml version="1.0" encoding="UTF-8"?>
<!DOCTYPE svg PUBLIC "-//W3C//DTD SVG 1.1//EN" "http://www.w3.org/Graphics/SVG/1.1/DTD/svg11.dtd">
<!-- Creator: CorelDRAW 2018 (64-Bit) -->
<svg xmlns="http://www.w3.org/2000/svg" xml:space="preserve" width="5.506mm" height="5.5032mm" version="1.1" style="shape-rendering:geometricPrecision; text-rendering:geometricPrecision; image-rendering:optimizeQuality; fill-rule:evenodd; clip-rule:evenodd"
viewBox="0 0 23.06 23.05"
 xmlns:xlink="http://www.w3.org/1999/xlink">
 <defs>
  <style type="text/css">
   <![CDATA[
    .fil0 {fill:#767676;fill-rule:nonzero}
    .fil1 {fill:#CD0017;fill-rule:nonzero}
   ]]>
  </style>
 </defs>
 <g id="Layer_x0020_1">
  <metadata id="CorelCorpID_0Corel-Layer"/>
  <g id="_3527448784">
   <path class="fil0" d="M-0 11.53c0,3.08 1.2,5.98 3.38,8.15 2.17,2.17 5.07,3.37 8.15,3.37 3.08,0 5.98,-1.2 8.15,-3.37 2.18,-2.18 3.38,-5.07 3.38,-8.15 0,-3.08 -1.2,-5.98 -3.38,-8.15 -4.5,-4.5 -11.81,-4.5 -16.31,0 -2.18,2.18 -3.38,5.07 -3.38,8.15zm19.1 -7.57l0 0c2.02,2.02 3.14,4.71 3.14,7.57 0,2.86 -1.11,5.55 -3.14,7.57 -4.17,4.17 -10.97,4.17 -15.14,0 -2.02,-2.02 -3.14,-4.71 -3.14,-7.57 0,-2.86 1.11,-5.55 3.14,-7.57 2.02,-2.02 4.71,-3.13 7.57,-3.13 2.86,0 5.55,1.11 7.57,3.13z"/>
   <path class="fil1" d="M10.21 19.89l8.37 -8.14c0,-0 0,-0 0,-0 0.06,-0.06 0.09,-0.14 0.09,-0.22 0,-0.08 -0.03,-0.16 -0.1,-0.23l-8.36 -8.14c-0.09,-0.09 -0.22,-0.11 -0.34,-0.06 -0.12,0.05 -0.19,0.16 -0.19,0.29l-0 4.24 -3.35 0c-0.08,-0 -0.16,0.03 -0.22,0.09 -0.06,0.06 -0.09,0.14 -0.09,0.22l0 7.18c-0,0.17 0.14,0.31 0.31,0.31l3.35 0 0 4.24c-0,0.08 0.03,0.16 0.09,0.22 0.03,0.03 0.06,0.05 0.1,0.07 0.12,0.05 0.25,0.02 0.34,-0.06zm0.09 -4.78l0 0c0,-0.08 -0.03,-0.16 -0.09,-0.22 -0.06,-0.06 -0.14,-0.09 -0.22,-0.09l-3.34 0 0 -6.56 3.35 0c0.17,0 0.31,-0.14 0.31,-0.31l-0 -3.81 7.61 7.4 -7.61 7.4 0 -3.81z"/>
  </g>
 </g>
</svg>
