<svg xmlns="http://www.w3.org/2000/svg" width="20.81" height="20.799" viewBox="0 0 21.31 21.3" shape-rendering="geometricPrecision" text-rendering="geometricPrecision" image-rendering="optimizeQuality" fill-rule="evenodd" clip-rule="evenodd"><defs><style>.fil0{fill:#fefefe;fill-rule:nonzero}</style></defs><g id="Layer_x0020_1"><g id="_1597897984"><path class="fil0" d="M21.31 10.65c0 2.85-1.11 5.52-3.12 7.54a10.597 10.597 0 01-7.54 3.12c-2.85 0-5.53-1.11-7.54-3.12a10.597 10.597 0 01-3.12-7.54c0-2.85 1.11-5.52 3.12-7.53 4.16-4.16 10.92-4.16 15.07 0 2.01 2.01 3.12 4.69 3.12 7.53zm-17.65-7a9.825 9.825 0 00-2.9 7c0 2.64 1.03 5.13 2.9 7 3.86 3.86 10.13 3.86 13.99 0a9.825 9.825 0 002.9-7c0-2.64-1.03-5.13-2.9-7a9.815 9.815 0 00-7-2.89c-2.65 0-5.13 1.03-7 2.89z"/><path class="fil0" d="M12.63 18.38L4.9 10.85a.297.297 0 01-.08-.2c0-.07.03-.15.09-.21l7.73-7.52c.08-.08.21-.1.31-.06.11.04.18.15.18.27v3.92h3.09c.08 0 .15.03.2.08.05.05.08.13.08.2v6.64c0 .16-.13.29-.29.29h-3.09v3.92a.28.28 0 01-.48.2zm-.09-4.41c0-.08.03-.15.08-.2.05-.05.13-.08.2-.08h3.09V7.63h-3.09a.29.29 0 01-.29-.29V3.82L5.5 10.66l7.03 6.84v-3.52z"/></g></g></svg>