<svg xmlns="http://www.w3.org/2000/svg" width="20.81" height="20.799" viewBox="0 0 23.06 23.05" shape-rendering="geometricPrecision" text-rendering="geometricPrecision" image-rendering="optimizeQuality" fill-rule="evenodd" clip-rule="evenodd"><g fill-rule="nonzero"><path d="M0 11.53c0 3.08 1.2 5.98 3.38 8.15a11.46 11.46 0 008.15 3.37c3.08 0 5.98-1.2 8.15-3.37 2.18-2.18 3.38-5.07 3.38-8.15s-1.2-5.98-3.38-8.15c-4.5-4.5-11.81-4.5-16.31 0a11.445 11.445 0 00-3.38 8.15zm19.1-7.57c2.02 2.02 3.14 4.71 3.14 7.57 0 2.86-1.11 5.55-3.14 7.57-4.17 4.17-10.97 4.17-15.14 0a10.644 10.644 0 01-3.14-7.57c0-2.86 1.11-5.55 3.14-7.57C5.98 1.94 8.67.83 11.53.83c2.86 0 5.55 1.11 7.57 3.13z" fill="#767676"/><path d="M10.21 19.89l8.37-8.14a.31.31 0 00.09-.22.32.32 0 00-.1-.23l-8.36-8.14a.304.304 0 00-.34-.06c-.12.05-.19.16-.19.29v4.24H6.33a.31.31 0 00-.22.09.31.31 0 00-.09.22v7.18c0 .17.14.31.31.31h3.35v4.24c0 .08.03.16.09.22.03.03.06.05.1.07.12.05.25.02.34-.06zm.09-4.78a.31.31 0 00-.09-.22.31.31 0 00-.22-.09H6.65V8.24H10c.17 0 .31-.14.31-.31V4.12l7.61 7.4-7.61 7.4v-3.81z" fill="#cd0017"/></g></svg>