<svg xmlns="http://www.w3.org/2000/svg" width="22.72" height="25.033" viewBox="0 0 19.69 21.7" shape-rendering="geometricPrecision" text-rendering="geometricPrecision" image-rendering="optimizeQuality" fill-rule="evenodd" clip-rule="evenodd"><g fill-rule="nonzero"><path d="M.14 0H19.7v21.7H.01V0h.14zm19.28.28H.28v21.15h19.14V.28z" fill="#fff"/><path d="M9.98 8.9c.17-.04.41-.13.66-.23.58-.23 1.23-.49 1.74-.32.72.25 1.04 1.07 1.21 1.56.16-.12.28-.29.36-.49.11-.27.16-.6.16-.94 0-.36-.07-.74-.19-1.11-.26-.81-.77-1.56-1.48-1.85-.99-.41-2.17-.67-3.27-.57-.87.07-1.68.37-2.29 1-.17.18-.35.3-.52.41-.43.29-.85.57-.85 2.14 0 .4.12.81.3 1.09.07.11.15.19.22.23.04.02.08.03.12.02.07-.02.15-.09.23-.22.95-1.4 1.95-1.12 2.89-.86.24.07.48.14.7.16zM2.61 20.85l.55-2.17 4.02-2.36.26.25.35-1.09c-.36-.3-.67-.65-.88-.99-.39-.62-.69-1.34-.8-1.72-.01-.02-.07-.05-.15-.08-.19-.08-.4-.17-.58-.43-.25-.35-.31-.79-.26-1.21.04-.33.15-.65.29-.92-.05-.06-.1-.12-.15-.19-.25-.37-.41-.92-.41-1.45 0-1.92.56-2.29 1.14-2.68.14-.1.29-.2.42-.32.73-.76 1.69-1.12 2.71-1.2 1.21-.1 2.5.18 3.57.62.9.37 1.54 1.28 1.85 2.26.14.43.21.88.21 1.3.01.44-.06.85-.21 1.2-.05.13-.12.25-.19.36.17.28.31.65.35 1.02.05.42-.01.86-.26 1.21-.18.26-.4.35-.58.43-.08.03-.15.06-.15.09-.11.38-.41 1.09-.8 1.72-.24.39-.61.78-1.03 1.11l.31.96.26-.25 4.02 2.36.55 2.17-.63.16-.49-1.91-3.35-1.97-2.41 2.29v1.46h-.66v-1.46l-2.41-2.29-3.35 1.97-.49 1.91-.63-.16zm5.74-4.97l-.39 1.19 1.85 1.76 1.85-1.76-.36-1.09c-.45.24-.93.39-1.4.39h-.01c-.52.01-1.06-.18-1.56-.48zm-2.37-5.41c-.1.19-.17.42-.2.66-.03.28 0 .56.14.76.08.11.2.16.3.2.23.1.44.18.53.51.09.34.37.98.72 1.55.45.72 1.54 1.59 2.43 1.55h.02c.89.03 1.99-.84 2.43-1.55.35-.57.63-1.21.72-1.55.09-.33.29-.41.53-.51.11-.04.23-.1.3-.2.14-.2.18-.48.14-.76-.03-.22-.1-.44-.19-.62-.11.07-.23.12-.35.16-.33.1-.4-.11-.52-.45-.13-.37-.37-1.09-.84-1.25-.28-.1-.81.12-1.28.31-.3.12-.58.23-.83.28l-.04.01h-.04c-.29-.02-.58-.1-.87-.18-.72-.2-1.49-.41-2.17.6-.17.25-.36.4-.55.47-.13.05-.27.06-.4.03z" fill="#767676"/></g></svg>