<?xml version="1.0" encoding="UTF-8"?>
<!DOCTYPE svg PUBLIC "-//W3C//DTD SVG 1.1//EN" "http://www.w3.org/Graphics/SVG/1.1/DTD/svg11.dtd">
<!-- Creator: CorelDRAW 2018 (64-Bit) -->
<svg xmlns="http://www.w3.org/2000/svg" xml:space="preserve" width="6.0113mm" height="6.6234mm" version="1.1" style="shape-rendering:geometricPrecision; text-rendering:geometricPrecision; image-rendering:optimizeQuality; fill-rule:evenodd; clip-rule:evenodd"
viewBox="0 0 19.69 21.7"
 xmlns:xlink="http://www.w3.org/1999/xlink">
 <defs>
  <style type="text/css">
   <![CDATA[
    .fil0 {fill:#767676;fill-rule:nonzero}
    .fil1 {fill:white;fill-rule:nonzero}
   ]]>
  </style>
 </defs>
 <g id="Layer_x0020_1">
  <metadata id="CorelCorpID_0Corel-Layer"/>
  <path class="fil1" d="M0.14 0l19.56 0 0 21.7 -19.69 0 0 -21.7 0.14 0zm19.28 0.28l-19.14 0 0 21.15 19.14 0 0 -21.15z"/>
  <path class="fil0" d="M9.98 8.9c0.17,-0.04 0.41,-0.13 0.66,-0.23 0.58,-0.23 1.23,-0.49 1.74,-0.32 0.72,0.25 1.04,1.07 1.21,1.56 0.16,-0.12 0.28,-0.29 0.36,-0.49 0.11,-0.27 0.16,-0.6 0.16,-0.94 -0,-0.36 -0.07,-0.74 -0.19,-1.11 -0.26,-0.81 -0.77,-1.56 -1.48,-1.85 -0.99,-0.41 -2.17,-0.67 -3.27,-0.57 -0.87,0.07 -1.68,0.37 -2.29,1 -0.17,0.18 -0.35,0.3 -0.52,0.41 -0.43,0.29 -0.85,0.57 -0.85,2.14 0,0.4 0.12,0.81 0.3,1.09 0.07,0.11 0.15,0.19 0.22,0.23 0.04,0.02 0.08,0.03 0.12,0.02 0.07,-0.02 0.15,-0.09 0.23,-0.22 0.95,-1.4 1.95,-1.12 2.89,-0.86 0.24,0.07 0.48,0.14 0.7,0.16zm-7.37 11.95l0.55 -2.17 4.02 -2.36 0.26 0.25 0.35 -1.09c-0.36,-0.3 -0.67,-0.65 -0.88,-0.99 -0.39,-0.62 -0.69,-1.34 -0.8,-1.72 -0.01,-0.02 -0.07,-0.05 -0.15,-0.08 -0.19,-0.08 -0.4,-0.17 -0.58,-0.43 -0.25,-0.35 -0.31,-0.79 -0.26,-1.21 0.04,-0.33 0.15,-0.65 0.29,-0.92 -0.05,-0.06 -0.1,-0.12 -0.15,-0.19 -0.25,-0.37 -0.41,-0.92 -0.41,-1.45 0,-1.92 0.56,-2.29 1.14,-2.68 0.14,-0.1 0.29,-0.2 0.42,-0.32 0.73,-0.76 1.69,-1.12 2.71,-1.2 1.21,-0.1 2.5,0.18 3.57,0.62 0.9,0.37 1.54,1.28 1.85,2.26 0.14,0.43 0.21,0.88 0.21,1.3 0.01,0.44 -0.06,0.85 -0.21,1.2 -0.05,0.13 -0.12,0.25 -0.19,0.36 0.17,0.28 0.31,0.65 0.35,1.02 0.05,0.42 -0.01,0.86 -0.26,1.21 -0.18,0.26 -0.4,0.35 -0.58,0.43 -0.08,0.03 -0.15,0.06 -0.15,0.09 -0.11,0.38 -0.41,1.09 -0.8,1.72 -0.24,0.39 -0.61,0.78 -1.03,1.11l0.31 0.96 0.26 -0.25 4.02 2.36 0.55 2.17 -0.63 0.16 -0.49 -1.91 -3.35 -1.97 -2.41 2.29 0 1.46 -0.66 0 0 -1.46 -2.41 -2.29 -3.35 1.97 -0.49 1.91 -0.63 -0.16zm5.74 -4.97l-0.39 1.19 1.85 1.76 1.85 -1.76 -0.36 -1.09c-0.45,0.24 -0.93,0.39 -1.4,0.39l-0.01 0c-0.52,0.01 -1.06,-0.18 -1.56,-0.48zm-2.37 -5.41c-0.1,0.19 -0.17,0.42 -0.2,0.66 -0.03,0.28 -0,0.56 0.14,0.76 0.08,0.11 0.2,0.16 0.3,0.2 0.23,0.1 0.44,0.18 0.53,0.51 0.09,0.34 0.37,0.98 0.72,1.55 0.45,0.72 1.54,1.59 2.43,1.55l0 -0 0.01 0 0.01 -0 0 0c0.89,0.03 1.99,-0.84 2.43,-1.55 0.35,-0.57 0.63,-1.21 0.72,-1.55 0.09,-0.33 0.29,-0.41 0.53,-0.51 0.11,-0.04 0.23,-0.1 0.3,-0.2 0.14,-0.2 0.18,-0.48 0.14,-0.76 -0.03,-0.22 -0.1,-0.44 -0.19,-0.62 -0.11,0.07 -0.23,0.12 -0.35,0.16 -0.33,0.1 -0.4,-0.11 -0.52,-0.45 -0.13,-0.37 -0.37,-1.09 -0.84,-1.25 -0.28,-0.1 -0.81,0.12 -1.28,0.31 -0.3,0.12 -0.58,0.23 -0.83,0.28l-0.04 0.01 -0.04 -0c-0.29,-0.02 -0.58,-0.1 -0.87,-0.18 -0.72,-0.2 -1.49,-0.41 -2.17,0.6 -0.17,0.25 -0.36,0.4 -0.55,0.47 -0.13,0.05 -0.27,0.06 -0.4,0.03z"/>
 </g>
</svg>
