<?xml version="1.0" encoding="UTF-8"?>
<!DOCTYPE svg PUBLIC "-//W3C//DTD SVG 1.1//EN" "http://www.w3.org/Graphics/SVG/1.1/DTD/svg11.dtd">
<!-- Creator: CorelDRAW 2018 (64-Bit) -->
<svg xmlns="http://www.w3.org/2000/svg" xml:space="preserve" width="3.4627mm" height="3.6521mm" version="1.1" style="shape-rendering:geometricPrecision; text-rendering:geometricPrecision; image-rendering:optimizeQuality; fill-rule:evenodd; clip-rule:evenodd"
viewBox="0 0 10.05 10.6"
 xmlns:xlink="http://www.w3.org/1999/xlink">
 <defs>
  <style type="text/css">
   <![CDATA[
    .str0 {stroke:#CD0017;stroke-width:0.29;stroke-miterlimit:22.9256}
    .fil1 {fill:#FEFEFE}
    .fil0 {fill:#767676}
   ]]>
  </style>
 </defs>
 <g id="Layer_x0020_1">
  <metadata id="CorelCorpID_0Corel-Layer"/>
  <path class="fil0" d="M9.91 1.46l-0.08 0.01 -0.01 -0.01 -6.13 0 -0.29 -1.27 0 -0.03c0,-0.09 -0.07,-0.16 -0.16,-0.16l-0.95 0c-0.09,0 -0.16,0.07 -0.16,0.16 0,0.09 0.07,0.16 0.16,0.16l0.81 0 1.26 5.54 -0.07 0.05c-0.2,0.13 -0.32,0.35 -0.32,0.59 0,0.39 0.32,0.71 0.71,0.71 0.39,0 0.71,-0.32 0.71,-0.71 0,-0.08 -0.01,-0.15 -0.04,-0.22l-0.06 -0.17 2.55 0 -0.06 0.17c-0.02,0.07 -0.04,0.15 -0.04,0.22 0,0.39 0.32,0.71 0.71,0.71 0.39,0 0.71,-0.32 0.71,-0.71 0,-0.39 -0.32,-0.71 -0.71,-0.71l-3.79 0 -0.13 -0.56 4.7 0c0.02,0 0.04,-0 0.08,-0.02 0.01,-0 0.02,-0.01 0.04,-0.04 0.01,-0.01 0.01,-0.02 0.02,-0.03 0,-0.01 0.01,-0.02 0.01,-0.03l0.01 -0.02 0 0 0.65 -3.45 -0 -0.04 -0.01 -0.03c-0,-0.01 -0.01,-0.02 -0.01,-0.03 -0,-0.01 -0.01,-0.02 -0.02,-0.02 -0.01,-0.01 -0.01,-0.01 -0.02,-0.02 -0.01,-0.01 -0.01,-0.01 -0.02,-0.01 -0.01,-0 -0.02,-0.01 -0.03,-0.01l-0.02 -0.01zm-4.84 5.03c0,0.21 -0.18,0.39 -0.39,0.39 -0.21,0 -0.39,-0.17 -0.39,-0.39 0,-0.21 0.17,-0.39 0.39,-0.39 0.21,0 0.39,0.17 0.39,0.39zm3.78 0c0,0.21 -0.18,0.39 -0.39,0.39 -0.21,0 -0.39,-0.17 -0.39,-0.39 0,-0.21 0.17,-0.39 0.39,-0.39 0.21,0 0.39,0.17 0.39,0.39zm0.58 -3.31l-1.44 0 0.17 -1.41 1.54 0 -0.26 1.41zm-0.32 1.72l-1.32 0 0.17 -1.41 1.42 0 -0.26 1.41zm-1.48 -1.41l-0.17 1.41 -1.35 0 -0.14 -1.41 1.66 0zm-1.69 -0.32l-0.14 -1.41 2.03 0 -0.17 1.41 -1.72 0zm-0.46 -1.41l0.14 1.41 -1.55 0 -0.32 -1.41 1.73 0zm-1.34 1.72l1.51 0 0.14 1.41 -1.33 0 -0.32 -1.41z"/>
  <circle class="fil1" cx="3.47" cy="7.12" r="3.47"/>
  <circle class="fil1 str0" cx="3.47" cy="7.12" r="2.61"/>
 </g>
</svg>
