<svg xmlns="http://www.w3.org/2000/svg" width="10.3" height="9.374" viewBox="0 0 6.14 5.58" shape-rendering="geometricPrecision" text-rendering="geometricPrecision" image-rendering="optimizeQuality" fill-rule="evenodd" clip-rule="evenodd"><path d="M6.03 1.14l-.06.01v-.01H1.21L.99.16V.14C.99.07.93.02.87.02H.13C.06.02.01.08.01.14c0 .07.05.12.12.12h.63l.98 4.3-.06.04c-.15.1-.25.27-.25.46 0 .3.25.55.55.55.3 0 .55-.25.55-.55 0-.06-.01-.12-.03-.17l-.04-.13h1.98l-.04.13c-.02.06-.03.11-.03.17 0 .3.25.55.55.55.3 0 .55-.25.55-.55 0-.3-.25-.55-.55-.55H1.98l-.1-.44h3.65c.02 0 .03 0 .06-.02.01 0 .01-.01.03-.03.01-.01.01-.01.01-.02s.01-.01.01-.02l.01-.02.5-2.68v-.05c0-.01-.01-.02-.01-.02 0-.01-.01-.01-.01-.02s-.01-.01-.02-.02c-.01 0-.01-.01-.02-.01s-.01-.01-.02-.01h-.02zm-3.76 3.9a.3.3 0 01-.3.3.3.3 0 01-.3-.3c0-.17.14-.3.3-.3.17 0 .3.14.3.3zm2.94 0a.3.3 0 01-.3.3.3.3 0 01-.3-.3c0-.17.14-.3.3-.3.17 0 .3.14.3.3zm.45-2.57H4.54l.13-1.09h1.2l-.2 1.09zm-.25 1.34H4.38l.13-1.09h1.1l-.2 1.09zM4.26 2.72l-.13 1.09H3.08l-.11-1.09h1.28zm-1.31-.25l-.11-1.09h1.58l-.13 1.09H2.95zm-.36-1.09l.11 1.09H1.5l-.25-1.09h1.34zM1.55 2.72h1.17l.11 1.09H1.8l-.25-1.09z" fill="#767676"/></svg>