<?xml version="1.0" encoding="UTF-8"?>
<!DOCTYPE svg PUBLIC "-//W3C//DTD SVG 1.1//EN" "http://www.w3.org/Graphics/SVG/1.1/DTD/svg11.dtd">
<!-- Creator: CorelDRAW 2018 (64-Bit) -->
<svg xmlns="http://www.w3.org/2000/svg" xml:space="preserve" width="2.7252mm" height="2.4801mm" version="1.1" style="shape-rendering:geometricPrecision; text-rendering:geometricPrecision; image-rendering:optimizeQuality; fill-rule:evenodd; clip-rule:evenodd"
viewBox="0 0 6.14 5.58"
 xmlns:xlink="http://www.w3.org/1999/xlink">
 <defs>
  <style type="text/css">
   <![CDATA[
    .fil0 {fill:#767676}
   ]]>
  </style>
 </defs>
 <g id="Layer_x0020_1">
  <metadata id="CorelCorpID_0Corel-Layer"/>
  <path class="fil0" d="M6.03 1.14l-0.06 0.01 -0 -0.01 -4.76 0 -0.22 -0.98 0 -0.02c0,-0.07 -0.06,-0.12 -0.12,-0.12l-0.74 0c-0.07,0 -0.12,0.06 -0.12,0.12 0,0.07 0.05,0.12 0.12,0.12l0.63 0 0.98 4.3 -0.06 0.04c-0.15,0.1 -0.25,0.27 -0.25,0.46 0,0.3 0.25,0.55 0.55,0.55 0.3,0 0.55,-0.25 0.55,-0.55 0,-0.06 -0.01,-0.12 -0.03,-0.17l-0.04 -0.13 1.98 0 -0.04 0.13c-0.02,0.06 -0.03,0.11 -0.03,0.17 0,0.3 0.25,0.55 0.55,0.55 0.3,0 0.55,-0.25 0.55,-0.55 0,-0.3 -0.25,-0.55 -0.55,-0.55l-2.94 0 -0.1 -0.44 3.65 0c0.02,0 0.03,-0 0.06,-0.02 0.01,-0 0.01,-0.01 0.03,-0.03 0.01,-0.01 0.01,-0.01 0.01,-0.02 0,-0.01 0.01,-0.01 0.01,-0.02l0.01 -0.02 0 0 0.5 -2.68 -0 -0.03 -0 -0.02c-0,-0.01 -0.01,-0.02 -0.01,-0.02 -0,-0.01 -0.01,-0.01 -0.01,-0.02 -0,-0.01 -0.01,-0.01 -0.02,-0.02 -0.01,-0 -0.01,-0.01 -0.02,-0.01 -0.01,-0 -0.01,-0.01 -0.02,-0.01l-0.02 -0zm-3.76 3.9c0,0.17 -0.14,0.3 -0.3,0.3 -0.17,0 -0.3,-0.14 -0.3,-0.3 0,-0.17 0.14,-0.3 0.3,-0.3 0.17,0 0.3,0.14 0.3,0.3zm2.94 0c0,0.17 -0.14,0.3 -0.3,0.3 -0.17,0 -0.3,-0.14 -0.3,-0.3 0,-0.17 0.14,-0.3 0.3,-0.3 0.17,0 0.3,0.14 0.3,0.3zm0.45 -2.57l-1.12 0 0.13 -1.09 1.2 0 -0.2 1.09zm-0.25 1.34l-1.03 0 0.13 -1.09 1.1 0 -0.2 1.09zm-1.15 -1.09l-0.13 1.09 -1.05 0 -0.11 -1.09 1.28 0zm-1.31 -0.25l-0.11 -1.09 1.58 0 -0.13 1.09 -1.34 0zm-0.36 -1.09l0.11 1.09 -1.2 0 -0.25 -1.09 1.34 0zm-1.04 1.34l1.17 0 0.11 1.09 -1.03 0 -0.25 -1.09z"/>
 </g>
</svg>
