<svg xmlns="http://www.w3.org/2000/svg" width="13.087" height="13.803" viewBox="0 0 10.05 10.6" shape-rendering="geometricPrecision" text-rendering="geometricPrecision" image-rendering="optimizeQuality" fill-rule="evenodd" clip-rule="evenodd"><defs><style>.fil1{fill:#fefefe}</style></defs><g id="Layer_x0020_1"><path d="M9.91 1.46l-.08.01-.01-.01H3.69L3.4.19V.16C3.4.07 3.33 0 3.24 0h-.95c-.09 0-.16.07-.16.16s.07.16.16.16h.81l1.26 5.54-.07.05a.7.7 0 00-.32.59c0 .39.32.71.71.71.39 0 .71-.32.71-.71 0-.08-.01-.15-.04-.22l-.06-.17h2.55l-.06.17a.85.85 0 00-.04.22c0 .39.32.71.71.71.39 0 .71-.32.71-.71 0-.39-.32-.71-.71-.71H4.66l-.13-.56h4.7c.02 0 .04 0 .08-.02.01 0 .02-.01.04-.04.01-.01.01-.02.02-.03 0-.01.01-.02.01-.03l.01-.02.65-3.45V1.6l-.01-.03c0-.01-.01-.02-.01-.03 0-.01-.01-.02-.02-.02l-.02-.02c-.01-.01-.01-.01-.02-.01s-.02-.01-.03-.01l-.02-.01zM5.07 6.49c0 .21-.18.39-.39.39a.39.39 0 11.39-.39zm3.78 0c0 .21-.18.39-.39.39a.39.39 0 11.39-.39zm.58-3.31H7.99l.17-1.41H9.7l-.26 1.41zM9.11 4.9H7.79l.17-1.41h1.42L9.12 4.9zM7.63 3.49L7.46 4.9H6.11l-.14-1.41h1.66zm-1.69-.32L5.8 1.76h2.03l-.17 1.41H5.94zm-.46-1.41l.14 1.41H4.07l-.32-1.41h1.73zM4.14 3.48h1.51l.14 1.41H4.46l-.32-1.41z" fill="#767676"/><circle class="fil1" cx="3.47" cy="7.12" r="3.47"/><circle class="fil1" cx="3.47" cy="7.12" r="2.61" stroke="#cd0017" stroke-width=".29" stroke-miterlimit="22.926"/></g></svg>