<?xml version="1.0" encoding="UTF-8"?>
<!DOCTYPE svg PUBLIC "-//W3C//DTD SVG 1.1//EN" "http://www.w3.org/Graphics/SVG/1.1/DTD/svg11.dtd">
<!-- Creator: CorelDRAW 2018 (64-Bit) -->
<svg xmlns="http://www.w3.org/2000/svg" xml:space="preserve" width="3.7331mm" height="3.5265mm" version="1.1" style="shape-rendering:geometricPrecision; text-rendering:geometricPrecision; image-rendering:optimizeQuality; fill-rule:evenodd; clip-rule:evenodd"
viewBox="0 0 13.41 12.67"
 xmlns:xlink="http://www.w3.org/1999/xlink">
 <defs>
  <style type="text/css">
   <![CDATA[
    .fil0 {fill:#FEFEFE;fill-rule:nonzero}
   ]]>
  </style>
 </defs>
 <g id="Layer_x0020_1">
  <metadata id="CorelCorpID_0Corel-Layer"/>
  <path class="fil0" d="M13.36 2.66c-0.04,-0.05 -0.1,-0.08 -0.17,-0.08l-1.69 0 0 0 -6.7 0c-0,0 -0,0 -0,0l-1.33 0c-0.2,-1 -0.62,-1.7 -1.26,-2.06 -0.06,-0.04 -0.12,-0.07 -0.19,-0.09l0 -0.17c0,-0.14 -0.12,-0.26 -0.26,-0.26l-1.51 0c-0.14,0 -0.26,0.12 -0.26,0.26l0 0.42c0,0.14 0.12,0.26 0.26,0.26l1.51 0c0.06,0 0.12,-0.02 0.16,-0.06 0.02,0.01 0.04,0.02 0.06,0.03 0.55,0.32 0.91,0.97 1.07,1.93 0,0 0,0 0,0 0,0 0,0 0,0l1.01 5.34c-0.32,0.22 -1.02,0.85 -1.08,2.24 -0.52,0.1 -0.91,0.56 -0.91,1.11 0,0.62 0.51,1.13 1.13,1.13 0.62,0 1.13,-0.51 1.13,-1.13 0,-0.25 -0.09,-0.49 -0.23,-0.68l5.88 0c-0.14,0.19 -0.23,0.42 -0.23,0.68 0,0.62 0.51,1.13 1.13,1.13 0.62,0 1.13,-0.51 1.13,-1.13 0,-0.62 -0.51,-1.13 -1.13,-1.13l-7.46 0c0.07,-1.31 0.78,-1.79 0.95,-1.89l5.69 -0.5c0.02,0 0.03,0.01 0.05,0.01 0,0 0,0 0.01,0 0.03,-0 0.06,-0.01 0.08,-0.02l2.43 -0.22c0.11,-0.01 0.19,-0.09 0.21,-0.2l0.19 -1.58c0.01,-0.03 0.02,-0.06 0.02,-0.1 0,-0 -0,-0.01 -0,-0.01l0.36 -3.07c0.01,-0.06 -0.01,-0.13 -0.06,-0.18zm-2.45 8.2l0 0c0.37,0 0.68,0.3 0.68,0.68 0,0.37 -0.3,0.68 -0.68,0.68 -0.37,0 -0.68,-0.3 -0.68,-0.68 0,-0.37 0.3,-0.68 0.68,-0.68zm-7.01 0.68l0 0c0,0.37 -0.3,0.68 -0.68,0.68 -0.37,0 -0.68,-0.3 -0.68,-0.68 0,-0.37 0.3,-0.68 0.68,-0.68 0.37,0 0.68,0.3 0.68,0.68zm4.14 -8.5l0 0 0.09 1.1 -1.29 0 -0.17 -1.1 1.36 0zm-1.82 0l0 0 0.17 1.1 -1.1 0 -0.2 -1.1 1.13 0zm-2.64 0l0 0 1.05 0 0.2 1.1 -1.04 0 -0.21 -1.1zm0.29 1.56l0 0 1.04 0 0.3 1.65 -1.02 0.07 -0.32 -1.72zm0.65 3.46l0 0 -0.24 -1.29 1.02 -0.07 0.23 1.28 -1.01 0.09zm0.85 -3.46l0 0 1.08 0 0.23 1.55 -1.02 0.07 -0.3 -1.62zm0.61 3.33l0 0 -0.23 -1.27 1.01 -0.07 0.19 1.25 -0.97 0.09zm0.93 -3.33l0 0 1.25 0 0.12 1.43 -1.14 0.08 -0.23 -1.51zm0.49 3.21l0 0 -0.19 -1.24 1.11 -0.08 0.1 1.23 -1.02 0.09zm1.1 -4.76l0 0 1.29 0 0.03 1.1 -1.23 0 -0.09 -1.1zm0.13 1.56l0 0 1.21 0 0.03 1.32 -1.13 0.08 -0.11 -1.4zm0.25 3.08l0 0 -0.1 -1.22 1.11 -0.08 0.03 1.21 -1.04 0.09zm1.37 -4.63l0 0 1.04 0 0 1.1 -1.01 0 -0.03 -1.1zm0.04 1.56l0 0 1 0 0 1.22 -0.97 0.07 -0.03 -1.29zm0.08 2.95l0 0 -0.03 -1.2 0.96 -0.07 0 1.19 -0.93 0.08zm2.07 -0.18l0 0 -0.69 0.06 -0 -1.18 0.83 -0.06 -0.14 1.18zm0.19 -1.63l0 0 -0.88 0.06 -0 -1.19 1.02 0 -0.13 1.13zm0.19 -1.58l0 0 -1.07 0 -0 -1.1 1.2 0 -0.13 1.1z"/>
 </g>
</svg>
