<?xml version="1.0" encoding="UTF-8"?>
<!DOCTYPE svg PUBLIC "-//W3C//DTD SVG 1.1//EN" "http://www.w3.org/Graphics/SVG/1.1/DTD/svg11.dtd">
<!-- Creator: CorelDRAW 2018 (64-Bit) -->
<svg xmlns="http://www.w3.org/2000/svg" xml:space="preserve" width="2.4715mm" height="2.249mm" version="1.1" style="shape-rendering:geometricPrecision; text-rendering:geometricPrecision; image-rendering:optimizeQuality; fill-rule:evenodd; clip-rule:evenodd"
viewBox="0 0 5.05 4.59"
 xmlns:xlink="http://www.w3.org/1999/xlink">
 <defs>
  <style type="text/css">
   <![CDATA[
    .fil0 {fill:#767676}
   ]]>
  </style>
 </defs>
 <g id="Layer_x0020_1">
  <metadata id="CorelCorpID_0Corel-Layer"/>
  <path class="fil0" d="M4.96 0.93l-0.05 0.01 -0 -0.01 -3.91 0 -0.18 -0.81 0 -0.02c0,-0.06 -0.05,-0.1 -0.1,-0.1l-0.61 0c-0.06,0 -0.1,0.05 -0.1,0.1 0,0.06 0.05,0.1 0.1,0.1l0.52 0 0.8 3.53 -0.05 0.03c-0.13,0.08 -0.2,0.22 -0.2,0.37 0,0.25 0.2,0.45 0.45,0.45 0.25,0 0.45,-0.2 0.45,-0.45 0,-0.05 -0.01,-0.1 -0.02,-0.14l-0.04 -0.11 1.63 0 -0.04 0.11c-0.02,0.05 -0.02,0.09 -0.02,0.14 0,0.25 0.2,0.45 0.45,0.45 0.25,0 0.45,-0.2 0.45,-0.45 0,-0.25 -0.2,-0.45 -0.45,-0.45l-2.42 0 -0.08 -0.36 3 0c0.01,0 0.03,-0 0.05,-0.02 0.01,-0 0.01,-0.01 0.03,-0.02 0,-0.01 0.01,-0.01 0.01,-0.02 0,-0.01 0,-0.01 0.01,-0.02l0 -0.02 0 0 0.41 -2.2 -0 -0.03 -0 -0.02c-0,-0.01 -0,-0.01 -0.01,-0.02 -0,-0.01 -0.01,-0.01 -0.01,-0.02 -0,-0 -0.01,-0.01 -0.02,-0.01 -0,-0 -0.01,-0.01 -0.01,-0.01 -0.01,-0 -0.01,-0.01 -0.02,-0.01l-0.01 -0zm-3.09 3.21c0,0.14 -0.11,0.25 -0.25,0.25 -0.14,0 -0.25,-0.11 -0.25,-0.25 0,-0.14 0.11,-0.25 0.25,-0.25 0.14,0 0.25,0.11 0.25,0.25zm2.41 0c0,0.14 -0.11,0.25 -0.25,0.25 -0.14,0 -0.25,-0.11 -0.25,-0.25 0,-0.14 0.11,-0.25 0.25,-0.25 0.14,0 0.25,0.11 0.25,0.25zm-0.44 -3.01l-0.2 0 -1.3 0 -0.2 0 -1.1 0 0.2 0.9 0.05 0.2 0.2 0.9 0.85 0 0.2 0 0.86 0 0.2 0 0.85 0 0.17 -0.9 0.04 -0.2 0.17 -0.9 -0.98 0z"/>
 </g>
</svg>
