<svg xmlns="http://www.w3.org/2000/svg" width="24" height="24" viewBox="0 0 37.86 37.86" shape-rendering="geometricPrecision" text-rendering="geometricPrecision" image-rendering="optimizeQuality" fill-rule="evenodd" clip-rule="evenodd"><path fill="#cd0017" d="M0 0h37.86v37.86H0z"/><path d="M29.96 12.83a.372.372 0 00-.28-.13H13.57c-.33-1.67-1.03-2.81-2.09-3.42-.1-.06-.21-.11-.31-.16v-.28c0-.24-.19-.43-.43-.43H8.23c-.24 0-.43.19-.43.43v.7c0 .24.19.43.43.43h2.51c.1 0 .19-.04.26-.09.03.02.07.03.1.05.92.52 1.51 1.6 1.78 3.2v.01l1.67 8.85c-.53.36-1.69 1.41-1.8 3.72a1.878 1.878 0 00.37 3.72c1.04 0 1.88-.84 1.88-1.88 0-.42-.14-.81-.38-1.12h9.76c-.24.31-.38.7-.38 1.12 0 1.04.84 1.88 1.88 1.88 1.03 0 1.88-.84 1.88-1.88 0-1.03-.84-1.88-1.88-1.88H13.5c.12-2.17 1.3-2.97 1.57-3.13l9.44-.84c.03.01.05.01.08.01h.01c.05 0 .09-.01.14-.03l4.03-.36c.18-.02.32-.15.34-.33l.31-2.62c.02-.05.03-.1.03-.16v-.02l.6-5.09a.376.376 0 00-.09-.29zm-4.07 13.61c.62 0 1.12.5 1.12 1.12 0 .62-.5 1.12-1.12 1.12-.62 0-1.12-.5-1.12-1.12 0-.62.5-1.12 1.12-1.12zm-11.64 1.12c0 .62-.5 1.12-1.12 1.12-.62 0-1.12-.5-1.12-1.12 0-.62.5-1.12 1.12-1.12.62 0 1.12.5 1.12 1.12zm6.87-14.11l.15 1.83h-2.13l-.28-1.83h2.26zm-3.03 0l.28 1.83h-1.82l-.34-1.83h1.88zm-4.39 0h1.74l.34 1.83h-1.73l-.35-1.83zm.49 2.58h1.73l.5 2.74-1.69.12-.54-2.86zm1.09 5.75l-.41-2.15 1.69-.12.39 2.12-1.67.15zm1.41-5.75h1.8l.39 2.56-1.69.12-.49-2.68zm1.01 5.53l-.39-2.1 1.67-.12.32 2.08-1.6.14zm1.54-5.53h2.08l.19 2.38-1.89.13-.38-2.51zm.81 5.32l-.31-2.07 1.84-.13.17 2.04-1.69.15zm1.82-7.91h2.15l.05 1.83h-2.05l-.15-1.83zm.21 2.58h2.01l.06 2.19-1.88.13-.19-2.33zm.41 5.11l-.16-2.03 1.83-.13.05 2.01-1.72.15zm2.28-7.69h1.73v1.83h-1.68l-.05-1.83zm.07 2.58h1.66v2.03l-1.61.11-.06-2.14zm.13 4.89l-.05-1.99 1.59-.11v1.97l-1.54.14zm3.44-.3l-1.14.1v-1.96l1.38-.1-.23 1.95zm.32-2.71l-1.47.1v-1.97h1.69l-.22 1.87zm.31-2.62h-1.78v-1.83h2l-.22 1.83z" fill="#fefefe" fill-rule="nonzero"/></svg>