<svg xmlns="http://www.w3.org/2000/svg" width="14.109" height="13.329" viewBox="0 0 13.41 12.67" shape-rendering="geometricPrecision" text-rendering="geometricPrecision" image-rendering="optimizeQuality" fill-rule="evenodd" clip-rule="evenodd"><path d="M13.36 2.66a.214.214 0 00-.17-.08H3.47c-.2-1-.62-1.7-1.26-2.06a.663.663 0 00-.19-.09V.26C2.02.12 1.9 0 1.76 0H.25C.11 0-.01.12-.01.26v.42c0 .14.12.26.26.26h1.51c.06 0 .12-.02.16-.06l.06.03c.55.32.91.97 1.07 1.93l1.01 5.34c-.32.22-1.02.85-1.08 2.24-.52.1-.91.56-.91 1.11 0 .62.51 1.13 1.13 1.13.62 0 1.13-.51 1.13-1.13 0-.25-.09-.49-.23-.68h5.88c-.14.19-.23.42-.23.68 0 .62.51 1.13 1.13 1.13.62 0 1.13-.51 1.13-1.13 0-.62-.51-1.13-1.13-1.13H3.42c.07-1.31.78-1.79.95-1.89l5.69-.5c.02 0 .03.01.05.01h.01c.03 0 .06-.01.08-.02l2.43-.22c.11-.01.19-.09.21-.2L13.03 6c.01-.03.02-.06.02-.1v-.01l.36-3.07a.21.21 0 00-.06-.18zm-2.45 8.2a.68.68 0 11-.001 1.361.68.68 0 01.001-1.361zm-7.01.68a.68.68 0 11-1.361-.001.68.68 0 011.361.001zm4.14-8.5l.09 1.1H6.84l-.17-1.1h1.36zm-1.82 0l.17 1.1h-1.1l-.2-1.1h1.13zm-2.64 0h1.05l.2 1.1H3.79l-.21-1.1zm.29 1.56h1.04l.3 1.65-1.02.07-.32-1.72zm.65 3.46l-.24-1.29L5.3 6.7l.23 1.28-1.01.09zm.85-3.46h1.08l.23 1.55-1.02.07-.3-1.62zm.61 3.33l-.23-1.27 1.01-.07.19 1.25-.97.09zm.93-3.33h1.25l.12 1.43-1.14.08-.23-1.51zm.49 3.21l-.19-1.24 1.11-.08.1 1.23-1.02.09zm1.1-4.76h1.29l.03 1.1H8.59l-.09-1.1zm.13 1.56h1.21l.03 1.32-1.13.08-.11-1.4zm.25 3.08l-.1-1.22 1.11-.08.03 1.21-1.04.09zm1.37-4.63h1.04v1.1h-1.01l-.03-1.1zm.04 1.56h1v1.22l-.97.07-.03-1.29zm.08 2.95l-.03-1.2.96-.07v1.19l-.93.08zm2.07-.18l-.69.06V6.27l.83-.06-.14 1.18zm.19-1.63l-.88.06V4.63h1.02l-.13 1.13zm.19-1.58h-1.07v-1.1h1.2l-.13 1.1z" fill="#fefefe" fill-rule="nonzero"/></svg>