<?xml version="1.0" encoding="UTF-8"?>
<!DOCTYPE svg PUBLIC "-//W3C//DTD SVG 1.1//EN" "http://www.w3.org/Graphics/SVG/1.1/DTD/svg11.dtd">
<!-- Creator: CorelDRAW 2018 (64-Bit) -->
<svg xmlns="http://www.w3.org/2000/svg" xml:space="preserve" width="6.35mm" height="6.35mm" version="1.1" style="shape-rendering:geometricPrecision; text-rendering:geometricPrecision; image-rendering:optimizeQuality; fill-rule:evenodd; clip-rule:evenodd"
viewBox="0 0 37.86 37.86"
 xmlns:xlink="http://www.w3.org/1999/xlink">
 <defs>
  <style type="text/css">
   <![CDATA[
    .fil0 {fill:#CD0017}
    .fil1 {fill:#FEFEFE;fill-rule:nonzero}
   ]]>
  </style>
 </defs>
 <g id="Layer_x0020_1">
  <metadata id="CorelCorpID_0Corel-Layer"/>
  <g id="_2938464064">
   <rect class="fil0" x="-0" y="0" width="37.86" height="37.86"/>
   <path class="fil1" d="M29.96 12.83c-0.07,-0.08 -0.17,-0.13 -0.28,-0.13l-2.8 0 0 0 -11.11 0c-0,0 -0,0 -0,0l-2.2 0c-0.33,-1.67 -1.03,-2.81 -2.09,-3.42 -0.1,-0.06 -0.21,-0.11 -0.31,-0.16l0 -0.28c0,-0.24 -0.19,-0.43 -0.43,-0.43l-2.51 0c-0.24,0 -0.43,0.19 -0.43,0.43l0 0.7c0,0.24 0.19,0.43 0.43,0.43l2.51 0c0.1,0 0.19,-0.04 0.26,-0.09 0.03,0.02 0.07,0.03 0.1,0.05 0.92,0.52 1.51,1.6 1.78,3.2 0,0 0,0 0,0.01 0,0 0,0 0,0l1.67 8.85c-0.53,0.36 -1.69,1.41 -1.8,3.72 -0.86,0.17 -1.51,0.93 -1.51,1.84 0,1.04 0.84,1.88 1.88,1.88 1.04,0 1.88,-0.84 1.88,-1.88 0,-0.42 -0.14,-0.81 -0.38,-1.12l9.76 0c-0.24,0.31 -0.38,0.7 -0.38,1.12 0,1.04 0.84,1.88 1.88,1.88 1.03,0 1.88,-0.84 1.88,-1.88 0,-1.03 -0.84,-1.88 -1.88,-1.88l-12.38 0c0.12,-2.17 1.3,-2.97 1.57,-3.13l9.44 -0.84c0.03,0.01 0.05,0.01 0.08,0.01 0,0 0.01,0 0.01,0 0.05,-0 0.09,-0.01 0.14,-0.03l4.03 -0.36c0.18,-0.02 0.32,-0.15 0.34,-0.33l0.31 -2.62c0.02,-0.05 0.03,-0.1 0.03,-0.16 0,-0.01 -0,-0.01 -0,-0.02l0.6 -5.09c0.01,-0.11 -0.02,-0.21 -0.09,-0.29zm-4.07 13.61l0 0c0.62,0 1.12,0.5 1.12,1.12 0,0.62 -0.5,1.12 -1.12,1.12 -0.62,0 -1.12,-0.5 -1.12,-1.12 0,-0.62 0.5,-1.12 1.12,-1.12zm-11.64 1.12l0 0c0,0.62 -0.5,1.12 -1.12,1.12 -0.62,0 -1.12,-0.5 -1.12,-1.12 0,-0.62 0.5,-1.12 1.12,-1.12 0.62,0 1.12,0.5 1.12,1.12zm6.87 -14.11l0 0 0.15 1.83 -2.13 0 -0.28 -1.83 2.26 0zm-3.03 0l0 0 0.28 1.83 -1.82 0 -0.34 -1.83 1.88 0zm-4.39 0l0 0 1.74 0 0.34 1.83 -1.73 0 -0.35 -1.83zm0.49 2.58l0 0 1.73 0 0.5 2.74 -1.69 0.12 -0.54 -2.86zm1.09 5.75l0 0 -0.41 -2.15 1.69 -0.12 0.39 2.12 -1.67 0.15zm1.41 -5.75l0 0 1.8 0 0.39 2.56 -1.69 0.12 -0.49 -2.68zm1.01 5.53l0 0 -0.39 -2.1 1.67 -0.12 0.32 2.08 -1.6 0.14zm1.54 -5.53l0 0 2.08 0 0.19 2.38 -1.89 0.13 -0.38 -2.51zm0.81 5.32l0 0 -0.31 -2.07 1.84 -0.13 0.17 2.04 -1.69 0.15zm1.82 -7.91l0 0 2.15 0 0.05 1.83 -2.05 0 -0.15 -1.83zm0.21 2.58l0 0 2.01 0 0.06 2.19 -1.88 0.13 -0.19 -2.33zm0.41 5.11l0 0 -0.16 -2.03 1.83 -0.13 0.05 2.01 -1.72 0.15zm2.28 -7.69l0 0 1.73 0 0 1.83 -1.68 0 -0.05 -1.83zm0.07 2.58l0 0 1.66 0 0 2.03 -1.61 0.11 -0.06 -2.14zm0.13 4.89l0 0 -0.05 -1.99 1.59 -0.11 0 1.97 -1.54 0.14zm3.44 -0.3l0 0 -1.14 0.1 -0 -1.96 1.38 -0.1 -0.23 1.95zm0.32 -2.71l0 0 -1.47 0.1 -0 -1.97 1.69 0 -0.22 1.87zm0.31 -2.62l0 0 -1.78 0 -0 -1.83 2 0 -0.22 1.83z"/>
  </g>
 </g>
</svg>
