<svg xmlns="http://www.w3.org/2000/svg" width="9.341" height="8.5" viewBox="0 0 5.05 4.59" shape-rendering="geometricPrecision" text-rendering="geometricPrecision" image-rendering="optimizeQuality" fill-rule="evenodd" clip-rule="evenodd"><path d="M4.96.93l-.05.01V.93H1L.82.12V.1a.1.1 0 00-.1-.1H.11a.1.1 0 000 .2h.52l.8 3.53-.05.03c-.13.08-.2.22-.2.37 0 .25.2.45.45.45s.45-.2.45-.45c0-.05-.01-.1-.02-.14l-.04-.11h1.63l-.04.11c-.02.05-.02.09-.02.14 0 .25.2.45.45.45s.45-.2.45-.45-.2-.45-.45-.45H1.62l-.08-.36h3c.01 0 .03 0 .05-.02.01 0 .01-.01.03-.02 0-.01.01-.01.01-.02s0-.01.01-.02v-.02l.41-2.2V.97c0-.01 0-.01-.01-.02 0-.01-.01-.01-.01-.02 0 0-.01-.01-.02-.01L5 .91C4.99.91 4.99.9 4.98.9h-.01zM1.87 4.14c0 .14-.11.25-.25.25s-.25-.11-.25-.25.11-.25.25-.25.25.11.25.25zm2.41 0c0 .14-.11.25-.25.25s-.25-.11-.25-.25.11-.25.25-.25.25.11.25.25zm-.44-3.01h-2.8l.2.9.05.2.2.9h2.96l.17-.9.04-.2.17-.9h-.98z" fill="#767676"/></svg>