<?xml version="1.0" encoding="UTF-8"?>
<!DOCTYPE svg PUBLIC "-//W3C//DTD SVG 1.1//EN" "http://www.w3.org/Graphics/SVG/1.1/DTD/svg11.dtd">
<!-- Creator: CorelDRAW 2018 (64-Bit) -->
<svg xmlns="http://www.w3.org/2000/svg" xml:space="preserve" width="3.3208mm" height="4.7775mm" version="1.1" style="shape-rendering:geometricPrecision; text-rendering:geometricPrecision; image-rendering:optimizeQuality; fill-rule:evenodd; clip-rule:evenodd"
viewBox="0 0 12.48 17.95"
 xmlns:xlink="http://www.w3.org/1999/xlink">
 <defs>
  <style type="text/css">
   <![CDATA[
    .fil0 {fill:#8C8C8C;fill-rule:nonzero}
   ]]>
  </style>
 </defs>
 <g id="Layer_x0020_1">
  <metadata id="CorelCorpID_0Corel-Layer"/>
  <path class="fil0" d="M11.89 16.51l-0.86 0.85 -0.83 -0.83 0.86 -0.86 0.82 0.84zm-3.8 -7.55c0.64,0.64 0.95,1.47 0.95,2.3 0,0.83 -0.32,1.67 -0.95,2.3 -0.64,0.64 -1.47,0.95 -2.3,0.95 -0.83,0 -1.67,-0.32 -2.3,-0.95 -0.64,-0.64 -0.95,-1.47 -0.95,-2.3 0,-0.83 0.32,-1.67 0.95,-2.3 0.64,-0.64 1.47,-0.95 2.3,-0.95 0.83,0 1.67,0.32 2.3,0.95zm0.34 -0.34c-0.73,-0.73 -1.69,-1.1 -2.65,-1.1 -0.96,0 -1.92,0.37 -2.65,1.1 -0.73,0.73 -1.1,1.69 -1.1,2.65 -0,0.96 0.37,1.92 1.1,2.65 0.73,0.73 1.69,1.1 2.65,1.1 0.71,0 1.42,-0.2 2.04,-0.61l0.84 0.84 -0.06 0.06c-0.1,0.09 -0.1,0.25 0,0.34l2.25 2.25c0.05,0.04 0.11,0.07 0.17,0.07 0.06,0 0.13,-0.03 0.17,-0.07l1.21 -1.2c0.05,-0.05 0.07,-0.11 0.07,-0.17 0,-0.06 -0.06,-0.16 -0.1,-0.21l-2.22 -2.21c-0.05,-0.05 -0.11,-0.07 -0.17,-0.07 -0.06,0 -0.13,0.03 -0.17,0.07l-0.06 0.06 -0.84 -0.84c0.4,-0.62 0.61,-1.33 0.61,-2.04 0,-0.96 -0.37,-1.92 -1.1,-2.65zm-2.9 -6.42l-3.94 0c-0.12,0 -0.21,0.1 -0.21,0.21 0,0.12 0.09,0.21 0.21,0.21l3.94 0c0.12,0 0.21,-0.09 0.21,-0.21 0,-0.12 -0.09,-0.21 -0.21,-0.21zm0.16 1.44l-4.1 0c-0.12,0 -0.21,0.09 -0.21,0.21 0,0.12 0.09,0.21 0.21,0.21l4.1 0c0.12,0 0.21,-0.09 0.21,-0.21 0,-0.12 -0.09,-0.21 -0.21,-0.21zm2.91 1.44l-7.01 0c-0.12,0 -0.21,0.09 -0.21,0.21 0,0.12 0.09,0.21 0.21,0.21l7.01 0c0.12,0 0.21,-0.09 0.21,-0.21 0,-0.12 -0.09,-0.21 -0.21,-0.21zm0 1.44l-7.01 0c-0.12,0 -0.21,0.09 -0.21,0.21 0,0.12 0.09,0.21 0.21,0.21l7.01 0c0.12,0 0.21,-0.09 0.21,-0.21 0,-0.12 -0.09,-0.21 -0.21,-0.21zm0 1.44l-0.18 0c-0.12,0 -0.21,0.09 -0.21,0.21 0,0.12 0.09,0.21 0.21,0.21l0.18 0c0.12,0 0.21,-0.1 0.21,-0.21 0,-0.12 -0.09,-0.21 -0.21,-0.21zm-5.55 0l-1.46 0c-0.12,0 -0.21,0.09 -0.21,0.21 0,0.12 0.09,0.21 0.21,0.21l1.46 0c0.12,0 0.21,-0.1 0.21,-0.21 0,-0.12 -0.09,-0.21 -0.21,-0.21zm-1.14 1.44l-0.32 0c-0.12,0 -0.21,0.09 -0.21,0.21 0,0.12 0.09,0.21 0.21,0.21l0.32 0c0.12,0 0.21,-0.09 0.21,-0.21 0,-0.12 -0.09,-0.21 -0.21,-0.21zm-0.18 1.44l-0.14 0c-0.12,0 -0.21,0.1 -0.21,0.21 0,0.12 0.09,0.21 0.21,0.21l0.14 0c0.12,0 0.21,-0.09 0.21,-0.21 0,-0.12 -0.09,-0.21 -0.21,-0.21zm7.93 2.62c0.15,0 0.28,-0.06 0.38,-0.15 0.1,-0.09 0.16,-0.23 0.16,-0.37l0 -9.32 0 -0 0 -0 0 -0 0 -0 0 -0 0 0 -0 -0.01 0 -0 0 -0 -0 -0.01 0 -0 0 -0 -0 -0 0 -0 -0 -0 0 -0 0 -0 -0 -0.01 -0 0 -0 -0 -0 -0 -0 -0 -0 -0 0 -0 -0 -0 0 -0 -0 -0 -0 -0 0 -0 -0 -0 0 -0 -0 -0 -0 -0 -0 -0 -0 -0 0 -0 -0 -0 -0 -0 0 -0 -0 -0 0 -0 -0 -0 -0 -0 -0 -0 -0 -0 0 0 -0 -0 -0 -0 -0 -0 -0 -0 0 0 -0 -0 -0 -0 -0 -0 -0 -0 0 -0 -0 -0 -0 -0 -0 -0 -0 -0 -0 -0 -0 -0 -0 -0 -0 -0 -0 -0 -0 -0 -0 -0 -0 -0 -0 -0 -0 -0 -0 -0 -0 -0 -0 -0 -0 -0 -0 -0 -0 -0 0 0 -0 -0 -0 -0 -0 -0 -0 -0 -0 -0 -0 -0 -0 -0 -0 -0 -0 -0 -0 -0 -0 -0 -0 -0 -0 -0 -0 -0 -0 -0 -0 -0 -3.48 -3.4 -0 -0 -0 -0 -0 -0 -0 -0 -0 0 -0 -0 -0 -0 -0 -0 -0 -0 0 0 -0 -0 -0 -0 -0 -0 -0 -0 -0 -0 -0 -0 -0 -0 -0 -0 -0 -0 -0 -0 -0.01 -0.01 -0 -0 -0 -0 -0 -0c-0.03,-0.01 -0.05,-0.02 -0.08,-0.03l0 -0 -0.01 -0 0 -0 -0 0 -0 0 -0.01 -0 -5.98 0c-0.15,0 -0.28,0.06 -0.38,0.15 -0.1,0.09 -0.16,0.23 -0.16,0.37l0 12.41c0,0.15 0.06,0.28 0.16,0.37 0.1,0.09 0.23,0.15 0.38,0.15l1.57 0c0.12,0 0.21,-0.09 0.21,-0.21 0,-0.12 -0.09,-0.21 -0.21,-0.21l-1.57 0c-0.03,0 -0.06,-0.01 -0.08,-0.03 -0.02,-0.02 -0.03,-0.04 -0.03,-0.07l0 -12.41c0,-0.03 0.01,-0.05 0.03,-0.07 0.02,-0.02 0.05,-0.03 0.08,-0.03l5.77 0 0 3.19c0,0.05 0.02,0.11 0.06,0.15 0.04,0.04 0.09,0.06 0.15,0.06l0 -0.21 0.21 0 0 -2.9 2.75 2.69 -2.96 0 0 0.21 0.21 0 -0.21 0 0 0.21 3.27 0 0 9.12c0,0.03 -0.01,0.05 -0.03,0.07 -0.02,0.02 -0.05,0.03 -0.08,0.03 -0.12,0 -0.21,0.1 -0.21,0.21 0,0.12 0.09,0.21 0.21,0.21zm-0 2.54l0.86 -0.86 0.19 0.19 -0.86 0.86 -0.19 -0.19zm0.52 -1.2l-0.86 0.86 -0.19 -0.19 0.05 -0.05 0 -0c0.27,-0.27 0.54,-0.54 0.81,-0.81l0.19 0.19zm-1.96 -0.69c0.07,-0.06 0.14,-0.13 0.21,-0.19 0.07,-0.07 0.13,-0.14 0.2,-0.21l0.79 0.79 -0.41 0.41 -0.79 -0.79zm-0.79 -4.49c0.46,0.46 0.68,1.05 0.68,1.65 -0,0.6 -0.23,1.19 -0.68,1.65 -0.46,0.46 -1.05,0.68 -1.65,0.68 -0.6,0 -1.2,-0.23 -1.65,-0.68 -0.46,-0.46 -0.68,-1.05 -0.68,-1.65 0,-0.6 0.23,-1.19 0.68,-1.65 0.46,-0.46 1.05,-0.68 1.65,-0.68 0.6,0 1.19,0.23 1.65,0.68zm0.34 -0.34c-0.55,-0.55 -1.27,-0.83 -2,-0.83 -0.72,-0 -1.45,0.28 -2,0.83 -0.55,0.55 -0.83,1.27 -0.83,1.99 0,0.72 0.28,1.44 0.83,1.99 0.55,0.55 1.27,0.83 2,0.83 0.72,0 1.44,-0.28 2,-0.83 0.55,-0.55 0.83,-1.27 0.83,-1.99 0,-0.72 -0.28,-1.44 -0.83,-1.99z"/>
 </g>
</svg>
