<svg xmlns="http://www.w3.org/2000/svg" width="12.551" height="18.057" viewBox="0 0 12.48 17.95" shape-rendering="geometricPrecision" text-rendering="geometricPrecision" image-rendering="optimizeQuality" fill-rule="evenodd" clip-rule="evenodd"><path d="M11.89 16.51l-.86.85-.83-.83.86-.86.82.84zm-3.8-7.55c.64.64.95 1.47.95 2.3 0 .83-.32 1.67-.95 2.3-.64.64-1.47.95-2.3.95-.83 0-1.67-.32-2.3-.95-.64-.64-.95-1.47-.95-2.3 0-.83.32-1.67.95-2.3.64-.64 1.47-.95 2.3-.95.83 0 1.67.32 2.3.95zm.34-.34a3.741 3.741 0 00-5.3 0 3.741 3.741 0 000 5.3c.73.73 1.69 1.1 2.65 1.1.71 0 1.42-.2 2.04-.61l.84.84-.06.06c-.1.09-.1.25 0 .34l2.25 2.25c.05.04.11.07.17.07.06 0 .13-.03.17-.07l1.21-1.2c.05-.05.07-.11.07-.17 0-.06-.06-.16-.1-.21l-2.22-2.21a.234.234 0 00-.17-.07.26.26 0 00-.17.07l-.06.06-.84-.84c.4-.62.61-1.33.61-2.04 0-.96-.37-1.92-1.1-2.65zM5.53 2.2H1.59c-.12 0-.21.1-.21.21 0 .12.09.21.21.21h3.94c.12 0 .21-.09.21-.21s-.09-.21-.21-.21zm.16 1.44h-4.1c-.12 0-.21.09-.21.21s.09.21.21.21h4.1c.12 0 .21-.09.21-.21s-.09-.21-.21-.21zM8.6 5.08H1.59c-.12 0-.21.09-.21.21s.09.21.21.21H8.6c.12 0 .21-.09.21-.21s-.09-.21-.21-.21zm0 1.44H1.59c-.12 0-.21.09-.21.21s.09.21.21.21H8.6c.12 0 .21-.09.21-.21s-.09-.21-.21-.21zm0 1.44h-.18c-.12 0-.21.09-.21.21s.09.21.21.21h.18c.12 0 .21-.1.21-.21 0-.12-.09-.21-.21-.21zm-5.55 0H1.59c-.12 0-.21.09-.21.21s.09.21.21.21h1.46c.12 0 .21-.1.21-.21 0-.12-.09-.21-.21-.21zM1.91 9.4h-.32c-.12 0-.21.09-.21.21s.09.21.21.21h.32c.12 0 .21-.09.21-.21s-.09-.21-.21-.21zm-.18 1.44h-.14c-.12 0-.21.1-.21.21 0 .12.09.21.21.21h.14c.12 0 .21-.09.21-.21s-.09-.21-.21-.21zm7.93 2.62c.15 0 .28-.06.38-.15.1-.09.16-.23.16-.37V3.59L6.72.19 6.71.18C6.68.17 6.66.16 6.63.15h-6C.48.15.35.21.25.3.15.39.09.53.09.67v12.41c0 .15.06.28.16.37.1.09.23.15.38.15H2.2c.12 0 .21-.09.21-.21s-.09-.21-.21-.21H.63c-.03 0-.06-.01-.08-.03a.09.09 0 01-.03-.07V.67C.52.64.53.62.55.6.57.58.6.57.63.57H6.4v3.19a.204.204 0 00.21.21v-.21h.21V.86l2.75 2.69H6.61v.21h.21-.21v.21h3.27v9.12c0 .03-.01.05-.03.07-.02.02-.05.03-.08.03-.12 0-.21.1-.21.21 0 .12.09.21.21.21zm0 2.54l.86-.86.19.19-.86.86-.19-.19zm.52-1.2l-.86.86-.19-.19.05-.05.81-.81.19.19zm-1.96-.69c.07-.06.14-.13.21-.19.07-.07.13-.14.2-.21l.79.79-.41.41-.79-.79zm-.79-4.49c.46.46.68 1.05.68 1.65 0 .6-.23 1.19-.68 1.65-.46.46-1.05.68-1.65.68-.6 0-1.2-.23-1.65-.68-.46-.46-.68-1.05-.68-1.65 0-.6.23-1.19.68-1.65.46-.46 1.05-.68 1.65-.68.6 0 1.19.23 1.65.68zm.34-.34c-.55-.55-1.27-.83-2-.83a2.834 2.834 0 00-2.83 2.82c0 .72.28 1.44.83 1.99.55.55 1.27.83 2 .83.72 0 1.44-.28 2-.83.55-.55.83-1.27.83-1.99s-.28-1.44-.83-1.99z" fill="#8c8c8c" fill-rule="nonzero"/></svg>