<?xml version="1.0" encoding="UTF-8"?>
<!DOCTYPE svg PUBLIC "-//W3C//DTD SVG 1.1//EN" "http://www.w3.org/Graphics/SVG/1.1/DTD/svg11.dtd">
<!-- Creator: CorelDRAW 2018 (64-Bit) -->
<svg xmlns="http://www.w3.org/2000/svg" xml:space="preserve" width="1.6744mm" height="1.2387mm" version="1.1" style="shape-rendering:geometricPrecision; text-rendering:geometricPrecision; image-rendering:optimizeQuality; fill-rule:evenodd; clip-rule:evenodd"
viewBox="0 0 4.29 3.18"
 xmlns:xlink="http://www.w3.org/1999/xlink">
 <defs>
  <style type="text/css">
   <![CDATA[
    .fil0 {fill:#CD0017;fill-rule:nonzero}
   ]]>
  </style>
 </defs>
 <g id="Layer_x0020_1">
  <metadata id="CorelCorpID_0Corel-Layer"/>
  <g id="_2070453680">
   <path class="fil0" d="M3.68 3.18l-3.07 0c-0.34,0 -0.61,-0.28 -0.61,-0.61l0 -1.95c0,-0.34 0.28,-0.61 0.61,-0.61l3.07 0c0.34,0 0.61,0.28 0.61,0.61l0 1.95c0,0.34 -0.28,0.61 -0.61,0.61zm-3.07 -3.02l0 0c-0.25,0 -0.45,0.2 -0.45,0.45l0 1.95c0,0.25 0.2,0.45 0.45,0.45l3.07 0c0.25,0 0.45,-0.2 0.45,-0.45l0 -1.95c0,-0.25 -0.2,-0.45 -0.45,-0.45l-3.07 0z"/>
   <path class="fil0" d="M2.16 2.05c-0.02,0 -0.04,-0.01 -0.05,-0.02l-1.97 -1.68c-0.03,-0.03 -0.03,-0.07 -0.01,-0.1 0.03,-0.03 0.08,-0.03 0.11,-0l1.92 1.63 1.9 -1.6c0.03,-0.03 0.08,-0.02 0.11,0.01 0.03,0.03 0.03,0.08 -0.01,0.11l-1.95 1.64c-0.02,0.01 -0.03,0.02 -0.05,0.02z"/>
   <path class="fil0" d="M0.28 3.07c-0.02,0 -0.04,-0.01 -0.05,-0.03 -0.03,-0.03 -0.02,-0.08 0,-0.11l1.33 -1.39c0.03,-0.03 0.07,-0.03 0.1,0.01 0.03,0.03 0.02,0.08 -0,0.11l-1.33 1.39c-0.01,0.01 -0.03,0.02 -0.05,0.02z"/>
   <path class="fil0" d="M4.02 3.07c-0.02,0 -0.03,-0.01 -0.05,-0.02l-1.33 -1.39c-0.03,-0.03 -0.03,-0.08 -0,-0.11 0.03,-0.03 0.07,-0.03 0.1,-0.01l1.33 1.39c0.03,0.03 0.03,0.08 0,0.11 -0.01,0.02 -0.03,0.03 -0.05,0.03z"/>
  </g>
 </g>
</svg>
