<svg xmlns="http://www.w3.org/2000/svg" width="6.328" height="4.682" viewBox="0 0 4.29 3.18" shape-rendering="geometricPrecision" text-rendering="geometricPrecision" image-rendering="optimizeQuality" fill-rule="evenodd" clip-rule="evenodd"><defs><style>.fil0{fill:#cd0017;fill-rule:nonzero}</style></defs><g id="Layer_x0020_1"><g id="_2070453680"><path class="fil0" d="M3.68 3.18H.61C.27 3.18 0 2.9 0 2.57V.62C0 .28.28.01.61.01h3.07c.34 0 .61.28.61.61v1.95c0 .34-.28.61-.61.61zM.61.16C.36.16.16.36.16.61v1.95c0 .25.2.45.45.45h3.07c.25 0 .45-.2.45-.45V.61c0-.25-.2-.45-.45-.45H.61z"/><path class="fil0" d="M2.16 2.05c-.02 0-.04-.01-.05-.02L.14.35a.077.077 0 01-.01-.1C.16.22.21.22.24.25l1.92 1.63 1.9-1.6c.03-.03.08-.02.11.01s.03.08-.01.11L2.21 2.04c-.02.01-.03.02-.05.02z"/><path class="fil0" d="M.28 3.07c-.02 0-.04-.01-.05-.03-.03-.03-.02-.08 0-.11l1.33-1.39c.03-.03.07-.03.1.01.03.03.02.08 0 .11L.33 3.05c-.01.01-.03.02-.05.02zm3.74 0c-.02 0-.03-.01-.05-.02L2.64 1.66a.078.078 0 010-.11c.03-.03.07-.03.1-.01l1.33 1.39c.03.03.03.08 0 .11-.01.02-.03.03-.05.03z"/></g></g></svg>