<svg xmlns="http://www.w3.org/2000/svg" width="5.556" height="1.9mm" viewBox="0 0 2.05 2.66" shape-rendering="geometricPrecision" text-rendering="geometricPrecision" image-rendering="optimizeQuality" fill-rule="evenodd" clip-rule="evenodd"><path d="M1.03 1.34c-.66 0-1.03.28-1.03.79v.53h2.06v-.53c0-.51-.36-.79-1.03-.79zm.92 1.21h-.26v-.52h-.11v.52H.49v-.52H.38v.52H.12v-.42c0-.56.5-.68.92-.68.42 0 .92.12.92.68v.42zm-.92-1.27c.31 0 .54-.27.54-.64S1.34 0 1.03 0C.71 0 .49.26.49.64c0 .37.22.64.54.64zm0-1.16c.25 0 .43.22.43.53 0 .31-.18.53-.43.53S.6.96.6.65c0-.31.18-.53.43-.53z" fill="#767676" fill-rule="nonzero"/></svg>