<?xml version="1.0" encoding="UTF-8"?>
<!DOCTYPE svg PUBLIC "-//W3C//DTD SVG 1.1//EN" "http://www.w3.org/Graphics/SVG/1.1/DTD/svg11.dtd">
<!-- Creator: CorelDRAW 2018 (64-Bit) -->
<svg xmlns="http://www.w3.org/2000/svg" xml:space="preserve" width="1.4699mm" height="1.9mm" version="1.1" style="shape-rendering:geometricPrecision; text-rendering:geometricPrecision; image-rendering:optimizeQuality; fill-rule:evenodd; clip-rule:evenodd"
viewBox="0 0 2.05 2.66"
 xmlns:xlink="http://www.w3.org/1999/xlink">
 <defs>
  <style type="text/css">
   <![CDATA[
    .fil0 {fill:#767676;fill-rule:nonzero}
   ]]>
  </style>
 </defs>
 <g id="Layer_x0020_1">
  <metadata id="CorelCorpID_0Corel-Layer"/>
  <path class="fil0" d="M1.03 1.34c-0.66,0 -1.03,0.28 -1.03,0.79l0 0.53 2 0 0.06 -0 0 -0.53c0,-0.51 -0.36,-0.79 -1.03,-0.79zm0.92 1.21l0 0 -0.26 0 0 -0.52 -0.11 0 0 0.52 -1.09 0 0 -0.52 -0.11 0 0 0.52 -0.26 0 0 -0.42c0,-0.56 0.5,-0.68 0.92,-0.68 0.42,0 0.92,0.12 0.92,0.68l0 0.42zm-0.92 -1.27c0.31,0 0.54,-0.27 0.54,-0.64 0,-0.37 -0.23,-0.64 -0.54,-0.64 -0.32,0 -0.54,0.26 -0.54,0.64 0,0.37 0.22,0.64 0.54,0.64zm0 -1.16l0 0c0.25,0 0.43,0.22 0.43,0.53 0,0.31 -0.18,0.53 -0.43,0.53 -0.25,0 -0.43,-0.22 -0.43,-0.53 0,-0.31 0.18,-0.53 0.43,-0.53z"/>
 </g>
</svg>
