<?xml version="1.0" encoding="UTF-8"?>
<!DOCTYPE svg PUBLIC "-//W3C//DTD SVG 1.1//EN" "http://www.w3.org/Graphics/SVG/1.1/DTD/svg11.dtd">
<!-- Creator: CorelDRAW 2018 (64-Bit) -->
<svg xmlns="http://www.w3.org/2000/svg" xml:space="preserve" width="1.1601mm" height="2.4589mm" version="1.1" style="shape-rendering:geometricPrecision; text-rendering:geometricPrecision; image-rendering:optimizeQuality; fill-rule:evenodd; clip-rule:evenodd"
viewBox="0 0 1.43 3.04"
 xmlns:xlink="http://www.w3.org/1999/xlink">
 <defs>
  <style type="text/css">
   <![CDATA[
    .fil0 {fill:#3B5998;fill-rule:nonzero}
   ]]>
  </style>
 </defs>
 <g id="Layer_x0020_1">
  <metadata id="CorelCorpID_0Corel-Layer"/>
  <path class="fil0" d="M0.29 0.62l0.02 0.46c0,0.01 -0.02,0.03 -0.05,0.05l-0.26 0 0 0.51 0.26 0c0.02,0 0.03,0.01 0.05,0.05l0 1.27 0.01 0.09 0.54 0 0 -1.37c0,-0.02 0.01,-0.03 0.03,-0.03l0.44 0c0.02,0 0.05,-0.16 0.08,-0.49l0 -0.03 -0.52 0c-0.02,0 -0.03,-0.01 -0.03,-0.03l0 -0.36c0,-0.15 0.09,-0.23 0.28,-0.25l0.3 0 0 -0.44c0,-0.03 -0.11,-0.04 -0.32,-0.04l-0.08 0c-0.35,0 -0.58,0.13 -0.69,0.38 -0.02,0.05 -0.04,0.13 -0.06,0.24z"/>
 </g>
</svg>
