<svg xmlns="http://www.w3.org/2000/svg" width="4.385" height="9.293" viewBox="0 0 1.43 3.04" shape-rendering="geometricPrecision" text-rendering="geometricPrecision" image-rendering="optimizeQuality" fill-rule="evenodd" clip-rule="evenodd"><path d="M.29.62l.02.46c0 .01-.02.03-.05.05H0v.51h.26c.02 0 .03.01.05.05v1.27l.01.09h.54V1.68c0-.02.01-.03.03-.03h.44c.02 0 .05-.16.08-.49v-.03H.89c-.02 0-.03-.01-.03-.03V.74c0-.15.09-.23.28-.25h.3V.05c0-.03-.11-.04-.32-.04h-.08C.69.01.46.14.35.39.33.44.31.52.29.63z" fill="#3b5998" fill-rule="nonzero"/></svg>