<svg xmlns="http://www.w3.org/2000/svg" width="2.99" height="6.557" viewBox="0 0 0.67 1.48" shape-rendering="geometricPrecision" text-rendering="geometricPrecision" image-rendering="optimizeQuality" fill-rule="evenodd" clip-rule="evenodd"><path d="M.14.3l.01.22C.15.53.14.53.13.54H.01v.25h.12C.14.79.14.8.15.81v.66H.4V.8C.4.79.41.78.41.78h.21C.63.78.64.7.66.54V.53H.42C.41.53.41.53.41.52V.35C.41.28.45.24.54.23h.14V.02C.68.01.63 0 .53 0H.49C.33 0 .22.06.17.19.16.22.15.25.14.3z" fill="#767676" fill-rule="nonzero"/></svg>