<?xml version="1.0" encoding="UTF-8"?>
<!DOCTYPE svg PUBLIC "-//W3C//DTD SVG 1.1//EN" "http://www.w3.org/Graphics/SVG/1.1/DTD/svg11.dtd">
<!-- Creator: CorelDRAW 2018 (64-Bit) -->
<svg xmlns="http://www.w3.org/2000/svg" xml:space="preserve" width="0.7912mm" height="1.7348mm" version="1.1" style="shape-rendering:geometricPrecision; text-rendering:geometricPrecision; image-rendering:optimizeQuality; fill-rule:evenodd; clip-rule:evenodd"
viewBox="0 0 0.67 1.48"
 xmlns:xlink="http://www.w3.org/1999/xlink">
 <defs>
  <style type="text/css">
   <![CDATA[
    .fil0 {fill:#767676;fill-rule:nonzero}
   ]]>
  </style>
 </defs>
 <g id="Layer_x0020_1">
  <metadata id="CorelCorpID_0Corel-Layer"/>
  <path class="fil0" d="M0.14 0.3l0.01 0.22c0,0.01 -0.01,0.01 -0.02,0.02l-0.12 0 0 0.25 0.12 0c0.01,0 0.01,0.01 0.02,0.02l0 0.62 0 0.04 0.25 0 0 -0.67c0,-0.01 0.01,-0.02 0.01,-0.02l0.21 0c0.01,0 0.02,-0.08 0.04,-0.24l0 -0.01 -0.24 0c-0.01,0 -0.01,-0 -0.01,-0.01l0 -0.17c0,-0.07 0.04,-0.11 0.13,-0.12l0.14 0 0 -0.21c0,-0.01 -0.05,-0.02 -0.15,-0.02l-0.04 0c-0.16,0 -0.27,0.06 -0.32,0.19 -0.01,0.03 -0.02,0.06 -0.03,0.11z"/>
 </g>
</svg>
