<?xml version="1.0" encoding="utf-8"?>
<!-- Generator: Adobe Illustrator 24.0.1, SVG Export Plug-In . SVG Version: 6.00 Build 0)  -->
<svg version="1.1" id="Layer_1" xmlns="http://www.w3.org/2000/svg" xmlns:xlink="http://www.w3.org/1999/xlink" x="0px" y="0px"
	 viewBox="0 0 85 85" style="enable-background:new 0 0 85 85;" xml:space="preserve">
<style type="text/css">
	.st0{fill:#336699;}
	.st1{fill:#FFFFFF;}
</style>
<g>
	<path class="st0" d="M42.5,82.1c22.1,0,40-17.9,40-40c0-22.1-17.9-40-40-40s-40,17.9-40,40C2.5,64.2,20.4,82.1,42.5,82.1"/>
	<path class="st1" d="M33.8,37.4H38v-4c0-1.8,0-4.5,1.3-6.2c1.4-1.8,3.2-3,6.4-3c5.2,0,7.4,0.7,7.4,0.7l-1,6.1c0,0-1.7-0.5-3.3-0.5
		c-1.6,0-3,0.6-3,2.2v4.7h6.6l-0.5,6h-6.1v20.8H38V43.4h-4.1V37.4z"/>
</g>
</svg>
