<svg xmlns="http://www.w3.org/2000/svg" width="22.47" height="19.404" viewBox="0 0 27.61 23.84" shape-rendering="geometricPrecision" text-rendering="geometricPrecision" image-rendering="optimizeQuality" fill-rule="evenodd" clip-rule="evenodd"><defs><style>.fil0{fill:#cd0017;fill-rule:nonzero}</style></defs><g id="Layer_x0020_1"><g id="_3528534480"><path class="fil0" d="M2.02 4.56h23.71c.5.03.97.25 1.31.59.35.35.57.82.57 1.34 0 1.19-.16.91-.24 2.12-.03.54-.26 1.04-.62 1.39-.33.33-.77.55-1.27.58l-.46 11.26-.6-.02.6.04c-.03.54-.26 1.04-.62 1.39-.36.36-.84.58-1.39.58H4.85c-.54 0-1.03-.22-1.39-.58-.36-.36-.59-.86-.62-1.4l-.7-11.27c-.5-.03-.94-.24-1.28-.58C.5 9.64.27 9.15.24 8.6.17 7.44.16 7.59 0 6.48c0-.52.22-.99.58-1.34.34-.34.81-.56 1.31-.59.04 0 .09 0 .13-.01zm12.39 6.03v12.05h8.6c.21 0 .4-.09.54-.23.16-.16.26-.38.27-.62l.46-11.19H14.4zm-1.2 12.05V10.59H3.34l.69 11.2c.01.24.12.46.27.62.14.14.33.23.55.23h8.36zm0-13.24h12.15c.22 0 .41-.09.55-.23.16-.16.26-.38.27-.63l.24-2.06c0-.18-.09-.35-.22-.48a.906.906 0 00-.55-.25H1.97c-.21.01-.41.11-.55.25-.13.13-.21.3-.21.49l.24 2.05c.02.25.12.47.27.63.14.14.33.23.54.23h10.95z"/><path d="M18.65 8.67l.37.73c.96 1.88 1.37 2.68 3.38 4.2.13.1.16.29.06.43a.3.3 0 01-.27.12c-.7-.02-1.32-.13-1.94-.23-.54-.09-1.08-.18-1.66-.21-.16.44-.36.93-.57 1.42-.23.56-.47 1.13-.63 1.61-.05.16-.23.24-.39.19a.335.335 0 01-.18-.15c-.67-1.16-1.28-2.74-1.82-4.42-.42-1.3-.79-2.66-1.12-3.94-.33 1.28-.7 2.64-1.12 3.94-.54 1.68-1.15 3.26-1.82 4.42-.03.07-.1.13-.18.15a.313.313 0 01-.39-.19c-.16-.48-.4-1.04-.63-1.61-.2-.49-.41-.98-.57-1.42-.58.03-1.12.12-1.66.21-.62.1-1.24.2-1.94.23a.29.29 0 01-.27-.12c-.1-.13-.08-.33.06-.43 2.01-1.52 2.42-2.31 3.38-4.2l.4-.77c-.93.21-1.76.36-2.05.38-.87.05-1.57.07-2-.25-.48-.35-.57-.98-.1-2.16.14-.34.24-.59.33-.8.2-.48.32-.75.35-1 .04-.33-.06-.73-.28-1.65l-.01-.05c-.09-.39-.17-.57-.22-.7-.14-.34-.18-.43-.05-1.32.03-.18.17-.31.34-.32-.03-.18.08-.36.26-.41.66-.2 1.73-.07 2.8.23 1.14.32 2.3.84 2.91 1.35.53.44.82.74.96 1 .05.1.08.2.1.29.2-.16.45-.25.72-.25h1.32c.2 0 .4.05.56.15.02-.06.04-.12.07-.18.13-.27.43-.56.96-1 .61-.51 1.77-1.03 2.91-1.35 1.07-.3 2.15-.43 2.8-.23.18.06.29.23.26.41.17.02.31.15.34.32.13.89.1.98-.05 1.32-.05.13-.13.31-.22.69l-.02.07c-.22.92-.31 1.32-.28 1.65.03.25.14.52.35 1 .09.21.2.46.33.8.47 1.17.38 1.8-.1 2.16-.43.31-1.12.3-2 .25-.27-.02-1-.15-1.84-.33z" fill="#fefefe" fill-rule="nonzero"/><path class="fil0" d="M18.79 8.67l.38.75c.99 1.94 1.41 2.75 3.48 4.32.14.1.17.3.06.44-.07.09-.18.13-.28.12-.72-.02-1.36-.13-1.99-.23-.56-.09-1.11-.18-1.71-.22-.16.45-.37.96-.58 1.46-.24.58-.48 1.16-.65 1.65-.06.16-.23.25-.4.2a.353.353 0 01-.18-.16c-.69-1.19-1.31-2.82-1.87-4.55-.43-1.34-.82-2.74-1.15-4.06-.34 1.32-.72 2.72-1.15 4.06-.55 1.73-1.18 3.35-1.87 4.55-.04.07-.1.13-.18.16a.313.313 0 01-.4-.2c-.17-.49-.41-1.07-.65-1.65-.21-.5-.42-1.01-.58-1.46-.6.03-1.15.13-1.71.22-.64.1-1.28.21-1.99.23-.1.01-.21-.03-.28-.12-.1-.14-.08-.34.06-.44 2.07-1.57 2.49-2.38 3.48-4.32l.41-.79c-.95.21-1.81.37-2.11.39-.9.05-1.61.07-2.05-.25-.5-.36-.59-1.01-.1-2.22.14-.35.25-.61.34-.82.21-.49.33-.77.36-1.03.04-.33-.06-.75-.29-1.7l-.02-.06a3.37 3.37 0 00-.23-.71c-.15-.35-.18-.44-.05-1.36.03-.18.17-.31.35-.33-.03-.19.08-.37.27-.43.67-.21 1.78-.08 2.88.23 1.17.33 2.37.87 2.99 1.39.54.45.85.76.98 1.03.05.11.09.21.1.3.2-.16.46-.26.75-.26h1.35c.21 0 .41.05.58.15.02-.06.04-.12.08-.19.14-.27.44-.58.98-1.03.63-.52 1.82-1.06 2.99-1.39 1.1-.31 2.21-.44 2.88-.23.18.06.3.24.27.43.17.02.32.15.35.33.14.91.1 1.01-.05 1.36-.06.13-.13.32-.23.71l-.02.07c-.22.94-.32 1.36-.28 1.69.03.26.15.54.36 1.03.09.22.2.48.34.82.48 1.21.4 1.86-.1 2.22-.44.32-1.15.31-2.05.25-.28-.02-1.03-.15-1.89-.34zm-3.01-4.73v2.31c0 .25-.08.48-.21.67.33.19 1.14.44 2.02.67 1.3.34 2.75.62 3.14.64.74.04 1.32.06 1.55-.11.18-.13.16-.5-.16-1.3-.12-.3-.24-.58-.34-.81-.24-.56-.37-.88-.41-1.25-.05-.47.06-.92.3-1.96l.02-.07c.06-.26.12-.44.17-.58-.32.32-.67.59-1.04.82-.72.44-1.53.74-2.35.92-.55.12-1.08.15-1.57.14-.42-.01-.79-.05-1.11-.1zm4.62-1.62c.59-.36 1.1-.84 1.5-1.46l-.04-.01c-.52-.16-1.47-.03-2.44.24-1.08.3-2.16.78-2.71 1.24-.46.38-.7.62-.78.78-.01.02-.01.05-.01.07.29.04.63.08.99.09.43.01.91-.01 1.38-.12.75-.17 1.47-.43 2.11-.82zm-8.37 1.6l-.03.01c-.35.05-.78.1-1.27.12-.49.01-1.02-.02-1.57-.14-.82-.18-1.63-.48-2.35-.92-.37-.23-.72-.5-1.04-.82.05.14.11.32.17.58l.02.07c.24 1.03.35 1.49.3 1.96-.04.37-.18.69-.41 1.25-.1.23-.21.5-.34.81-.32.8-.34 1.17-.16 1.3.23.17.81.15 1.55.11.39-.02 1.83-.31 3.13-.64.9-.23 1.72-.48 2.04-.68.04-.02.08-.04.13-.05-.1-.18-.16-.39-.16-.61V3.93zm2.55-.34h-1.35c-.11 0-.21.04-.28.11l-.01.02c-.08.08-.12.18-.12.3v2.26c0 .12.04.22.1.3l.02.02c.06.07.15.11.26.11h1.4c.11 0 .22-.05.29-.12.08-.07.12-.18.12-.3V4.02a.45.45 0 00-.12-.3.407.407 0 00-.3-.12zM5.71.86c.4.62.92 1.1 1.5 1.46.64.39 1.37.66 2.11.82.47.11.95.13 1.38.12.36-.01.69-.05.99-.09.01-.03 0-.05-.01-.07-.08-.17-.33-.4-.79-.78-.55-.46-1.63-.93-2.71-1.24C7.21.81 6.26.68 5.74.84L5.7.85zm7.75 6.74l-.17.04c-1 .23-2.86.71-3.65 1.19l-.45.87c-.89 1.75-1.34 2.62-2.84 3.88.31-.04.61-.09.92-.14.64-.11 1.29-.21 2.02-.23.14 0 .26.09.31.21.17.49.41 1.07.65 1.65.14.35.29.7.42 1.03.54-1.07 1.04-2.42 1.5-3.84.49-1.54.93-3.18 1.3-4.66zm1.06.04l-.17-.04c.37 1.48.81 3.12 1.3 4.66.46 1.42.96 2.76 1.5 3.84.13-.33.27-.68.42-1.03.24-.58.48-1.15.65-1.65.04-.13.16-.22.31-.21.73.02 1.37.13 2.02.23.3.05.61.1.92.14-1.5-1.26-1.95-2.14-2.84-3.88l-.45-.87c-.79-.49-2.65-.97-3.65-1.19z"/></g></g></svg>