<?xml version="1.0" encoding="UTF-8"?>
<!DOCTYPE svg PUBLIC "-//W3C//DTD SVG 1.1//EN" "http://www.w3.org/Graphics/SVG/1.1/DTD/svg11.dtd">
<!-- Creator: CorelDRAW 2018 (64-Bit) -->
<svg xmlns="http://www.w3.org/2000/svg" xml:space="preserve" width="5.9452mm" height="5.1339mm" version="1.1" style="shape-rendering:geometricPrecision; text-rendering:geometricPrecision; image-rendering:optimizeQuality; fill-rule:evenodd; clip-rule:evenodd"
viewBox="0 0 27.61 23.84"
 xmlns:xlink="http://www.w3.org/1999/xlink">
 <defs>
  <style type="text/css">
   <![CDATA[
    .fil1 {fill:#FEFEFE;fill-rule:nonzero}
    .fil0 {fill:#CD0017;fill-rule:nonzero}
   ]]>
  </style>
 </defs>
 <g id="Layer_x0020_1">
  <metadata id="CorelCorpID_0Corel-Layer"/>
  <g id="_3528534480">
   <path class="fil0" d="M2.02 4.56l11.73 0 0.06 -0 0.06 0 11.86 0c0.5,0.03 0.97,0.25 1.31,0.59 0.35,0.35 0.57,0.82 0.57,1.34 0,1.19 -0.16,0.91 -0.24,2.12 -0.03,0.54 -0.26,1.04 -0.62,1.39 -0.33,0.33 -0.77,0.55 -1.27,0.58l-0.46 11.26 -0.6 -0.02 0.6 0.04c-0.03,0.54 -0.26,1.04 -0.62,1.39 -0.36,0.36 -0.84,0.58 -1.39,0.58l-9.18 0 -0.02 0 -0.02 0 -8.94 0c-0.54,0 -1.03,-0.22 -1.39,-0.58 -0.36,-0.36 -0.59,-0.86 -0.62,-1.4l-0.7 -11.27c-0.5,-0.03 -0.94,-0.24 -1.28,-0.58 -0.36,-0.36 -0.59,-0.85 -0.62,-1.4 -0.07,-1.16 -0.08,-1.01 -0.24,-2.12 0,-0.52 0.22,-0.99 0.58,-1.34 0.34,-0.34 0.81,-0.56 1.31,-0.59 0.04,0 0.09,0 0.13,-0.01zm12.39 6.03l0 12.05 8.6 0c0.21,0 0.4,-0.09 0.54,-0.23 0.16,-0.16 0.26,-0.38 0.27,-0.62l0.46 -11.19 -9.88 0zm-1.2 12.05l0 -12.05 -9.87 0 0.69 11.2c0.01,0.24 0.12,0.46 0.27,0.62 0.14,0.14 0.33,0.23 0.55,0.23l8.36 0zm0 -13.24l1.2 0 10.95 0c0.22,0 0.41,-0.09 0.55,-0.23 0.16,-0.16 0.26,-0.38 0.27,-0.63l0.24 -2.06c-0,-0.18 -0.09,-0.35 -0.22,-0.48 -0.14,-0.14 -0.34,-0.23 -0.55,-0.25l-0.05 -0 -11.19 0 -1.2 0 -11.24 0c-0.21,0.01 -0.41,0.11 -0.55,0.25 -0.13,0.13 -0.21,0.3 -0.21,0.49l0.24 2.05c0.02,0.25 0.12,0.47 0.27,0.63 0.14,0.14 0.33,0.23 0.54,0.23l10.95 0z"/>
   <path class="fil1" d="M18.65 8.67l0.37 0.73c0.96,1.88 1.37,2.68 3.38,4.2 0.13,0.1 0.16,0.29 0.06,0.43 -0.07,0.09 -0.17,0.13 -0.27,0.12 -0.7,-0.02 -1.32,-0.13 -1.94,-0.23 -0.54,-0.09 -1.08,-0.18 -1.66,-0.21 -0.16,0.44 -0.36,0.93 -0.57,1.42 -0.23,0.56 -0.47,1.13 -0.63,1.61 -0.05,0.16 -0.23,0.24 -0.39,0.19 -0.08,-0.03 -0.14,-0.08 -0.18,-0.15 -0.67,-1.16 -1.28,-2.74 -1.82,-4.42 -0.42,-1.3 -0.79,-2.66 -1.12,-3.94 -0.33,1.28 -0.7,2.64 -1.12,3.94 -0.54,1.68 -1.15,3.26 -1.82,4.42 -0.03,0.07 -0.1,0.13 -0.18,0.15 -0.16,0.05 -0.33,-0.03 -0.39,-0.19 -0.16,-0.48 -0.4,-1.04 -0.63,-1.61 -0.2,-0.49 -0.41,-0.98 -0.57,-1.42 -0.58,0.03 -1.12,0.12 -1.66,0.21 -0.62,0.1 -1.24,0.2 -1.94,0.23 -0.1,0.01 -0.21,-0.03 -0.27,-0.12 -0.1,-0.13 -0.08,-0.33 0.06,-0.43 2.01,-1.52 2.42,-2.31 3.38,-4.2l0.4 -0.77c-0.93,0.21 -1.76,0.36 -2.05,0.38 -0.87,0.05 -1.57,0.07 -2,-0.25 -0.48,-0.35 -0.57,-0.98 -0.1,-2.16 0.14,-0.34 0.24,-0.59 0.33,-0.8 0.2,-0.48 0.32,-0.75 0.35,-1 0.04,-0.33 -0.06,-0.73 -0.28,-1.65l-0.01 -0.05c-0.09,-0.39 -0.17,-0.57 -0.22,-0.7 -0.14,-0.34 -0.18,-0.43 -0.05,-1.32 0.03,-0.18 0.17,-0.31 0.34,-0.32 -0.03,-0.18 0.08,-0.36 0.26,-0.41 0.66,-0.2 1.73,-0.07 2.8,0.23 1.14,0.32 2.3,0.84 2.91,1.35 0.53,0.44 0.82,0.74 0.96,1 0.05,0.1 0.08,0.2 0.1,0.29 0.2,-0.16 0.45,-0.25 0.72,-0.25l1.32 0c0.2,0 0.4,0.05 0.56,0.15 0.02,-0.06 0.04,-0.12 0.07,-0.18 0.13,-0.27 0.43,-0.56 0.96,-1 0.61,-0.51 1.77,-1.03 2.91,-1.35 1.07,-0.3 2.15,-0.43 2.8,-0.23 0.18,0.06 0.29,0.23 0.26,0.41 0.17,0.02 0.31,0.15 0.34,0.32 0.13,0.89 0.1,0.98 -0.05,1.32 -0.05,0.13 -0.13,0.31 -0.22,0.69l-0.02 0.07c-0.22,0.92 -0.31,1.32 -0.28,1.65 0.03,0.25 0.14,0.52 0.35,1 0.09,0.21 0.2,0.46 0.33,0.8 0.47,1.17 0.38,1.8 -0.1,2.16 -0.43,0.31 -1.12,0.3 -2,0.25 -0.27,-0.02 -1,-0.15 -1.84,-0.33z"/>
   <path class="fil0" d="M18.79 8.67l0.38 0.75c0.99,1.94 1.41,2.75 3.48,4.32 0.14,0.1 0.17,0.3 0.06,0.44 -0.07,0.09 -0.18,0.13 -0.28,0.12 -0.72,-0.02 -1.36,-0.13 -1.99,-0.23 -0.56,-0.09 -1.11,-0.18 -1.71,-0.22 -0.16,0.45 -0.37,0.96 -0.58,1.46 -0.24,0.58 -0.48,1.16 -0.65,1.65 -0.06,0.16 -0.23,0.25 -0.4,0.2 -0.08,-0.03 -0.14,-0.09 -0.18,-0.16 -0.69,-1.19 -1.31,-2.82 -1.87,-4.55 -0.43,-1.34 -0.82,-2.74 -1.15,-4.06 -0.34,1.32 -0.72,2.72 -1.15,4.06 -0.55,1.73 -1.18,3.35 -1.87,4.55 -0.04,0.07 -0.1,0.13 -0.18,0.16 -0.16,0.06 -0.34,-0.03 -0.4,-0.2 -0.17,-0.49 -0.41,-1.07 -0.65,-1.65 -0.21,-0.5 -0.42,-1.01 -0.58,-1.46 -0.6,0.03 -1.15,0.13 -1.71,0.22 -0.64,0.1 -1.28,0.21 -1.99,0.23 -0.1,0.01 -0.21,-0.03 -0.28,-0.12 -0.1,-0.14 -0.08,-0.34 0.06,-0.44 2.07,-1.57 2.49,-2.38 3.48,-4.32l0.41 -0.79c-0.95,0.21 -1.81,0.37 -2.11,0.39 -0.9,0.05 -1.61,0.07 -2.05,-0.25 -0.5,-0.36 -0.59,-1.01 -0.1,-2.22 0.14,-0.35 0.25,-0.61 0.34,-0.82 0.21,-0.49 0.33,-0.77 0.36,-1.03 0.04,-0.33 -0.06,-0.75 -0.29,-1.7l-0.02 -0.06c-0.09,-0.39 -0.17,-0.58 -0.23,-0.71 -0.15,-0.35 -0.18,-0.44 -0.05,-1.36 0.03,-0.18 0.17,-0.31 0.35,-0.33 -0.03,-0.19 0.08,-0.37 0.27,-0.43 0.67,-0.21 1.78,-0.08 2.88,0.23 1.17,0.33 2.37,0.87 2.99,1.39 0.54,0.45 0.85,0.76 0.98,1.03 0.05,0.11 0.09,0.21 0.1,0.3 0.2,-0.16 0.46,-0.26 0.75,-0.26l1.35 0c0.21,0 0.41,0.05 0.58,0.15 0.02,-0.06 0.04,-0.12 0.08,-0.19 0.14,-0.27 0.44,-0.58 0.98,-1.03 0.63,-0.52 1.82,-1.06 2.99,-1.39 1.1,-0.31 2.21,-0.44 2.88,-0.23 0.18,0.06 0.3,0.24 0.27,0.43 0.17,0.02 0.32,0.15 0.35,0.33 0.14,0.91 0.1,1.01 -0.05,1.36 -0.06,0.13 -0.13,0.32 -0.23,0.71l-0.02 0.07c-0.22,0.94 -0.32,1.36 -0.28,1.69 0.03,0.26 0.15,0.54 0.36,1.03 0.09,0.22 0.2,0.48 0.34,0.82 0.48,1.21 0.4,1.86 -0.1,2.22 -0.44,0.32 -1.15,0.31 -2.05,0.25 -0.28,-0.02 -1.03,-0.15 -1.89,-0.34zm-3.01 -4.73l0 0.05 0 2.26c0,0.25 -0.08,0.48 -0.21,0.67 0.33,0.19 1.14,0.44 2.02,0.67 1.3,0.34 2.75,0.62 3.14,0.64 0.74,0.04 1.32,0.06 1.55,-0.11 0.18,-0.13 0.16,-0.5 -0.16,-1.3 -0.12,-0.3 -0.24,-0.58 -0.34,-0.81 -0.24,-0.56 -0.37,-0.88 -0.41,-1.25 -0.05,-0.47 0.06,-0.92 0.3,-1.96l0.02 -0.07c0.06,-0.26 0.12,-0.44 0.17,-0.58 -0.32,0.32 -0.67,0.59 -1.04,0.82 -0.72,0.44 -1.53,0.74 -2.35,0.92 -0.55,0.12 -1.08,0.15 -1.57,0.14 -0.42,-0.01 -0.79,-0.05 -1.11,-0.1zm4.62 -1.62c0.59,-0.36 1.1,-0.84 1.5,-1.46l-0.04 -0.01c-0.52,-0.16 -1.47,-0.03 -2.44,0.24 -1.08,0.3 -2.16,0.78 -2.71,1.24 -0.46,0.38 -0.7,0.62 -0.78,0.78 -0.01,0.02 -0.01,0.05 -0.01,0.07 0.29,0.04 0.63,0.08 0.99,0.09 0.43,0.01 0.91,-0.01 1.38,-0.12 0.75,-0.17 1.47,-0.43 2.11,-0.82zm-8.37 1.6l-0.03 0.01c-0.35,0.05 -0.78,0.1 -1.27,0.12 -0.49,0.01 -1.02,-0.02 -1.57,-0.14 -0.82,-0.18 -1.63,-0.48 -2.35,-0.92 -0.37,-0.23 -0.72,-0.5 -1.04,-0.82 0.05,0.14 0.11,0.32 0.17,0.58l0.02 0.07c0.24,1.03 0.35,1.49 0.3,1.96 -0.04,0.37 -0.18,0.69 -0.41,1.25 -0.1,0.23 -0.21,0.5 -0.34,0.81 -0.32,0.8 -0.34,1.17 -0.16,1.3 0.23,0.17 0.81,0.15 1.55,0.11 0.39,-0.02 1.83,-0.31 3.13,-0.64 0.9,-0.23 1.72,-0.48 2.04,-0.68 0.04,-0.02 0.08,-0.04 0.13,-0.05 -0.1,-0.18 -0.16,-0.39 -0.16,-0.61l0 -2.26c0,-0.03 0,-0.05 0,-0.08zm2.55 -0.34l-1.35 0c-0.11,0 -0.21,0.04 -0.28,0.11l-0.01 0.02c-0.08,0.08 -0.12,0.18 -0.12,0.3l0 2.26c0,0.12 0.04,0.22 0.1,0.3l0.02 0.02c0.06,0.07 0.15,0.11 0.26,0.11l1.4 0c0.11,0 0.22,-0.05 0.29,-0.12 0.08,-0.07 0.12,-0.18 0.12,-0.3l0 -2.26c0,-0.12 -0.05,-0.22 -0.12,-0.3 -0.08,-0.08 -0.18,-0.12 -0.3,-0.12zm-8.87 -2.72c0.4,0.62 0.92,1.1 1.5,1.46 0.64,0.39 1.37,0.66 2.11,0.82 0.47,0.11 0.95,0.13 1.38,0.12 0.36,-0.01 0.69,-0.05 0.99,-0.09 0.01,-0.03 0,-0.05 -0.01,-0.07 -0.08,-0.17 -0.33,-0.4 -0.79,-0.78 -0.55,-0.46 -1.63,-0.93 -2.71,-1.24 -0.97,-0.27 -1.92,-0.4 -2.44,-0.24l-0.04 0.01zm7.75 6.74l-0.17 0.04c-1,0.23 -2.86,0.71 -3.65,1.19l-0.45 0.87c-0.89,1.75 -1.34,2.62 -2.84,3.88 0.31,-0.04 0.61,-0.09 0.92,-0.14 0.64,-0.11 1.29,-0.21 2.02,-0.23 0.14,-0 0.26,0.09 0.31,0.21 0.17,0.49 0.41,1.07 0.65,1.65 0.14,0.35 0.29,0.7 0.42,1.03 0.54,-1.07 1.04,-2.42 1.5,-3.84 0.49,-1.54 0.93,-3.18 1.3,-4.66zm1.06 0.04l-0.17 -0.04c0.37,1.48 0.81,3.12 1.3,4.66 0.46,1.42 0.96,2.76 1.5,3.84 0.13,-0.33 0.27,-0.68 0.42,-1.03 0.24,-0.58 0.48,-1.15 0.65,-1.65 0.04,-0.13 0.16,-0.22 0.31,-0.21 0.73,0.02 1.37,0.13 2.02,0.23 0.3,0.05 0.61,0.1 0.92,0.14 -1.5,-1.26 -1.95,-2.14 -2.84,-3.88l-0.45 -0.87c-0.79,-0.49 -2.65,-0.97 -3.65,-1.19z"/>
  </g>
 </g>
</svg>
