<?xml version="1.0" encoding="UTF-8"?>
<!DOCTYPE svg PUBLIC "-//W3C//DTD SVG 1.1//EN" "http://www.w3.org/Graphics/SVG/1.1/DTD/svg11.dtd">
<!-- Creator: CorelDRAW 2018 (64-Bit) -->
<svg xmlns="http://www.w3.org/2000/svg" xml:space="preserve" width="3.1925mm" height="2.7583mm" version="1.1" style="shape-rendering:geometricPrecision; text-rendering:geometricPrecision; image-rendering:optimizeQuality; fill-rule:evenodd; clip-rule:evenodd"
viewBox="0 0 24.6 21.25"
 xmlns:xlink="http://www.w3.org/1999/xlink">
 <defs>
  <style type="text/css">
   <![CDATA[
    .fil0 {fill:#B9BABA}
   ]]>
  </style>
 </defs>
 <g id="Layer_x0020_1">
  <metadata id="CorelCorpID_0Corel-Layer"/>
  <path class="fil0" d="M12.3 2.54c1.31,-1.6 3.27,-2.54 5.36,-2.54 3.83,0 6.93,3.11 6.93,6.93 0,2.1 -0.78,4.05 -1.93,5.78 -1.11,1.68 -2.57,3.16 -4.1,4.45 -1.78,1.5 -3.83,2.9 -5.89,4 -0.23,0.12 -0.51,0.12 -0.74,0 -1.2,-0.57 -2.66,-1.56 -3.74,-2.33 -2.34,-1.67 -4.66,-3.72 -6.26,-6.13 -1.15,-1.73 -1.93,-3.68 -1.93,-5.78 0,-3.83 3.1,-6.93 6.93,-6.93 2.09,0 4.05,0.94 5.36,2.54z"/>
 </g>
</svg>
