<svg xmlns="http://www.w3.org/2000/svg" width="9.939" height="8.559" viewBox="0 0 5.31 4.57" shape-rendering="geometricPrecision" text-rendering="geometricPrecision" image-rendering="optimizeQuality" fill-rule="evenodd" clip-rule="evenodd"><path d="M2.1.14c.19.09.37.23.51.4l.04.05.04-.05c.14-.17.31-.31.51-.4.19-.09.41-.14.63-.14.41 0 .77.16 1.04.43s.43.63.43 1.04a2.173 2.173 0 01-.41 1.24c-.12.18-.26.36-.41.52-.15.16-.31.31-.48.45-.2.17-.41.33-.63.47-.21.15-.44.28-.66.4-.02.01-.03.01-.05.01-.02 0-.04 0-.05-.01-.14-.07-.28-.15-.42-.24-.14-.09-.27-.18-.4-.27-.26-.18-.51-.38-.74-.61C.82 3.21.6 2.96.43 2.7a2.4 2.4 0 01-.31-.62c-.07-.2-.1-.41-.1-.62 0-.41.16-.77.43-1.04s.63-.43 1.04-.43c.22 0 .44.05.63.14zM2 3.9c.2.14.42.28.63.39l.03.02c.06-.03.12-.06.17-.1a14.337 14.337 0 00.56-.37c.26-.19.52-.4.76-.63.2-.2.39-.41.54-.64.11-.17.2-.34.27-.53.07-.18.11-.38.11-.58 0-.16-.03-.32-.09-.47-.06-.15-.15-.28-.26-.4a1.18 1.18 0 00-.4-.27C4.17.26 4.01.23 3.85.23c-.22 0-.44.06-.62.17-.18.11-.34.27-.45.46-.01.02-.03.03-.04.05-.02.01-.04.02-.06.02-.02 0-.04-.01-.06-.02C2.6.9 2.59.88 2.57.86 2.46.66 2.31.5 2.12.39A1.23 1.23 0 00.36.98c-.06.15-.09.31-.09.47 0 .19.04.38.1.56.06.18.15.35.26.51.11.17.24.33.37.48.14.15.29.29.44.42.18.16.38.31.59.45z" fill="#767676" fill-rule="nonzero"/></svg>