<svg xmlns="http://www.w3.org/2000/svg" width="12.066" height="10.425" viewBox="0 0 24.6 21.25" shape-rendering="geometricPrecision" text-rendering="geometricPrecision" image-rendering="optimizeQuality" fill-rule="evenodd" clip-rule="evenodd"><path d="M12.3 2.54A6.922 6.922 0 0117.66 0c3.83 0 6.93 3.11 6.93 6.93 0 2.1-.78 4.05-1.93 5.78-1.11 1.68-2.57 3.16-4.1 4.45-1.78 1.5-3.83 2.9-5.89 4-.23.12-.51.12-.74 0-1.2-.57-2.66-1.56-3.74-2.33-2.34-1.67-4.66-3.72-6.26-6.13C.78 10.97 0 9.02 0 6.92a6.927 6.927 0 0112.29-4.39z" fill="#cc0017"/></svg>