<?xml version="1.0" encoding="UTF-8"?>
<!DOCTYPE svg PUBLIC "-//W3C//DTD SVG 1.1//EN" "http://www.w3.org/Graphics/SVG/1.1/DTD/svg11.dtd">
<!-- Creator: CorelDRAW 2018 (64-Bit) -->
<svg xmlns="http://www.w3.org/2000/svg" xml:space="preserve" width="2.6298mm" height="2.2645mm" version="1.1" style="shape-rendering:geometricPrecision; text-rendering:geometricPrecision; image-rendering:optimizeQuality; fill-rule:evenodd; clip-rule:evenodd"
viewBox="0 0 5.31 4.57"
 xmlns:xlink="http://www.w3.org/1999/xlink">
 <defs>
  <style type="text/css">
   <![CDATA[
    .fil0 {fill:#767676;fill-rule:nonzero}
   ]]>
  </style>
 </defs>
 <g id="Layer_x0020_1">
  <metadata id="CorelCorpID_0Corel-Layer"/>
  <path class="fil0" d="M2.1 0.14c0.19,0.09 0.37,0.23 0.51,0.4l0.04 0.05 0.04 -0.05c0.14,-0.17 0.31,-0.31 0.51,-0.4 0.19,-0.09 0.41,-0.14 0.63,-0.14 0.41,0 0.77,0.16 1.04,0.43 0.27,0.27 0.43,0.63 0.43,1.04 0,0.21 -0.04,0.42 -0.1,0.62 -0.07,0.22 -0.18,0.43 -0.31,0.62 -0.12,0.18 -0.26,0.36 -0.41,0.52 -0.15,0.16 -0.31,0.31 -0.48,0.45 -0.2,0.17 -0.41,0.33 -0.63,0.47 -0.21,0.15 -0.44,0.28 -0.66,0.4l-0 0c-0.02,0.01 -0.03,0.01 -0.05,0.01l-0 0c-0.02,0 -0.04,-0 -0.05,-0.01 -0.14,-0.07 -0.28,-0.15 -0.42,-0.24l-0 -0c-0.14,-0.09 -0.27,-0.18 -0.4,-0.27 -0.26,-0.18 -0.51,-0.38 -0.74,-0.61 -0.23,-0.22 -0.45,-0.47 -0.62,-0.73 -0.13,-0.19 -0.24,-0.4 -0.31,-0.62 -0.07,-0.2 -0.1,-0.41 -0.1,-0.62 0,-0.41 0.16,-0.77 0.43,-1.04l0 -0c0.27,-0.27 0.63,-0.43 1.04,-0.43 0.22,0 0.44,0.05 0.63,0.14zm-0.1 3.76c0.2,0.14 0.42,0.28 0.63,0.39l0.03 0.02c0.06,-0.03 0.12,-0.06 0.17,-0.1 0.1,-0.06 0.19,-0.12 0.28,-0.18 0.09,-0.06 0.18,-0.12 0.28,-0.19 0.26,-0.19 0.52,-0.4 0.76,-0.63 0.2,-0.2 0.39,-0.41 0.54,-0.64 0.11,-0.17 0.2,-0.34 0.27,-0.53 0.07,-0.18 0.11,-0.38 0.11,-0.58 -0,-0.16 -0.03,-0.32 -0.09,-0.47 -0.06,-0.15 -0.15,-0.28 -0.26,-0.4l-0 -0c-0.12,-0.12 -0.25,-0.21 -0.4,-0.27 -0.15,-0.06 -0.31,-0.09 -0.47,-0.09 -0.22,0 -0.44,0.06 -0.62,0.17 -0.18,0.11 -0.34,0.27 -0.45,0.46l-0 0c-0.01,0.02 -0.03,0.03 -0.04,0.05 -0.02,0.01 -0.04,0.02 -0.06,0.02 -0.02,0 -0.04,-0.01 -0.06,-0.02 -0.02,-0.01 -0.03,-0.03 -0.05,-0.05 -0.11,-0.2 -0.26,-0.36 -0.45,-0.47 -0.19,-0.11 -0.4,-0.17 -0.62,-0.17 -0.16,0 -0.32,0.03 -0.47,0.09 -0.15,0.06 -0.28,0.15 -0.4,0.27 -0.12,0.12 -0.21,0.25 -0.27,0.4 -0.06,0.15 -0.09,0.31 -0.09,0.47 0,0.19 0.04,0.38 0.1,0.56 0.06,0.18 0.15,0.35 0.26,0.51 0.11,0.17 0.24,0.33 0.37,0.48 0.14,0.15 0.29,0.29 0.44,0.42 0.18,0.16 0.38,0.31 0.59,0.45z"/>
 </g>
</svg>
