<svg xmlns="http://www.w3.org/2000/svg" width="6.457" height="5.937" viewBox="0 0 4.45 4.09" shape-rendering="geometricPrecision" text-rendering="geometricPrecision" image-rendering="optimizeQuality" fill-rule="evenodd" clip-rule="evenodd"><defs><style>.fil0{fill:#cd0017;fill-rule:nonzero}</style></defs><g id="Layer_x0020_1"><g id="_2074190912"><path class="fil0" d="M4.42 2.09L2.24.02a.078.078 0 00-.11 0L.02 2.09c-.03.03-.03.08 0 .11s.08.03.11 0L2.18.19 4.3 2.2c.02.01.04.02.06.02.02 0 .04-.01.06-.03.03-.03.03-.08 0-.11z"/><path class="fil0" d="M3.7 3.93h-.92V2.62c0-.04-.04-.08-.08-.08h-.98c-.04 0-.08.04-.08.08v1.31H.72V1.98H.56v2.03c0 .04.04.08.08.08h1.08c.04 0 .08-.04.08-.08V2.7h.82v1.31c0 .04.04.08.08.08h1.08c.04 0 .08-.04.08-.08V1.98H3.7v1.95zM.9.27h.35v.39L1.41.5V.19c0-.04-.04-.08-.08-.08H.82C.78.11.74.15.74.19v.98l.16-.16V.27z"/></g></g></svg>