<?xml version="1.0" encoding="UTF-8"?>
<!DOCTYPE svg PUBLIC "-//W3C//DTD SVG 1.1//EN" "http://www.w3.org/Graphics/SVG/1.1/DTD/svg11.dtd">
<!-- Creator: CorelDRAW 2018 (64-Bit) -->
<svg xmlns="http://www.w3.org/2000/svg" xml:space="preserve" width="2.0621mm" height="1.8962mm" version="1.1" style="shape-rendering:geometricPrecision; text-rendering:geometricPrecision; image-rendering:optimizeQuality; fill-rule:evenodd; clip-rule:evenodd"
viewBox="0 0 5.58 5.13"
 xmlns:xlink="http://www.w3.org/1999/xlink">
 <defs>
  <style type="text/css">
   <![CDATA[
    .fil0 {fill:#767676}
   ]]>
  </style>
 </defs>
 <g id="Layer_x0020_1">
  <metadata id="CorelCorpID_0Corel-Layer"/>
  <path class="fil0" d="M2.44 1.29c-0.05,0 -0.09,0.02 -0.12,0.05 -0.03,0.03 -0.05,0.08 -0.05,0.12l0 0.71c0,0.05 0.02,0.09 0.05,0.12 0.03,0.03 0.08,0.05 0.12,0.05l0.7 0c0.05,0 0.09,-0.02 0.12,-0.05 0.03,-0.03 0.05,-0.08 0.05,-0.12l0 -0.71c0,-0.05 -0.02,-0.09 -0.05,-0.12 -0.03,-0.03 -0.08,-0.05 -0.12,-0.05l-0.7 0zm0 0.57l0.31 0 0 0.31 -0.31 0 0 -0.31zm0.39 0.31l0 -0.31 0.31 0 0 0.31 -0.31 0zm0.31 -0.4l-0.31 0 0 -0.31 0.31 0 0 0.31zm-0.39 -0.31l0 0.31 -0.31 0 0 -0.31 0.31 0zm2.8 1.16l-2.73 -2.59c-0.04,-0.04 -0.1,-0.04 -0.14,0l-2.65 2.59c-0.04,0.04 -0.04,0.1 -0,0.14 0.04,0.04 0.1,0.04 0.14,0l2.58 -2.53 2.66 2.53c0.02,0.02 0.04,0.03 0.07,0.03 0.03,0 0.05,-0.01 0.07,-0.03 0.04,-0.04 0.04,-0.1 -0,-0.14zm-0.91 2.31l-1.15 0 0 -1.64c0,-0.06 -0.05,-0.1 -0.1,-0.1l-1.23 0c-0.06,0 -0.1,0.05 -0.1,0.1l0 1.64 -1.15 0 0 -2.45 -0.2 0 0 2.55c0,0.06 0.05,0.1 0.1,0.1l1.36 0c0.06,0 0.1,-0.05 0.1,-0.1l0 -1.64 1.03 0 0 1.64c0,0.06 0.05,0.1 0.1,0.1l1.36 0c0.06,0 0.1,-0.05 0.1,-0.1l0 -2.55 -0.2 0 0 2.45zm-3.5 -4.59l0.44 0 0 0.49 0.2 -0.2 0 -0.39c0,-0.05 -0.04,-0.1 -0.1,-0.1l-0.64 0c-0.05,0 -0.1,0.04 -0.1,0.1l0 1.23 0.2 -0.2 0 -0.93z"/>
 </g>
</svg>
