<svg xmlns="http://www.w3.org/2000/svg" width="7.794" height="7.167" viewBox="0 0 5.58 5.13" shape-rendering="geometricPrecision" text-rendering="geometricPrecision" image-rendering="optimizeQuality" fill-rule="evenodd" clip-rule="evenodd"><path d="M2.44 1.29c-.05 0-.09.02-.12.05-.03.03-.05.08-.05.12v.71c0 .05.02.09.05.12.03.03.08.05.12.05h.7c.05 0 .09-.02.12-.05.03-.03.05-.08.05-.12v-.71c0-.05-.02-.09-.05-.12a.185.185 0 00-.12-.05h-.7zm0 .57h.31v.31h-.31v-.31zm.39.31v-.31h.31v.31h-.31zm.31-.4h-.31v-.31h.31v.31zm-.39-.31v.31h-.31v-.31h.31zm2.8 1.16L2.82.03a.097.097 0 00-.14 0L.03 2.62c-.04.04-.04.1 0 .14.04.04.1.04.14 0L2.75.23l2.66 2.53c.02.02.04.03.07.03.03 0 .05-.01.07-.03.04-.04.04-.1 0-.14zm-.91 2.31H3.49V3.29a.1.1 0 00-.1-.1H2.16a.1.1 0 00-.1.1v1.64H.91V2.48h-.2v2.55c0 .06.05.1.1.1h1.36a.1.1 0 00.1-.1V3.39H3.3v1.64c0 .06.05.1.1.1h1.36a.1.1 0 00.1-.1V2.48h-.2v2.45zM1.14.34h.44v.49l.2-.2V.24a.1.1 0 00-.1-.1h-.64a.1.1 0 00-.1.1v1.23l.2-.2V.34z" fill="#767676"/></svg>