<?xml version="1.0" encoding="UTF-8"?>
<!DOCTYPE svg PUBLIC "-//W3C//DTD SVG 1.1//EN" "http://www.w3.org/Graphics/SVG/1.1/DTD/svg11.dtd">
<!-- Creator: CorelDRAW 2018 (64-Bit) -->
<svg xmlns="http://www.w3.org/2000/svg" xml:space="preserve" width="2.5777mm" height="2.5777mm" version="1.1" style="shape-rendering:geometricPrecision; text-rendering:geometricPrecision; image-rendering:optimizeQuality; fill-rule:evenodd; clip-rule:evenodd"
viewBox="0 0 0.86 0.86"
 xmlns:xlink="http://www.w3.org/1999/xlink">
 <defs>
  <style type="text/css">
   <![CDATA[
    .fil0 {fill:#5E5E5E;fill-rule:nonzero}
   ]]>
  </style>
 </defs>
 <g id="Layer_x0020_1">
  <metadata id="CorelCorpID_0Corel-Layer"/>
  <path class="fil0" d="M0.85 0.43l-0.01 0c0,0.11 -0.05,0.21 -0.12,0.29 -0.07,0.07 -0.18,0.12 -0.29,0.12 -0.11,0 -0.21,-0.05 -0.29,-0.12 -0.07,-0.07 -0.12,-0.18 -0.12,-0.29 0,-0.11 0.05,-0.21 0.12,-0.29 0.07,-0.07 0.18,-0.12 0.29,-0.12 0.11,0 0.21,0.05 0.29,0.12 0.07,0.07 0.12,0.18 0.12,0.29l0.02 0c0,-0.24 -0.19,-0.43 -0.43,-0.43 -0.24,0 -0.43,0.19 -0.43,0.43l0 0c0,0.24 0.19,0.43 0.43,0.43 0.24,0 0.43,-0.19 0.43,-0.43l-0.01 0z"/>
  <path class="fil0" d="M0.37 0.44l0 0.2c0,0.01 0,0.03 -0,0.04 -0,0.01 -0.02,0.02 -0.04,0.02l0 0.03 0.22 0 0 -0.03c-0.02,-0 -0.04,-0.01 -0.04,-0.02 -0,-0.01 -0,-0.02 -0,-0.04l0 -0.33 -0 -0c-0.04,0.02 -0.12,0.03 -0.17,0.03l0 0.03c0.04,0 0.05,0.02 0.05,0.07zm-0.03 -0.23c0,0.04 0.03,0.08 0.08,0.08 0.05,0 0.08,-0.04 0.08,-0.08 0,-0.04 -0.03,-0.08 -0.08,-0.08 -0.04,0 -0.08,0.03 -0.08,0.08z"/>
 </g>
</svg>
