<svg xmlns="http://www.w3.org/2000/svg" width="9.742" height="9.742" viewBox="0 0 0.86 0.86" shape-rendering="geometricPrecision" text-rendering="geometricPrecision" image-rendering="optimizeQuality" fill-rule="evenodd" clip-rule="evenodd"><defs><style>.fil0{fill:#5e5e5e;fill-rule:nonzero}</style></defs><g id="Layer_x0020_1"><path class="fil0" d="M.85.43H.84C.84.54.79.64.72.72.65.79.54.84.43.84.32.84.22.79.14.72A.425.425 0 01.02.43C.02.32.07.22.14.14.21.07.32.02.43.02c.11 0 .21.05.29.12.07.07.12.18.12.29h.02C.86.19.67 0 .43 0S0 .19 0 .43s.19.43.43.43S.86.67.86.43H.85z"/><path class="fil0" d="M.37.44v.24C.37.69.35.7.33.7v.03h.22V.7C.53.7.51.69.51.68V.31C.47.33.39.34.34.34v.03c.04 0 .05.02.05.07zM.34.21c0 .04.03.08.08.08S.5.25.5.21.47.13.42.13C.38.13.34.16.34.21z"/></g></svg>