<svg xmlns="http://www.w3.org/2000/svg" width="6.253" height="6.296" viewBox="0 0 21.22 21.37" shape-rendering="geometricPrecision" text-rendering="geometricPrecision" image-rendering="optimizeQuality" fill-rule="evenodd" clip-rule="evenodd"><path d="M0 7.78v6.14c0 3.34 1.06 5.58 3.18 6.7.96.54 4.02.75 9.19.6 3.96 0 6.24-.43 6.84-1.29 1.34-1.07 2.01-2.84 2.01-5.31v-7.9c0-3.12-1.1-5.15-3.3-6.12L16.45.12 14.97 0h-8.6C3.31 0 1.26 1.5.23 4.48.08 5.4 0 6.5 0 7.78zm6.72-5.89h8.25c2.99 0 4.48 1.58 4.48 4.71v8.36c-.4 2.91-1.62 4.36-3.65 4.36h-3.42c-1.59 0-3.28.04-5.06.11-2.96 0-4.69-.94-5.19-2.81-.15-1.04-.23-2.62-.23-4.71V9.3c0-3.92.32-5.89.95-5.89.63-1.01 1.93-1.53 3.88-1.53zm8.36 3.19c.35.78.78 1.17 1.31 1.17s.96-.39 1.3-1.17c-.18-.96-.66-1.43-1.43-1.43-.79.24-1.18.72-1.18 1.43zm-9.89 5.65c0 2.54 1.46 4.3 4.36 5.29h2.36c2.81-1.01 4.22-2.82 4.22-5.4v-.26c0-1.46-.74-2.83-2.24-4.11-1.01-.7-2.07-1.06-3.16-1.06h-.12c-2.43 0-4.13 1.26-5.07 3.77-.13.17-.24.76-.35 1.77zm5.42-3.66h.12c1.7 0 2.84.9 3.41 2.72.08.1.12.37.12.83-.38 2.43-1.55 3.65-3.53 3.65-1.57 0-2.71-.79-3.42-2.35-.1-.13-.18-.52-.25-1.18.28-2.44 1.47-3.66 3.55-3.66z" fill="#767676" fill-rule="nonzero"/></svg>