<?xml version="1.0" encoding="UTF-8"?>
<!DOCTYPE svg PUBLIC "-//W3C//DTD SVG 1.1//EN" "http://www.w3.org/Graphics/SVG/1.1/DTD/svg11.dtd">
<!-- Creator: CorelDRAW 2018 (64-Bit) -->
<svg xmlns="http://www.w3.org/2000/svg" xml:space="preserve" width="1.6545mm" height="1.6659mm" version="1.1" style="shape-rendering:geometricPrecision; text-rendering:geometricPrecision; image-rendering:optimizeQuality; fill-rule:evenodd; clip-rule:evenodd"
viewBox="0 0 21.22 21.37"
 xmlns:xlink="http://www.w3.org/1999/xlink">
 <defs>
  <style type="text/css">
   <![CDATA[
    .fil0 {fill:#767676;fill-rule:nonzero}
   ]]>
  </style>
 </defs>
 <g id="Layer_x0020_1">
  <metadata id="CorelCorpID_0Corel-Layer"/>
  <path class="fil0" d="M-0 7.78l0 6.14c0,3.34 1.06,5.58 3.18,6.7 0.96,0.54 4.02,0.75 9.19,0.6 3.96,0 6.24,-0.43 6.84,-1.29 1.34,-1.07 2.01,-2.84 2.01,-5.31l0 -7.9c0,-3.12 -1.1,-5.15 -3.3,-6.12l-1.47 -0.48 -1.48 -0.12 -8.6 0c-3.06,0 -5.11,1.5 -6.14,4.48 -0.15,0.92 -0.23,2.02 -0.23,3.3zm6.72 -5.89l8.25 0c2.99,0 4.48,1.58 4.48,4.71l0 8.36c-0.4,2.91 -1.62,4.36 -3.65,4.36l-3.42 0c-1.59,0 -3.28,0.04 -5.06,0.11 -2.96,0 -4.69,-0.94 -5.19,-2.81 -0.15,-1.04 -0.23,-2.62 -0.23,-4.71l0 -2.61c0,-3.92 0.32,-5.89 0.95,-5.89 0.63,-1.01 1.93,-1.53 3.88,-1.53zm8.36 3.19c0.35,0.78 0.78,1.17 1.31,1.17 0.53,0 0.96,-0.39 1.3,-1.17 -0.18,-0.96 -0.66,-1.43 -1.43,-1.43 -0.79,0.24 -1.18,0.72 -1.18,1.43zm-9.89 5.65c0,2.54 1.46,4.3 4.36,5.29l2.36 0c2.81,-1.01 4.22,-2.82 4.22,-5.4l0 -0.26c0,-1.46 -0.74,-2.83 -2.24,-4.11 -1.01,-0.7 -2.07,-1.06 -3.16,-1.06l-0.12 0c-2.43,0 -4.13,1.26 -5.07,3.77 -0.13,0.17 -0.24,0.76 -0.35,1.77zm5.42 -3.66l0.12 0c1.7,0 2.84,0.9 3.41,2.72 0.08,0.1 0.12,0.37 0.12,0.83 -0.38,2.43 -1.55,3.65 -3.53,3.65 -1.57,0 -2.71,-0.79 -3.42,-2.35 -0.1,-0.13 -0.18,-0.52 -0.25,-1.18 0.28,-2.44 1.47,-3.66 3.55,-3.66z"/>
 </g>
</svg>
