<svg xmlns="http://www.w3.org/2000/svg" width="9.6" height="9.6" viewBox="0 0 5.68 5.68" shape-rendering="geometricPrecision" text-rendering="geometricPrecision" image-rendering="optimizeQuality" fill-rule="evenodd" clip-rule="evenodd"><defs><linearGradient id="a" gradientUnits="userSpaceOnUse" x1="1.51" y1="5.35" x2="4.16" y2=".33"><stop offset="0" stop-color="#f6b04c"/><stop offset=".239" stop-color="#e6543d"/><stop offset=".561" stop-color="#d5186f"/><stop offset="1" stop-color="#b82585"/></linearGradient></defs><path d="M2.84.51c.76 0 .85 0 1.15.02.28.01.43.06.53.1.13.05.23.11.33.21.1.1.16.19.21.33.04.1.09.25.1.53.01.3.02.39.02 1.15 0 .76 0 .85-.02 1.15-.01.28-.06.43-.1.53-.05.13-.11.23-.21.33-.1.1-.19.16-.33.21-.1.04-.25.09-.53.1-.3.01-.39.02-1.15.02-.76 0-.85 0-1.15-.02-.28-.01-.43-.06-.53-.1a.886.886 0 01-.33-.21c-.1-.1-.16-.19-.21-.33-.04-.1-.09-.25-.1-.53C.51 3.7.5 3.61.5 2.85c0-.76 0-.85.02-1.15.01-.28.06-.43.1-.53.05-.13.11-.23.21-.33.1-.1.19-.16.33-.21.1-.04.25-.09.53-.1.3-.01.39-.02 1.15-.02m0-.51c-.77 0-.87 0-1.17.02-.3.01-.51.06-.69.13C.79.22.64.32.48.48.32.64.23.8.15.98c-.07.18-.12.39-.13.69-.01.3-.02.4-.02 1.17 0 .77 0 .87.02 1.17.01.3.06.51.13.69.07.19.17.34.33.5.16.16.32.25.5.33.18.07.39.12.69.13.3.01.4.02 1.17.02.77 0 .87 0 1.17-.02.3-.01.51-.06.69-.13.19-.07.34-.17.5-.33.16-.16.25-.32.33-.5.07-.18.12-.39.13-.69.01-.3.02-.4.02-1.17 0-.77 0-.87-.02-1.17-.01-.3-.06-.51-.13-.69-.07-.19-.17-.34-.33-.5a1.55 1.55 0 00-.5-.33C4.52.08 4.31.03 4.01.02 3.71.01 3.61 0 2.84 0zm0 1.38c-.8 0-1.46.65-1.46 1.46 0 .8.65 1.46 1.46 1.46.8 0 1.46-.65 1.46-1.46 0-.8-.65-1.46-1.46-1.46zm0 2.4a.95.95 0 110-1.9.95.95 0 010 1.9zM4.7 1.32c0 .19-.15.34-.34.34-.19 0-.34-.15-.34-.34 0-.19.15-.34.34-.34.19 0 .34.15.34.34z" fill="url(#a)"/></svg>