<?xml version="1.0" encoding="UTF-8"?>
<!DOCTYPE svg PUBLIC "-//W3C//DTD SVG 1.1//EN" "http://www.w3.org/Graphics/SVG/1.1/DTD/svg11.dtd">
<!-- Creator: CorelDRAW 2018 (64-Bit) -->
<svg xmlns="http://www.w3.org/2000/svg" xml:space="preserve" width="2.54mm" height="2.54mm" version="1.1" style="shape-rendering:geometricPrecision; text-rendering:geometricPrecision; image-rendering:optimizeQuality; fill-rule:evenodd; clip-rule:evenodd"
viewBox="0 0 5.68 5.68"
 xmlns:xlink="http://www.w3.org/1999/xlink">
 <defs>
  <style type="text/css">
   <![CDATA[
    .fil0 {fill:url(#id0)}
   ]]>
  </style>
  <linearGradient id="id0" gradientUnits="userSpaceOnUse" x1="1.51" y1="5.35" x2="4.16" y2="0.33">
   <stop offset="0" style="stop-opacity:1; stop-color:#F6B04C"/>
   <stop offset="0.239216" style="stop-opacity:1; stop-color:#E6543D"/>
   <stop offset="0.560784" style="stop-opacity:1; stop-color:#D5186F"/>
   <stop offset="1" style="stop-opacity:1; stop-color:#B82585"/>
  </linearGradient>
 </defs>
 <g id="Layer_x0020_1">
  <metadata id="CorelCorpID_0Corel-Layer"/>
  <g id="_2150295856">
   <g>
    <path class="fil0" d="M2.84 0.51c0.76,0 0.85,0 1.15,0.02 0.28,0.01 0.43,0.06 0.53,0.1 0.13,0.05 0.23,0.11 0.33,0.21 0.1,0.1 0.16,0.19 0.21,0.33 0.04,0.1 0.09,0.25 0.1,0.53 0.01,0.3 0.02,0.39 0.02,1.15 0,0.76 -0,0.85 -0.02,1.15 -0.01,0.28 -0.06,0.43 -0.1,0.53 -0.05,0.13 -0.11,0.23 -0.21,0.33 -0.1,0.1 -0.19,0.16 -0.33,0.21 -0.1,0.04 -0.25,0.09 -0.53,0.1 -0.3,0.01 -0.39,0.02 -1.15,0.02 -0.76,0 -0.85,-0 -1.15,-0.02 -0.28,-0.01 -0.43,-0.06 -0.53,-0.1 -0.13,-0.05 -0.23,-0.11 -0.33,-0.21 -0.1,-0.1 -0.16,-0.19 -0.21,-0.33 -0.04,-0.1 -0.09,-0.25 -0.1,-0.53 -0.01,-0.3 -0.02,-0.39 -0.02,-1.15 0,-0.76 0,-0.85 0.02,-1.15 0.01,-0.28 0.06,-0.43 0.1,-0.53 0.05,-0.13 0.11,-0.23 0.21,-0.33 0.1,-0.1 0.19,-0.16 0.33,-0.21 0.1,-0.04 0.25,-0.09 0.53,-0.1 0.3,-0.01 0.39,-0.02 1.15,-0.02m0 -0.51c-0.77,0 -0.87,0 -1.17,0.02 -0.3,0.01 -0.51,0.06 -0.69,0.13 -0.19,0.07 -0.34,0.17 -0.5,0.33 -0.16,0.16 -0.25,0.32 -0.33,0.5 -0.07,0.18 -0.12,0.39 -0.13,0.69 -0.01,0.3 -0.02,0.4 -0.02,1.17 0,0.77 0,0.87 0.02,1.17 0.01,0.3 0.06,0.51 0.13,0.69 0.07,0.19 0.17,0.34 0.33,0.5 0.16,0.16 0.32,0.25 0.5,0.33 0.18,0.07 0.39,0.12 0.69,0.13 0.3,0.01 0.4,0.02 1.17,0.02 0.77,0 0.87,-0 1.17,-0.02 0.3,-0.01 0.51,-0.06 0.69,-0.13 0.19,-0.07 0.34,-0.17 0.5,-0.33 0.16,-0.16 0.25,-0.32 0.33,-0.5 0.07,-0.18 0.12,-0.39 0.13,-0.69 0.01,-0.3 0.02,-0.4 0.02,-1.17 0,-0.77 -0,-0.87 -0.02,-1.17 -0.01,-0.3 -0.06,-0.51 -0.13,-0.69 -0.07,-0.19 -0.17,-0.34 -0.33,-0.5 -0.16,-0.16 -0.32,-0.25 -0.5,-0.33 -0.18,-0.07 -0.39,-0.12 -0.69,-0.13 -0.3,-0.01 -0.4,-0.02 -1.17,-0.02zm0 1.38c-0.8,0 -1.46,0.65 -1.46,1.46 0,0.8 0.65,1.46 1.46,1.46 0.8,0 1.46,-0.65 1.46,-1.46 0,-0.8 -0.65,-1.46 -1.46,-1.46zm0 2.4c-0.52,0 -0.95,-0.42 -0.95,-0.95 0,-0.52 0.42,-0.95 0.95,-0.95 0.52,0 0.95,0.42 0.95,0.95 0,0.52 -0.42,0.95 -0.95,0.95zm1.86 -2.46c0,0.19 -0.15,0.34 -0.34,0.34 -0.19,0 -0.34,-0.15 -0.34,-0.34 0,-0.19 0.15,-0.34 0.34,-0.34 0.19,0 0.34,0.15 0.34,0.34z"/>
   </g>
  </g>
 </g>
</svg>
