<svg xmlns="http://www.w3.org/2000/svg" width="11.86" height="15.034" viewBox="0 0 28.41 36.02" shape-rendering="geometricPrecision" text-rendering="geometricPrecision" image-rendering="optimizeQuality" fill-rule="evenodd" clip-rule="evenodd"><defs><style>.fil0{fill:#767676;fill-rule:nonzero}</style></defs><g id="Layer_x0020_1"><path class="fil0" d="M14.41 24.24l-.27.32-7.32-6.23a.441.441 0 01-.15-.32c0-.12.05-.24.15-.32l7.32-6.23c.12-.11.3-.13.44-.06.15.07.24.22.24.38v2.57h13.17c.11 0 .22.04.29.12.08.08.12.19.12.3v6.5c0 .11-.04.22-.12.29a.4.4 0 01-.29.12H14.82v2.57a.413.413 0 01-.68.32l.27-.32h-.42v-2.99c0-.11.04-.22.12-.29a.4.4 0 01.29-.12h13.17v-5.67H14.4c-.11 0-.22-.04-.29-.12a.4.4 0 01-.12-.29v-2.08l-6.26 5.33 6.95 5.92-.27.32h-.42.42z"/><path d="M21.57 1.59v9.42c0 .44.35.79.79.79.44 0 .79-.35.79-.79V.8c0-.21-.08-.42-.24-.57a.787.787 0 00-.56-.23H.78a.83.83 0 00-.56.23C.07.38-.01.58-.01.79v34.43a.787.787 0 00.79.79h21.57a.787.787 0 00.79-.79V24.44c0-.44-.36-.79-.79-.79-.44 0-.79.36-.79.79v9.99H1.58V1.59h19.98z" fill="#767676"/><path class="fil0" d="M18.7 23.99v7.13H4.45V4.91H18.7v6.6c0 .24.2.44.44.44s.44-.2.44-.44V4.48c0-.11-.05-.23-.13-.31a.439.439 0 00-.31-.13H4.02c-.11 0-.23.05-.31.13-.08.08-.13.19-.13.31v27.08c0 .11.05.23.13.31.08.08.19.13.31.13h15.12c.11 0 .23-.05.31-.13.08-.08.13-.19.13-.31V24c0-.24-.2-.44-.44-.44s-.44.19-.44.44z"/><path class="fil0" d="M16.06 24.05v7.47c0 .25.2.44.44.44.25 0 .44-.2.44-.44v-7.47c0-.25-.2-.44-.44-.44-.25 0-.44.2-.44.44zM3.91 4.9l12.15 3.05v4.14c0 .25.2.44.44.44.25 0 .44-.2.44-.44V7.61c0-.2-.14-.38-.34-.43L4.11 4.04a.441.441 0 00-.54.32c-.06.24.08.48.32.54z"/></g></svg>