<?xml version="1.0" encoding="UTF-8"?>
<!DOCTYPE svg PUBLIC "-//W3C//DTD SVG 1.1//EN" "http://www.w3.org/Graphics/SVG/1.1/DTD/svg11.dtd">
<!-- Creator: CorelDRAW 2018 (64-Bit) -->
<svg xmlns="http://www.w3.org/2000/svg" xml:space="preserve" width="3.1379mm" height="3.9777mm" version="1.1" style="shape-rendering:geometricPrecision; text-rendering:geometricPrecision; image-rendering:optimizeQuality; fill-rule:evenodd; clip-rule:evenodd"
viewBox="0 0 28.41 36.02"
 xmlns:xlink="http://www.w3.org/1999/xlink">
 <defs>
  <style type="text/css">
   <![CDATA[
    .fil1 {fill:#767676}
    .fil0 {fill:#767676;fill-rule:nonzero}
   ]]>
  </style>
 </defs>
 <g id="Layer_x0020_1">
  <metadata id="CorelCorpID_0Corel-Layer"/>
  <path class="fil0" d="M14.41 24.24l-0.27 0.32 -7.32 -6.23c-0.09,-0.08 -0.15,-0.2 -0.15,-0.32 0,-0.12 0.05,-0.24 0.15,-0.32l7.32 -6.23c0.12,-0.11 0.3,-0.13 0.44,-0.06 0.15,0.07 0.24,0.22 0.24,0.38l0 2.57 13.17 0c0.11,0 0.22,0.04 0.29,0.12 0.08,0.08 0.12,0.19 0.12,0.3l0 6.5c0,0.11 -0.04,0.22 -0.12,0.29 -0.08,0.08 -0.18,0.12 -0.29,0.12l-13.17 0 0 2.57c0,0.16 -0.09,0.31 -0.24,0.38 -0.15,0.07 -0.32,0.04 -0.44,-0.06l0.27 -0.32 -0.42 0 0 -2.99c0,-0.11 0.04,-0.22 0.12,-0.29 0.08,-0.08 0.18,-0.12 0.29,-0.12l13.17 0 0 -5.67 -13.17 0c-0.11,0 -0.22,-0.04 -0.29,-0.12 -0.08,-0.08 -0.12,-0.18 -0.12,-0.29l0 -2.08 -6.26 5.33 6.95 5.92 -0.27 0.32 -0.42 0 0.42 0z"/>
  <path class="fil1" d="M21.57 1.59l0 9.42c0,0.44 0.35,0.79 0.79,0.79 0.44,0 0.79,-0.35 0.79,-0.79l0 -10.21c0,-0.21 -0.08,-0.42 -0.24,-0.57 -0.15,-0.15 -0.35,-0.23 -0.56,-0.23l-21.57 0c-0.21,0 -0.41,0.09 -0.56,0.23 -0.15,0.15 -0.23,0.35 -0.23,0.56l0 34.43c0,0.21 0.08,0.41 0.23,0.56 0.15,0.15 0.35,0.23 0.56,0.23l21.57 0c0.21,0 0.41,-0.08 0.56,-0.23 0.15,-0.15 0.23,-0.35 0.23,-0.56l0 -10.78c0,-0.44 -0.36,-0.79 -0.79,-0.79 -0.44,0 -0.79,0.36 -0.79,0.79l0 9.99 -19.98 0 0 -32.84 19.98 0z"/>
  <path class="fil0" d="M18.7 23.99l0 7.13 -14.25 0 0 -26.21 14.25 0 0 6.6c0,0.24 0.2,0.44 0.44,0.44 0.24,0 0.44,-0.2 0.44,-0.44l0 -7.03c0,-0.11 -0.05,-0.23 -0.13,-0.31 -0.08,-0.08 -0.19,-0.13 -0.31,-0.13l-15.12 0c-0.11,0 -0.23,0.05 -0.31,0.13 -0.08,0.08 -0.13,0.19 -0.13,0.31l0 27.08c0,0.11 0.05,0.23 0.13,0.31 0.08,0.08 0.19,0.13 0.31,0.13l15.12 0c0.11,0 0.23,-0.05 0.31,-0.13 0.08,-0.08 0.13,-0.19 0.13,-0.31l0 -7.56c0,-0.24 -0.2,-0.44 -0.44,-0.44 -0.24,0 -0.44,0.19 -0.44,0.44z"/>
  <path class="fil0" d="M16.06 24.05l0 7.47c0,0.25 0.2,0.44 0.44,0.44 0.25,0 0.44,-0.2 0.44,-0.44l0 -7.47c0,-0.25 -0.2,-0.44 -0.44,-0.44 -0.25,0 -0.44,0.2 -0.44,0.44z"/>
  <path class="fil0" d="M3.91 4.9l12.15 3.05 0 4.14c0,0.25 0.2,0.44 0.44,0.44 0.25,0 0.44,-0.2 0.44,-0.44l0 -4.48c0,-0.2 -0.14,-0.38 -0.34,-0.43l-12.49 -3.14c-0.24,-0.06 -0.48,0.08 -0.54,0.32 -0.06,0.24 0.08,0.48 0.32,0.54z"/>
 </g>
</svg>
