<svg xmlns="http://www.w3.org/2000/svg" width="6.91" height="6.911" viewBox="0 0 2.32 2.32" shape-rendering="geometricPrecision" text-rendering="geometricPrecision" image-rendering="optimizeQuality" fill-rule="evenodd" clip-rule="evenodd"><path d="M1.16 0a1.16 1.16 0 10.002 2.322A1.16 1.16 0 001.16 0zM.85 2.17c-.27-.08-.5-.28-.63-.53l-.01-.01h.37v.01c.03.11.07.21.12.31.04.08.09.15.16.21l.03.02-.03-.01zm.81-.65h-.44V.8h.45v.01c.02.11.03.23.03.34 0 .12-.01.24-.03.36v.01zm-.19.64c.06-.06.11-.13.16-.21.05-.1.09-.2.12-.31v-.01h.37l-.01.01c-.13.26-.36.45-.63.53l-.03.01.03-.02zM.58.7H.22L.23.69C.35.45.57.26.83.17L.86.16.84.18C.79.23.75.3.72.36.66.47.62.58.6.69V.7zm.53 0H.68V.69c.05-.2.18-.51.41-.56h.01v.58zm0 .82H.67v-.01c-.02-.12-.03-.24-.03-.36 0-.11.01-.23.03-.34V.8h.45v.72zm-.01.66c-.22-.05-.35-.34-.41-.54v-.01h.42v.56H1.1zm.12 0v-.56h.42v.01c-.05.2-.19.49-.41.54h-.01zM1.51.16c.26.09.47.28.6.52l.01.01h-.36V.68C1.73.56 1.69.45 1.64.35 1.61.29 1.56.22 1.52.17L1.5.15l.03.01zm.65 1.36h-.39v-.01c.02-.12.03-.24.03-.36 0-.11-.01-.23-.03-.34V.8h.38v.01a1.03 1.03 0 010 .7v.01zM.17 1.51a1.03 1.03 0 010-.7V.8h.38v.01c-.02.11-.03.23-.03.34 0 .12.01.24.03.36v.01H.16v-.01zM1.64.69h-.43V.11h.01c.23.05.36.36.41.56v.01z" fill="#767676"/></svg>