<svg xmlns="http://www.w3.org/2000/svg" width="11.76" height="10.35" viewBox="0 0 10.04 8.84" shape-rendering="geometricPrecision" text-rendering="geometricPrecision" image-rendering="optimizeQuality" fill-rule="evenodd" clip-rule="evenodd"><path d="M7.52 2.99c.18 0 .32-.14.32-.32s-.14-.32-.32-.32-.32.14-.32.32.14.32.32.32zm-5.01 0c.18 0 .32-.14.32-.32s-.14-.32-.32-.32-.32.14-.32.32.14.32.32.32zm2.51 1.24c.31 0 .6-.17.8-.45.21-.28.35-.68.35-1.12 0-.44-.13-.83-.35-1.12-.21-.28-.49-.45-.8-.45-.31 0-.6.17-.8.45-.21.28-.35.68-.35 1.12 0 .44.13.83.35 1.12.21.28.49.45.8.45zm.97-.32c-.25.33-.59.53-.97.53s-.72-.2-.97-.53c-.24-.32-.39-.76-.39-1.24s.15-.92.39-1.24c.25-.33.59-.53.97-.53s.72.2.97.53c.24.32.39.76.39 1.24s-.15.92-.39 1.24zm2.38 1.18c0 .01 0 .02-.01.04h1.47V3.6c-.4.01-.76.17-1.03.44s-.44.64-.44 1.06zm-.21.04c0-.01-.01-.02-.01-.04a1.708 1.708 0 011.68-1.71V1.95A1.708 1.708 0 018.15.24c0-.01 0-.02.01-.04H1.88c0 .01.01.02.01.04A1.708 1.708 0 01.21 1.95v1.43a1.708 1.708 0 011.68 1.71c0 .01 0 .02-.01.04h6.28zm-7.96 0h1.47c0-.01-.01-.02-.01-.04a1.505 1.505 0 00-1.47-1.5v1.53zm9.63-3.39V.21H8.36c0 .01.01.02.01.04a1.505 1.505 0 001.47 1.5zM1.67.21H.2v1.53c.4-.01.76-.17 1.03-.44s.44-.64.44-1.06c0-.01 0-.02.01-.04zm8.26 5.13H.09a.1.1 0 01-.1-.1V.11c0-.06.05-.1.1-.1h9.84c.06 0 .1.05.1.1v5.13a.1.1 0 01-.1.1zM.13 6.53a.1.1 0 010-.2H9.9a.1.1 0 010 .2H.13zm0 2.31a.1.1 0 010-.2H9.9a.1.1 0 010 .2H.13zm0-1.15a.1.1 0 010-.2H9.9a.1.1 0 010 .2H.13z" fill="#cd0017"/></svg>