<svg xmlns="http://www.w3.org/2000/svg" width="11.76" height="8.999" viewBox="0 0 311.16 238.1" shape-rendering="geometricPrecision" text-rendering="geometricPrecision" image-rendering="optimizeQuality" fill-rule="evenodd" clip-rule="evenodd"><path d="M233.11 92.69c5.53 0 10.03-4.49 10.03-10.03 0-5.53-4.5-10.02-10.03-10.02-5.54 0-10.03 4.49-10.03 10.02 0 5.54 4.49 10.03 10.03 10.03zm-155.22 0c5.54 0 10.03-4.49 10.03-10.03 0-5.53-4.49-10.02-10.03-10.02-5.53 0-10.02 4.49-10.02 10.02 0 5.54 4.49 10.03 10.02 10.03zm77.69 38.47c9.65 0 18.45-5.3 24.87-13.85 6.6-8.81 10.7-21.06 10.7-34.65 0-13.58-4.09-25.82-10.7-34.64-6.42-8.56-15.23-13.86-24.87-13.86-9.65 0-18.45 5.3-24.87 13.85C124.1 56.83 120 69.08 120 82.66c0 13.59 4.1 25.84 10.7 34.65 6.42 8.55 15.22 13.85 24.88 13.85zm29.98-10.01c-7.61 10.15-18.22 16.44-29.98 16.44-11.77 0-22.38-6.29-29.99-16.44-7.42-9.9-12.02-23.51-12.02-38.49 0-14.97 4.6-28.59 12.02-38.49 7.62-10.14 18.22-16.43 29.99-16.43 11.76 0 22.37 6.29 29.98 16.44 7.42 9.89 12.02 23.51 12.02 38.48 0 14.98-4.6 28.59-12.02 38.49zm73.79 36.65c0 .39-.08.77-.2 1.12h45.58v-47.37c-12.42.24-23.66 5.37-31.83 13.54-8.37 8.36-13.55 19.93-13.55 32.71zm-6.47 1.12c-.13-.35-.2-.73-.2-1.12 0-14.6 5.94-27.84 15.51-37.42 9.38-9.38 22.28-15.26 36.54-15.49V60.44c-14.26-.24-27.16-6.11-36.54-15.49-9.57-9.58-15.51-22.83-15.51-37.43 0-.38.07-.75.19-1.09H58.28c.12.34.19.71.19 1.09 0 14.62-5.93 27.86-15.51 37.43-9.38 9.38-22.27 15.25-36.54 15.49v44.45c14.27.23 27.16 6.11 36.54 15.49 9.58 9.57 15.51 22.81 15.51 37.42 0 .39-.08.77-.2 1.12h194.61zm-246.46 0h45.57c-.12-.35-.19-.73-.19-1.12 0-12.77-5.19-24.34-13.55-32.71-8.18-8.17-19.41-13.3-31.83-13.54v47.37zM304.73 53.78V6.43h-45.56c.12.34.18.71.18 1.09 0 12.79 5.18 24.36 13.54 32.71 8.18 8.18 19.42 13.31 31.84 13.55zM51.98 6.43H6.42v47.35c12.42-.24 23.65-5.37 31.83-13.55C46.61 31.87 51.8 20.3 51.8 7.52c0-.38.06-.75.18-1.09zm255.96 158.91H3.21c-1.77 0-3.21-1.43-3.21-3.21V3.21C0 1.44 1.44 0 3.21 0h304.73c1.78 0 3.22 1.44 3.22 3.21v158.92a3.21 3.21 0 01-3.22 3.21zM4.3 202.35c-1.78 0-3.21-1.44-3.21-3.21s1.43-3.21 3.21-3.21h302.55c1.77 0 3.21 1.44 3.21 3.21s-1.44 3.21-3.21 3.21H4.3zm0 35.75c-1.78 0-3.21-1.44-3.21-3.21a3.2 3.2 0 013.21-3.21h302.55c1.77 0 3.21 1.43 3.21 3.21 0 1.77-1.44 3.21-3.21 3.21H4.3z" fill="#cd0017"/></svg>