<?xml version="1.0" encoding="UTF-8"?>
<!DOCTYPE svg PUBLIC "-//W3C//DTD SVG 1.1//EN" "http://www.w3.org/Graphics/SVG/1.1/DTD/svg11.dtd">
<!-- Creator: CorelDRAW 2018 (64-Bit) -->
<svg xmlns="http://www.w3.org/2000/svg" xml:space="preserve" width="3.1116mm" height="2.7384mm" version="1.1" style="shape-rendering:geometricPrecision; text-rendering:geometricPrecision; image-rendering:optimizeQuality; fill-rule:evenodd; clip-rule:evenodd"
viewBox="0 0 10.04 8.84"
 xmlns:xlink="http://www.w3.org/1999/xlink">
 <defs>
  <style type="text/css">
   <![CDATA[
    .fil0 {fill:#CD0017}
   ]]>
  </style>
 </defs>
 <g id="Layer_x0020_1">
  <metadata id="CorelCorpID_0Corel-Layer"/>
  <path class="fil0" d="M7.52 2.99c0.18,0 0.32,-0.14 0.32,-0.32 0,-0.18 -0.14,-0.32 -0.32,-0.32 -0.18,0 -0.32,0.14 -0.32,0.32 0,0.18 0.14,0.32 0.32,0.32zm-5.01 0c0.18,0 0.32,-0.14 0.32,-0.32 0,-0.18 -0.14,-0.32 -0.32,-0.32 -0.18,0 -0.32,0.14 -0.32,0.32 0,0.18 0.14,0.32 0.32,0.32zm2.51 1.24c0.31,0 0.6,-0.17 0.8,-0.45 0.21,-0.28 0.35,-0.68 0.35,-1.12 0,-0.44 -0.13,-0.83 -0.35,-1.12 -0.21,-0.28 -0.49,-0.45 -0.8,-0.45 -0.31,0 -0.6,0.17 -0.8,0.45 -0.21,0.28 -0.35,0.68 -0.35,1.12 0,0.44 0.13,0.83 0.35,1.12 0.21,0.28 0.49,0.45 0.8,0.45zm0.97 -0.32c-0.25,0.33 -0.59,0.53 -0.97,0.53 -0.38,0 -0.72,-0.2 -0.97,-0.53 -0.24,-0.32 -0.39,-0.76 -0.39,-1.24 0,-0.48 0.15,-0.92 0.39,-1.24 0.25,-0.33 0.59,-0.53 0.97,-0.53 0.38,0 0.72,0.2 0.97,0.53 0.24,0.32 0.39,0.76 0.39,1.24 0,0.48 -0.15,0.92 -0.39,1.24zm2.38 1.18c0,0.01 -0,0.02 -0.01,0.04l1.47 0 0 -1.53c-0.4,0.01 -0.76,0.17 -1.03,0.44 -0.27,0.27 -0.44,0.64 -0.44,1.06zm-0.21 0.04c-0,-0.01 -0.01,-0.02 -0.01,-0.04 0,-0.47 0.19,-0.9 0.5,-1.21 0.3,-0.3 0.72,-0.49 1.18,-0.5l0 -1.43c-0.46,-0.01 -0.88,-0.2 -1.18,-0.5 -0.31,-0.31 -0.5,-0.74 -0.5,-1.21 0,-0.01 0,-0.02 0.01,-0.04l-6.28 0c0,0.01 0.01,0.02 0.01,0.04 0,0.47 -0.19,0.9 -0.5,1.21 -0.3,0.3 -0.72,0.49 -1.18,0.5l0 1.43c0.46,0.01 0.88,0.2 1.18,0.5 0.31,0.31 0.5,0.74 0.5,1.21 0,0.01 -0,0.02 -0.01,0.04l6.28 0zm-7.96 0l1.47 0c-0,-0.01 -0.01,-0.02 -0.01,-0.04 0,-0.41 -0.17,-0.79 -0.44,-1.06 -0.26,-0.26 -0.63,-0.43 -1.03,-0.44l0 1.53zm9.63 -3.39l0 -1.53 -1.47 0c0,0.01 0.01,0.02 0.01,0.04 0,0.41 0.17,0.79 0.44,1.06 0.26,0.26 0.63,0.43 1.03,0.44zm-8.16 -1.53l-1.47 0 0 1.53c0.4,-0.01 0.76,-0.17 1.03,-0.44 0.27,-0.27 0.44,-0.64 0.44,-1.06 0,-0.01 0,-0.02 0.01,-0.04zm8.26 5.13l-9.84 0c-0.06,0 -0.1,-0.05 -0.1,-0.1l0 -5.13c0,-0.06 0.05,-0.1 0.1,-0.1l9.84 0c0.06,0 0.1,0.05 0.1,0.1l0 5.13c0,0.06 -0.05,0.1 -0.1,0.1zm-9.8 1.19c-0.06,0 -0.1,-0.05 -0.1,-0.1 0,-0.06 0.05,-0.1 0.1,-0.1l9.77 0c0.06,0 0.1,0.05 0.1,0.1 0,0.06 -0.05,0.1 -0.1,0.1l-9.77 0zm0 2.31c-0.06,0 -0.1,-0.05 -0.1,-0.1 0,-0.06 0.05,-0.1 0.1,-0.1l9.77 0c0.06,0 0.1,0.05 0.1,0.1 0,0.06 -0.05,0.1 -0.1,0.1l-9.77 0zm0 -1.15c-0.06,0 -0.1,-0.05 -0.1,-0.1 0,-0.06 0.05,-0.1 0.1,-0.1l9.77 0c0.06,0 0.1,0.05 0.1,0.1 0,0.06 -0.05,0.1 -0.1,0.1l-9.77 0z"/>
 </g>
</svg>
