<?xml version="1.0" encoding="UTF-8"?>
<!DOCTYPE svg PUBLIC "-//W3C//DTD SVG 1.1//EN" "http://www.w3.org/Graphics/SVG/1.1/DTD/svg11.dtd">
<!-- Creator: CorelDRAW 2018 (64-Bit) -->
<svg xmlns="http://www.w3.org/2000/svg" xml:space="preserve" width="3.1116mm" height="2.381mm" version="1.1" style="shape-rendering:geometricPrecision; text-rendering:geometricPrecision; image-rendering:optimizeQuality; fill-rule:evenodd; clip-rule:evenodd"
viewBox="0 0 311.16 238.1"
 xmlns:xlink="http://www.w3.org/1999/xlink">
 <defs>
  <style type="text/css">
   <![CDATA[
    .fil0 {fill:#CD0017}
   ]]>
  </style>
 </defs>
 <g id="Layer_x0020_1">
  <metadata id="CorelCorpID_0Corel-Layer"/>
  <path class="fil0" d="M233.11 92.69c5.53,0 10.03,-4.49 10.03,-10.03 0,-5.53 -4.5,-10.02 -10.03,-10.02 -5.54,0 -10.03,4.49 -10.03,10.02 0,5.54 4.49,10.03 10.03,10.03zm-155.22 0c5.54,0 10.03,-4.49 10.03,-10.03 0,-5.53 -4.49,-10.02 -10.03,-10.02 -5.53,0 -10.02,4.49 -10.02,10.02 0,5.54 4.49,10.03 10.02,10.03zm77.69 38.47c9.65,0 18.45,-5.3 24.87,-13.85 6.6,-8.81 10.7,-21.06 10.7,-34.65 0,-13.58 -4.09,-25.82 -10.7,-34.64 -6.42,-8.56 -15.23,-13.86 -24.87,-13.86 -9.65,0 -18.45,5.3 -24.87,13.85 -6.61,8.82 -10.71,21.07 -10.71,34.65 0,13.59 4.1,25.84 10.7,34.65 6.42,8.55 15.22,13.85 24.88,13.85zm29.98 -10.01c-7.61,10.15 -18.22,16.44 -29.98,16.44 -11.77,0 -22.38,-6.29 -29.99,-16.44 -7.42,-9.9 -12.02,-23.51 -12.02,-38.49 0,-14.97 4.6,-28.59 12.02,-38.49 7.62,-10.14 18.22,-16.43 29.99,-16.43 11.76,0 22.37,6.29 29.98,16.44 7.42,9.89 12.02,23.51 12.02,38.48 0,14.98 -4.6,28.59 -12.02,38.49zm73.79 36.65c0,0.39 -0.08,0.77 -0.2,1.12l45.58 0 0 -47.37c-12.42,0.24 -23.66,5.37 -31.83,13.54 -8.37,8.36 -13.55,19.93 -13.55,32.71zm-6.47 1.12c-0.13,-0.35 -0.2,-0.73 -0.2,-1.12 0,-14.6 5.94,-27.84 15.51,-37.42 9.38,-9.38 22.28,-15.26 36.54,-15.49l0 -44.45c-14.26,-0.24 -27.16,-6.11 -36.54,-15.49 -9.57,-9.58 -15.51,-22.83 -15.51,-37.43 0,-0.38 0.07,-0.75 0.19,-1.09l-194.59 0c0.12,0.34 0.19,0.71 0.19,1.09 0,14.62 -5.93,27.86 -15.51,37.43 -9.38,9.38 -22.27,15.25 -36.54,15.49l0 44.45c14.27,0.23 27.16,6.11 36.54,15.49 9.58,9.57 15.51,22.81 15.51,37.42 0,0.39 -0.08,0.77 -0.2,1.12l194.61 0zm-246.46 0l45.57 0c-0.12,-0.35 -0.19,-0.73 -0.19,-1.12 0,-12.77 -5.19,-24.34 -13.55,-32.71 -8.18,-8.17 -19.41,-13.3 -31.83,-13.54l0 47.37zm298.31 -105.14l0 -47.35 -45.56 0c0.12,0.34 0.18,0.71 0.18,1.09 0,12.79 5.18,24.36 13.54,32.71 8.18,8.18 19.42,13.31 31.84,13.55zm-252.75 -47.35l-45.56 0 0 47.35c12.42,-0.24 23.65,-5.37 31.83,-13.55 8.36,-8.36 13.55,-19.93 13.55,-32.71 0,-0.38 0.06,-0.75 0.18,-1.09zm255.96 158.91l-304.73 0c-1.77,0 -3.21,-1.43 -3.21,-3.21l0 -158.92c0,-1.77 1.44,-3.21 3.21,-3.21l304.73 0c1.78,0 3.22,1.44 3.22,3.21l0 158.92c0,1.78 -1.44,3.21 -3.22,3.21zm-303.64 37.01c-1.78,0 -3.21,-1.44 -3.21,-3.21 0,-1.77 1.43,-3.21 3.21,-3.21l302.55 0c1.77,0 3.21,1.44 3.21,3.21 0,1.77 -1.44,3.21 -3.21,3.21l-302.55 0zm0 35.75c-1.78,0 -3.21,-1.44 -3.21,-3.21 0,-1.78 1.43,-3.21 3.21,-3.21l302.55 0c1.77,0 3.21,1.43 3.21,3.21 0,1.77 -1.44,3.21 -3.21,3.21l-302.55 0z"/>
 </g>
</svg>
