<?xml version="1.0" encoding="UTF-8"?>
<!DOCTYPE svg PUBLIC "-//W3C//DTD SVG 1.1//EN" "http://www.w3.org/Graphics/SVG/1.1/DTD/svg11.dtd">
<!-- Creator: CorelDRAW 2018 (64-Bit) -->
<svg xmlns="http://www.w3.org/2000/svg" xml:space="preserve" width="3.1116mm" height="2.0235mm" version="1.1" style="shape-rendering:geometricPrecision; text-rendering:geometricPrecision; image-rendering:optimizeQuality; fill-rule:evenodd; clip-rule:evenodd"
viewBox="0 0 8.27 5.38"
 xmlns:xlink="http://www.w3.org/1999/xlink">
 <defs>
  <style type="text/css">
   <![CDATA[
    .fil0 {fill:#CD0017}
   ]]>
  </style>
 </defs>
 <g id="Layer_x0020_1">
  <metadata id="CorelCorpID_0Corel-Layer"/>
  <path class="fil0" d="M6.19 2.46c0.15,0 0.27,-0.12 0.27,-0.27 0,-0.15 -0.12,-0.27 -0.27,-0.27 -0.15,0 -0.27,0.12 -0.27,0.27 0,0.15 0.12,0.27 0.27,0.27zm-4.12 0c0.15,0 0.27,-0.12 0.27,-0.27 0,-0.15 -0.12,-0.27 -0.27,-0.27 -0.15,0 -0.27,0.12 -0.27,0.27 0,0.15 0.12,0.27 0.27,0.27zm2.06 1.02c0.26,0 0.49,-0.14 0.66,-0.37 0.18,-0.23 0.28,-0.56 0.28,-0.92 0,-0.36 -0.11,-0.69 -0.28,-0.92 -0.17,-0.23 -0.4,-0.37 -0.66,-0.37 -0.26,0 -0.49,0.14 -0.66,0.37 -0.18,0.23 -0.28,0.56 -0.28,0.92 0,0.36 0.11,0.69 0.28,0.92 0.17,0.23 0.4,0.37 0.66,0.37zm0.8 -0.27c-0.2,0.27 -0.48,0.44 -0.8,0.44 -0.31,0 -0.59,-0.17 -0.8,-0.44 -0.2,-0.26 -0.32,-0.62 -0.32,-1.02 0,-0.4 0.12,-0.76 0.32,-1.02 0.2,-0.27 0.48,-0.44 0.8,-0.44 0.31,0 0.59,0.17 0.8,0.44 0.2,0.26 0.32,0.62 0.32,1.02 0,0.4 -0.12,0.76 -0.32,1.02zm1.96 0.97c0,0.01 -0,0.02 -0.01,0.03l1.21 0 0 -1.26c-0.33,0.01 -0.63,0.14 -0.85,0.36 -0.22,0.22 -0.36,0.53 -0.36,0.87zm-0.17 0.03c-0,-0.01 -0.01,-0.02 -0.01,-0.03 0,-0.39 0.16,-0.74 0.41,-0.99 0.25,-0.25 0.59,-0.41 0.97,-0.41l0 -1.18c-0.38,-0.01 -0.72,-0.16 -0.97,-0.41 -0.25,-0.25 -0.41,-0.61 -0.41,-0.99 0,-0.01 0,-0.02 0,-0.03l-5.17 0c0,0.01 0.01,0.02 0.01,0.03 0,0.39 -0.16,0.74 -0.41,0.99 -0.25,0.25 -0.59,0.41 -0.97,0.41l0 1.18c0.38,0.01 0.72,0.16 0.97,0.41 0.25,0.25 0.41,0.61 0.41,0.99 0,0.01 -0,0.02 -0.01,0.03l5.17 0zm-6.55 0l1.21 0c-0,-0.01 -0.01,-0.02 -0.01,-0.03 0,-0.34 -0.14,-0.65 -0.36,-0.87 -0.22,-0.22 -0.52,-0.35 -0.85,-0.36l0 1.26zm7.92 -2.79l0 -1.26 -1.21 0c0,0.01 0.01,0.02 0.01,0.03 0,0.34 0.14,0.65 0.36,0.87 0.22,0.22 0.52,0.35 0.85,0.36zm-6.71 -1.26l-1.21 0 0 1.26c0.33,-0.01 0.63,-0.14 0.85,-0.36 0.22,-0.22 0.36,-0.53 0.36,-0.87 0,-0.01 0,-0.02 0.01,-0.03zm6.8 4.22l-8.09 0c-0.05,0 -0.09,-0.04 -0.09,-0.09l0 -4.22c0,-0.05 0.04,-0.09 0.09,-0.09l8.09 0c0.05,0 0.09,0.04 0.09,0.09l0 4.22c0,0.05 -0.04,0.09 -0.09,0.09zm-8.07 0.98c-0.05,0 -0.09,-0.04 -0.09,-0.09 0,-0.18 7.39,-0.09 8.12,-0.09 0.05,0 0.09,0.04 0.09,0.09 0,0.05 -0.04,0.09 -0.09,0.09l-8.04 0z"/>
 </g>
</svg>
