<?xml version="1.0" encoding="UTF-8"?>
<!DOCTYPE svg PUBLIC "-//W3C//DTD SVG 1.1//EN" "http://www.w3.org/Graphics/SVG/1.1/DTD/svg11.dtd">
<!-- Creator: CorelDRAW 2018 (64-Bit) -->
<svg xmlns="http://www.w3.org/2000/svg" xml:space="preserve" width="3.7904mm" height="3.7902mm" version="1.1" style="shape-rendering:geometricPrecision; text-rendering:geometricPrecision; image-rendering:optimizeQuality; fill-rule:evenodd; clip-rule:evenodd"
viewBox="0 0 4.49 4.49"
 xmlns:xlink="http://www.w3.org/1999/xlink">
 <defs>
  <style type="text/css">
   <![CDATA[
    .fil1 {fill:#CD0017}
    .fil0 {fill:#CD0017;fill-rule:nonzero}
   ]]>
  </style>
 </defs>
 <g id="Layer_x0020_1">
  <metadata id="CorelCorpID_0Corel-Layer"/>
  <path class="fil0" d="M2.69 0.51l-0.04 0.04c0.29,0.29 0.43,0.67 0.43,1.04 -0,0.38 -0.14,0.76 -0.43,1.05 -0.29,0.29 -0.67,0.43 -1.04,0.43 -0.38,0 -0.76,-0.14 -1.05,-0.43 -0.29,-0.29 -0.43,-0.67 -0.43,-1.05 0,-0.38 0.14,-0.76 0.43,-1.04 0.29,-0.29 0.67,-0.43 1.05,-0.43 0.38,0 0.76,0.14 1.04,0.43l0.04 -0.04 0.04 -0.04c-0.31,-0.31 -0.72,-0.47 -1.13,-0.47 -0.41,0 -0.82,0.16 -1.13,0.47 -0.31,0.31 -0.47,0.72 -0.47,1.13 -0,0.41 0.16,0.82 0.47,1.13 0.31,0.31 0.72,0.47 1.13,0.47 0.41,0 0.82,-0.16 1.13,-0.47 0.31,-0.31 0.47,-0.72 0.47,-1.13 0,-0.41 -0.16,-0.82 -0.47,-1.13l-0.04 0.04z"/>
  <path class="fil0" d="M2.48 2.9l0.49 0.49c0.01,0.01 0.03,0.02 0.04,0.02 0.02,0 0.03,-0.01 0.04,-0.02l0.33 -0.33c0.01,-0.01 0.02,-0.03 0.02,-0.04 0,-0.02 -0.01,-0.03 -0.02,-0.04l-0.49 -0.49c-0.02,-0.02 -0.06,-0.02 -0.09,0 -0.02,0.02 -0.02,0.06 0,0.09l0.45 0.45 -0.24 0.24 -0.45 -0.45c-0.02,-0.02 -0.06,-0.02 -0.09,0 -0.02,0.02 -0.02,0.06 0,0.09z"/>
  <path class="fil0" d="M4.43 3.9l0.04 -0.04 -0.99 -0.99c-0.01,-0.01 -0.03,-0.02 -0.04,-0.02 -0.02,0 -0.03,0.01 -0.04,0.02l-0.53 0.53c-0.02,0.02 -0.02,0.06 0,0.09l0.99 0.99c0.01,0.01 0.03,0.02 0.04,0.02 0.02,0 0.03,-0.01 0.04,-0.02l0.53 -0.53c0.01,-0.01 0.02,-0.03 0.02,-0.04 0,-0.02 -0.01,-0.03 -0.02,-0.04l-0.04 0.04 -0.04 -0.04 -0.49 0.49 -0.9 -0.9 0.44 -0.44 0.94 0.94 0.04 -0.04 -0.04 -0.04 0.04 0.04z"/>
  <polygon class="fil1" points="0.98,1.41 1.42,1.41 1.42,0.96 1.78,0.96 1.78,1.41 2.22,1.41 2.22,1.77 1.78,1.77 1.78,2.21 1.42,2.21 1.42,1.77 0.98,1.77 "/>
  <path class="fil0" d="M2.54 0.66l-0.04 0.04c0.25,0.25 0.37,0.57 0.37,0.9 0,0.33 -0.12,0.65 -0.37,0.9 -0.25,0.25 -0.57,0.37 -0.9,0.37 -0.33,0 -0.65,-0.12 -0.9,-0.37 -0.25,-0.25 -0.37,-0.57 -0.37,-0.9 0,-0.33 0.12,-0.65 0.37,-0.9 0.25,-0.25 0.57,-0.37 0.9,-0.37 0.33,0 0.65,0.12 0.9,0.37l0.04 -0.04 0.04 -0.04c-0.27,-0.27 -0.62,-0.4 -0.97,-0.4 -0.35,0 -0.7,0.13 -0.97,0.4 -0.27,0.27 -0.4,0.62 -0.4,0.97 -0,0.35 0.13,0.7 0.4,0.97 0.27,0.27 0.62,0.4 0.97,0.4 0.35,0 0.7,-0.13 0.97,-0.4 0.27,-0.27 0.4,-0.62 0.4,-0.97 0,-0.35 -0.13,-0.7 -0.4,-0.97l-0.04 0.04z"/>
 </g>
</svg>
