<svg xmlns="http://www.w3.org/2000/svg" width="14.326" height="14.325" viewBox="0 0 4.5 4.49" shape-rendering="geometricPrecision" text-rendering="geometricPrecision" image-rendering="optimizeQuality" fill-rule="evenodd" clip-rule="evenodd"><defs><style>.fil0{fill:#fefefe;fill-rule:nonzero}</style></defs><g id="Layer_x0020_1"><path class="fil0" d="M2.69.51l-.04.04c.29.29.43.67.43 1.04 0 .38-.14.76-.43 1.05-.29.29-.67.43-1.05.43S.84 2.93.55 2.64C.26 2.35.12 1.97.12 1.59S.26.83.55.55C.84.26 1.22.12 1.6.12s.76.14 1.05.43l.04-.04.04-.04C2.42.16 2.01 0 1.6 0 1.19 0 .78.16.47.47.16.78 0 1.19 0 1.6c0 .41.16.82.47 1.13.31.31.72.47 1.13.47.41 0 .82-.16 1.13-.47.31-.31.47-.72.47-1.13 0-.41-.16-.82-.47-1.13l-.04.04z"/><path class="fil0" d="M2.48 2.9l.49.49c.01.01.03.02.04.02.02 0 .03-.01.04-.02l.33-.33c.01-.01.02-.03.02-.04 0-.02-.01-.03-.02-.04l-.49-.49c-.02-.02-.06-.02-.09 0-.02.02-.02.06 0 .09l.45.45-.24.24-.45-.45c-.02-.02-.06-.02-.09 0-.02.02-.02.06 0 .09z"/><path class="fil0" d="M4.43 3.9l.04-.04-.99-.99a.076.076 0 00-.04-.02c-.02 0-.03.01-.04.02l-.53.53c-.02.02-.02.06 0 .09l.99.99c.01.01.03.02.04.02.02 0 .03-.01.04-.02l.53-.53c.01-.01.02-.03.02-.04 0-.02-.01-.03-.02-.04l-.04.04-.04-.04-.49.49-.9-.9.44-.44.94.94.04-.04-.04-.04.04.04z"/><path d="M.98 1.41h1.25v.36H.98v-.36z" fill="#fefefe"/><path class="fil0" d="M2.54.66L2.5.7c.25.25.37.57.37.9 0 .33-.12.65-.37.9s-.57.37-.9.37c-.33 0-.65-.12-.9-.37s-.37-.57-.37-.9c0-.33.12-.65.37-.9s.57-.37.9-.37c.33 0 .65.12.9.37l.04-.04.04-.04c-.27-.27-.62-.4-.97-.4A1.362 1.362 0 00.24 1.59a1.362 1.362 0 001.37 1.37 1.362 1.362 0 001.37-1.37c0-.35-.13-.7-.4-.97l-.04.04z"/></g></svg>