<svg xmlns="http://www.w3.org/2000/svg" width="5.124" height="6.741" viewBox="0 0 2.82 3.71" shape-rendering="geometricPrecision" text-rendering="geometricPrecision" image-rendering="optimizeQuality" fill-rule="evenodd" clip-rule="evenodd"><defs><style>.fil0{fill:#cd0017;fill-rule:nonzero}</style></defs><g id="Layer_x0020_1"><g id="_2072082992"><path class="fil0" d="M1.82 2.19c-.02-.01-.03-.01-.05 0l-.42.2-.02-.01c-.09-.06-.26-.18-.37-.4-.01-.01-.01-.03-.02-.04-.01-.01-.01-.03-.02-.04-.11-.22-.12-.42-.11-.52v-.02l.02-.02.4-.19c.02-.01.03-.02.03-.04.07-.36.04-.63-.12-.98C1.13.11 1.12.1 1.1.1.88.04.65.01.42.01.34.01.25.01.16.02.14.02.12.03.11.05c-.23.54-.14 1.34.24 2.07.01.02.03.05.04.07.01.03.03.05.04.08.35.69.92 1.23 1.48 1.41l.09.03c.02.01.04 0 .06-.02.22-.23.39-.49.51-.77.01-.02.01-.03 0-.05-.2-.33-.41-.52-.74-.69zm.62.73c-.11.24-.25.45-.42.64L2 3.58l-.05-.02C1.41 3.39.89 2.88.54 2.21.53 2.19.52 2.16.5 2.13c-.01-.02-.03-.05-.04-.07C.11 1.38.01.65.2.14L.21.11h.03c.27-.02.53 0 .78.07h.02l.01.02-.03.02.03-.01c.12.29.15.53.1.82v.02l-.02.01-.4.19c-.02.01-.03.02-.03.04 0 .01-.06.31.11.65.01.01.01.03.02.04.01.02.01.03.02.04.17.34.46.47.47.48.02.01.03.01.05 0l.42-.2.02.01c.28.15.46.31.63.58l.01.01v.02z"/><path class="fil0" d="M1.94 1.54c.04.08.05.17.04.26h.11c.01-.1-.01-.21-.05-.31a.643.643 0 00-.26-.28l-.07.09c.11.05.19.13.24.24zm.75-.31C2.58 1 2.41.8 2.2.65l-.07.08c.2.13.36.32.46.54.08.19.12.38.12.58h.11c.01-.21-.03-.42-.13-.62zm-.43.19c.06.13.09.28.08.43h.11a.964.964 0 00-.09-.47c-.08-.18-.22-.33-.39-.44l-.07.08c.16.1.28.23.35.4z"/></g></g></svg>