<?xml version="1.0" encoding="UTF-8"?>
<!DOCTYPE svg PUBLIC "-//W3C//DTD SVG 1.1//EN" "http://www.w3.org/Graphics/SVG/1.1/DTD/svg11.dtd">
<!-- Creator: CorelDRAW 2018 (64-Bit) -->
<svg xmlns="http://www.w3.org/2000/svg" xml:space="preserve" width="1.3557mm" height="1.7836mm" version="1.1" style="shape-rendering:geometricPrecision; text-rendering:geometricPrecision; image-rendering:optimizeQuality; fill-rule:evenodd; clip-rule:evenodd"
viewBox="0 0 2.41 3.17"
 xmlns:xlink="http://www.w3.org/1999/xlink">
 <defs>
  <style type="text/css">
   <![CDATA[
    .fil0 {fill:#767676;fill-rule:nonzero}
   ]]>
  </style>
 </defs>
 <g id="Layer_x0020_1">
  <metadata id="CorelCorpID_0Corel-Layer"/>
  <g id="_2877087952">
   <path class="fil0" d="M1.56 1.87l0 0c-0.01,-0.01 -0.03,-0.01 -0.04,-0l-0.36 0.17 -0.01 -0.01c-0.08,-0.05 -0.22,-0.16 -0.32,-0.35 -0.01,-0.01 -0.01,-0.02 -0.02,-0.03 -0.01,-0.01 -0.01,-0.02 -0.02,-0.03 -0.1,-0.19 -0.1,-0.36 -0.09,-0.45l0 -0.02 0.02 -0.01 0.34 -0.16c0.01,-0.01 0.02,-0.02 0.03,-0.03 0.06,-0.31 0.03,-0.54 -0.1,-0.84 -0.01,-0.01 -0.02,-0.02 -0.03,-0.03 -0.19,-0.05 -0.39,-0.08 -0.58,-0.08 -0.07,0 -0.15,0 -0.22,0.01 -0.02,0 -0.03,0.01 -0.04,0.03 -0.2,0.46 -0.12,1.14 0.2,1.77 0.01,0.02 0.02,0.04 0.03,0.06 0.01,0.02 0.02,0.04 0.03,0.07 0.3,0.59 0.79,1.05 1.26,1.21 0.03,0.01 0.05,0.02 0.08,0.02 0.02,0 0.04,-0 0.05,-0.01 0.19,-0.19 0.33,-0.42 0.43,-0.66 0.01,-0.01 0,-0.03 -0,-0.04 -0.17,-0.28 -0.35,-0.45 -0.64,-0.59zm0.53 0.63l0 0c-0.09,0.2 -0.21,0.39 -0.36,0.55l-0.02 0.02 -0.05 -0.01c-0.46,-0.15 -0.91,-0.58 -1.21,-1.16 -0.01,-0.02 -0.02,-0.04 -0.03,-0.06 -0.01,-0.02 -0.02,-0.04 -0.03,-0.06 -0.3,-0.58 -0.38,-1.21 -0.22,-1.64l0.01 -0.03 0.03 -0c0.23,-0.02 0.45,0 0.67,0.06l0.02 0 0.01 0.02 -0.03 0.02 0.03 -0.01c0.1,0.25 0.13,0.45 0.08,0.7l-0 0.01 -0.01 0.01 -0.34 0.16c-0.01,0.01 -0.02,0.02 -0.03,0.03 -0,0.01 -0.05,0.27 0.09,0.55 0.01,0.01 0.01,0.02 0.02,0.03 0.01,0.02 0.01,0.03 0.02,0.04 0.15,0.29 0.39,0.4 0.4,0.41 0.01,0.01 0.03,0.01 0.04,-0l0.36 -0.17 0.01 0.01c0.24,0.12 0.39,0.26 0.54,0.49l0.01 0.01 -0 0.02z"/>
   <path class="fil0" d="M1.66 1.32l0 0c0.03,0.07 0.04,0.15 0.03,0.22l0.1 -0c0.01,-0.09 -0,-0.18 -0.04,-0.26 -0.05,-0.1 -0.13,-0.19 -0.23,-0.24l-0.06 0.07c0.09,0.04 0.16,0.12 0.2,0.21z"/>
   <path class="fil0" d="M2.3 1.05c-0.09,-0.2 -0.24,-0.37 -0.42,-0.5l-0.06 0.07c0.17,0.12 0.31,0.28 0.4,0.46 0.07,0.16 0.1,0.33 0.1,0.5l0.1 -0c0.01,-0.18 -0.03,-0.36 -0.11,-0.53z"/>
   <path class="fil0" d="M1.93 1.22c0.05,0.11 0.08,0.24 0.07,0.37l0.1 -0c0.01,-0.14 -0.02,-0.28 -0.08,-0.4 -0.07,-0.15 -0.18,-0.28 -0.33,-0.38l-0.06 0.07c0.13,0.08 0.24,0.2 0.3,0.34z"/>
  </g>
 </g>
</svg>
