<svg xmlns="http://www.w3.org/2000/svg" width="5.124" height="6.741" viewBox="0 0 2.41 3.17" shape-rendering="geometricPrecision" text-rendering="geometricPrecision" image-rendering="optimizeQuality" fill-rule="evenodd" clip-rule="evenodd"><defs><style>.fil0{fill:#767676;fill-rule:nonzero}</style></defs><g id="Layer_x0020_1"><g id="_2877087952"><path class="fil0" d="M1.56 1.87a.03.03 0 00-.04 0l-.36.17-.01-.01a.924.924 0 01-.32-.35c-.01-.01-.01-.02-.02-.03C.8 1.64.8 1.63.79 1.62c-.1-.19-.1-.36-.09-.45v-.02l.02-.01.34-.16.03-.03c.06-.31.03-.54-.1-.84L.96.08C.77.03.57 0 .38 0 .31 0 .23 0 .16.01.14.01.13.02.12.04-.08.5 0 1.18.32 1.81l.03.06c.01.02.02.04.03.07.3.59.79 1.05 1.26 1.21.03.01.05.02.08.02.02 0 .04 0 .05-.01.19-.19.33-.42.43-.66.01-.01 0-.03 0-.04-.17-.28-.35-.45-.64-.59zm.53.63c-.09.2-.21.39-.36.55l-.02.02-.05-.01C1.2 2.91.75 2.48.45 1.9l-.03-.06-.03-.06C.09 1.2.01.57.17.14L.18.11h.03C.44.09.66.11.88.17H.9l.01.02-.03.02L.91.2c.1.25.13.45.08.7v.01L.98.92l-.34.16-.03.03c0 .01-.05.27.09.55.01.01.01.02.02.03.01.02.01.03.02.04.15.29.39.4.4.41.01.01.03.01.04 0l.36-.17.01.01c.24.12.39.26.54.49l.01.01v.02z"/><path class="fil0" d="M1.66 1.32c.03.07.04.15.03.22h.1c.01-.09 0-.18-.04-.26a.534.534 0 00-.23-.24l-.06.07c.09.04.16.12.2.21zm.64-.27c-.09-.2-.24-.37-.42-.5l-.06.07c.17.12.31.28.4.46.07.16.1.33.1.5h.1a1.1 1.1 0 00-.11-.53zm-.37.17c.05.11.08.24.07.37h.1a.778.778 0 00-.08-.4.923.923 0 00-.33-.38l-.06.07c.13.08.24.2.3.34z"/></g></g></svg>