<?xml version="1.0" encoding="UTF-8"?>
<!DOCTYPE svg PUBLIC "-//W3C//DTD SVG 1.1//EN" "http://www.w3.org/Graphics/SVG/1.1/DTD/svg11.dtd">
<!-- Creator: CorelDRAW 2018 (64-Bit) -->
<svg xmlns="http://www.w3.org/2000/svg" xml:space="preserve" width="1.3557mm" height="1.7836mm" version="1.1" style="shape-rendering:geometricPrecision; text-rendering:geometricPrecision; image-rendering:optimizeQuality; fill-rule:evenodd; clip-rule:evenodd"
viewBox="0 0 2.82 3.71"
 xmlns:xlink="http://www.w3.org/1999/xlink">
 <defs>
  <style type="text/css">
   <![CDATA[
    .fil0 {fill:#CD0017;fill-rule:nonzero}
   ]]>
  </style>
 </defs>
 <g id="Layer_x0020_1">
  <metadata id="CorelCorpID_0Corel-Layer"/>
  <g id="_2072082992">
   <path class="fil0" d="M1.82 2.19l0 0c-0.02,-0.01 -0.03,-0.01 -0.05,-0l-0.42 0.2 -0.02 -0.01c-0.09,-0.06 -0.26,-0.18 -0.37,-0.4 -0.01,-0.01 -0.01,-0.03 -0.02,-0.04 -0.01,-0.01 -0.01,-0.03 -0.02,-0.04 -0.11,-0.22 -0.12,-0.42 -0.11,-0.52l0 -0.02 0.02 -0.02 0.4 -0.19c0.02,-0.01 0.03,-0.02 0.03,-0.04 0.07,-0.36 0.04,-0.63 -0.12,-0.98 -0.01,-0.02 -0.02,-0.03 -0.04,-0.03 -0.22,-0.06 -0.45,-0.09 -0.68,-0.09 -0.08,0 -0.17,0 -0.26,0.01 -0.02,0 -0.04,0.01 -0.05,0.03 -0.23,0.54 -0.14,1.34 0.24,2.07 0.01,0.02 0.03,0.05 0.04,0.07 0.01,0.03 0.03,0.05 0.04,0.08 0.35,0.69 0.92,1.23 1.48,1.41 0.03,0.01 0.06,0.02 0.09,0.03 0.02,0.01 0.04,-0 0.06,-0.02 0.22,-0.23 0.39,-0.49 0.51,-0.77 0.01,-0.02 0.01,-0.03 -0,-0.05 -0.2,-0.33 -0.41,-0.52 -0.74,-0.69zm0.62 0.73l0 0c-0.11,0.24 -0.25,0.45 -0.42,0.64l-0.02 0.02 -0.05 -0.02c-0.54,-0.17 -1.06,-0.68 -1.41,-1.35 -0.01,-0.02 -0.02,-0.05 -0.04,-0.08 -0.01,-0.02 -0.03,-0.05 -0.04,-0.07 -0.35,-0.68 -0.45,-1.41 -0.26,-1.92l0.01 -0.03 0.03 -0c0.27,-0.02 0.53,0 0.78,0.07l0.02 0 0.01 0.02 -0.03 0.02 0.03 -0.01c0.12,0.29 0.15,0.53 0.1,0.82l-0 0.02 -0.02 0.01 -0.4 0.19c-0.02,0.01 -0.03,0.02 -0.03,0.04 -0,0.01 -0.06,0.31 0.11,0.65 0.01,0.01 0.01,0.03 0.02,0.04 0.01,0.02 0.01,0.03 0.02,0.04 0.17,0.34 0.46,0.47 0.47,0.48 0.02,0.01 0.03,0.01 0.05,-0l0.42 -0.2 0.02 0.01c0.28,0.15 0.46,0.31 0.63,0.58l0.01 0.01 -0 0.02z"/>
   <path class="fil0" d="M1.94 1.54l0 0c0.04,0.08 0.05,0.17 0.04,0.26l0.11 -0c0.01,-0.1 -0.01,-0.21 -0.05,-0.31 -0.06,-0.12 -0.15,-0.22 -0.26,-0.28l-0.07 0.09c0.11,0.05 0.19,0.13 0.24,0.24z"/>
   <path class="fil0" d="M2.69 1.23c-0.11,-0.23 -0.28,-0.43 -0.49,-0.58l-0.07 0.08c0.2,0.13 0.36,0.32 0.46,0.54 0.08,0.19 0.12,0.38 0.12,0.58l0.11 -0c0.01,-0.21 -0.03,-0.42 -0.13,-0.62z"/>
   <path class="fil0" d="M2.26 1.42c0.06,0.13 0.09,0.28 0.08,0.43l0.11 -0c0.01,-0.16 -0.02,-0.32 -0.09,-0.47 -0.08,-0.18 -0.22,-0.33 -0.39,-0.44l-0.07 0.08c0.16,0.1 0.28,0.23 0.35,0.4z"/>
  </g>
 </g>
</svg>
