<?xml version="1.0" encoding="UTF-8"?>
<!DOCTYPE svg PUBLIC "-//W3C//DTD SVG 1.1//EN" "http://www.w3.org/Graphics/SVG/1.1/DTD/svg11.dtd">
<!-- Creator: CorelDRAW 2018 (64-Bit) -->
<svg xmlns="http://www.w3.org/2000/svg" xml:space="preserve" width="3.9259mm" height="3.5905mm" version="1.1" style="shape-rendering:geometricPrecision; text-rendering:geometricPrecision; image-rendering:optimizeQuality; fill-rule:evenodd; clip-rule:evenodd"
viewBox="0 0 47.76 43.68"
 xmlns:xlink="http://www.w3.org/1999/xlink">
 <defs>
  <style type="text/css">
   <![CDATA[
    .fil0 {fill:white;fill-rule:nonzero}
   ]]>
  </style>
 </defs>
 <g id="Layer_x0020_1">
  <metadata id="CorelCorpID_0Corel-Layer"/>
  <g id="_874460976">
   <path class="fil0" d="M13.57 16.78l-0.46 0.46 2.5 2.5 -13.68 1.09 1.09 -13.68 2.5 2.5c0.12,0.12 0.29,0.19 0.47,0.19 0.17,0 0.34,-0.07 0.46,-0.2 4.67,-5.02 11.89,-8.34 19.04,-8.34 4.22,0 8.41,1.15 12.08,3.77 3.67,2.62 6.82,6.72 8.94,12.69l0.61 -0.21 0.5 -0.41c-2.24,-2.76 -5.3,-5.08 -8.71,-6.73 -3.42,-1.64 -7.2,-2.6 -10.89,-2.6 -2.97,0 -5.88,0.63 -8.48,2.02 -2.6,1.4 -4.87,3.59 -6.55,6.65 -0.14,0.25 -0.09,0.56 0.11,0.77l0.46 -0.46 0.57 0.31c1.57,-2.86 3.64,-4.85 6.03,-6.13 2.38,-1.29 5.07,-1.87 7.86,-1.87 3.46,0 7.07,0.91 10.33,2.48 3.26,1.57 6.17,3.79 8.27,6.38 0.2,0.24 0.55,0.31 0.82,0.16 0.27,-0.15 0.4,-0.48 0.29,-0.78 -2.19,-6.18 -5.51,-10.53 -9.41,-13.31 -3.91,-2.79 -8.38,-4.01 -12.83,-4.01 -7.54,0 -15.05,3.46 -19.98,8.74l0.47 0.44 0.46 -0.46 -3.49 -3.48c-0.18,-0.18 -0.44,-0.24 -0.68,-0.15 -0.24,0.09 -0.4,0.3 -0.42,0.55l-1.27 15.83c-0.01,0.19 0.05,0.37 0.19,0.5 0.13,0.13 0.32,0.2 0.51,0.19l15.83 -1.27c0.25,-0.02 0.47,-0.19 0.56,-0.42 0.09,-0.23 0.03,-0.5 -0.15,-0.68l-3.48 -3.48 -0.46 0.46 0.57 0.31 -0.57 -0.31z"/>
   <path class="fil0" d="M34.2 26.91l0.46 -0.46 -2.5 -2.5 13.68 -1.09 -1.09 13.69 -2.5 -2.5c-0.12,-0.13 -0.29,-0.2 -0.47,-0.19 -0.18,0 -0.34,0.08 -0.46,0.21 -4.67,5.01 -11.89,8.34 -19.04,8.33 -4.22,0 -8.42,-1.15 -12.08,-3.77 -3.67,-2.62 -6.82,-6.72 -8.94,-12.69l-0.61 0.22 -0.5 0.4c2.24,2.76 5.29,5.09 8.71,6.73 3.42,1.64 7.2,2.6 10.89,2.6 2.97,0 5.88,-0.62 8.48,-2.02 2.6,-1.4 4.87,-3.58 6.55,-6.65 0.14,-0.25 0.09,-0.56 -0.11,-0.77l-0.46 0.46 -0.57 -0.31c-1.57,2.86 -3.65,4.85 -6.03,6.13 -2.38,1.29 -5.07,1.87 -7.86,1.87 -3.46,0 -7.07,-0.91 -10.33,-2.48 -3.26,-1.57 -6.17,-3.79 -8.27,-6.38 -0.2,-0.24 -0.55,-0.31 -0.82,-0.15 -0.27,0.15 -0.4,0.48 -0.29,0.77 2.19,6.18 5.51,10.53 9.41,13.31 3.9,2.79 8.37,4.01 12.83,4.01 7.54,-0 15.05,-3.46 19.98,-8.75l-0.47 -0.44 -0.46 0.46 3.49 3.49c0.18,0.18 0.44,0.23 0.68,0.15 0.24,-0.09 0.4,-0.31 0.42,-0.56l1.27 -15.83c0.01,-0.19 -0.05,-0.38 -0.19,-0.51 -0.13,-0.13 -0.32,-0.2 -0.51,-0.19l-15.83 1.27c-0.25,0.02 -0.47,0.18 -0.55,0.42 -0.09,0.24 -0.03,0.5 0.15,0.68l3.49 3.49 0.46 -0.46 -0.57 -0.31 0.57 0.31z"/>
  </g>
 </g>
</svg>
