<svg xmlns="http://www.w3.org/2000/svg" width="7.099" height="7.249" viewBox="0 0 3.33 3.4" shape-rendering="geometricPrecision" text-rendering="geometricPrecision" image-rendering="optimizeQuality" fill-rule="evenodd" clip-rule="evenodd"><path d="M1.39 2.26l-.02-.04-.52.27.26-.51L2.97.12l.25.25-1.87 1.87.03.03-.02-.04.02.04.03.03L3.31.4c.01-.01.01-.02.01-.03 0-.01 0-.02-.01-.03L3 .03C2.99.02 2.98.02 2.97.02c-.01 0-.02 0-.03.01l-1.9 1.9-.01.01-.33.65c-.01.02-.01.04.01.05.01.01.04.02.05.01l.65-.33s.01 0 .01-.01l-.03-.03zM2.63.39l.31.31c.02.02.05.02.06 0 .02-.02.02-.05 0-.06L2.69.33c-.02-.02-.05-.02-.06 0-.02.02-.02.05 0 .06zM2.5.52l.31.31c.02.02.05.02.06 0 .02-.02.02-.05 0-.06L2.56.46c-.02-.02-.05-.02-.06 0-.02.02-.02.05 0 .06zM1.06 1.99l.21.08.08.21c.01.02.03.04.06.03.02-.01.04-.03.03-.06l-.08-.23c0-.01-.01-.02-.03-.03l-.23-.08c-.02-.01-.05 0-.06.03-.01.02 0 .05.03.06zm.28.07L2.72.68c.02-.02.02-.05 0-.06C2.7.6 2.67.6 2.66.62L1.28 2c-.02.02-.02.05 0 .06.02.02.05.02.06 0zm-.51.39l.06.06c.02.02.05.02.06 0 .02-.02.02-.05 0-.06l-.06-.06c-.02-.02-.05-.02-.06 0-.02.02-.02.05 0 .06zM2.28.38H.31a.3.3 0 00-.3.3V3.1c0 .17.14.3.3.3h2.42a.3.3 0 00.3-.3V.95c0-.03-.02-.05-.05-.05-.03 0-.05.02-.05.05V3.1a.204.204 0 01-.21.21H.3a.204.204 0 01-.21-.21V.68A.204.204 0 01.3.47h1.97c.03 0 .05-.02.05-.05 0-.03-.02-.05-.05-.05zm-.29.29H.43C.36.67.3.73.3.8v2.19c0 .07.06.13.13.13h2.19c.07 0 .13-.06.13-.13V1.23c0-.03-.02-.05-.05-.05-.03 0-.05.02-.05.05v1.76c0 .02-.02.04-.04.04H.42c-.02 0-.04-.02-.04-.04V.8C.38.78.4.76.42.76h1.56c.03 0 .05-.02.05-.05 0-.03-.02-.05-.05-.05z" fill-rule="nonzero"/></svg>