<?xml version="1.0" encoding="UTF-8"?>
<!DOCTYPE svg PUBLIC "-//W3C//DTD SVG 1.1//EN" "http://www.w3.org/Graphics/SVG/1.1/DTD/svg11.dtd">
<!-- Creator: CorelDRAW 2018 (64-Bit) -->
<svg xmlns="http://www.w3.org/2000/svg" xml:space="preserve" width="1.8782mm" height="1.9179mm" version="1.1" style="shape-rendering:geometricPrecision; text-rendering:geometricPrecision; image-rendering:optimizeQuality; fill-rule:evenodd; clip-rule:evenodd"
viewBox="0 0 3.33 3.4"
 xmlns:xlink="http://www.w3.org/1999/xlink">
 <defs>
  <style type="text/css">
   <![CDATA[
    .fil0 {fill:black;fill-rule:nonzero}
   ]]>
  </style>
 </defs>
 <g id="Layer_x0020_1">
  <metadata id="CorelCorpID_0Corel-Layer"/>
  <path class="fil0" d="M1.39 2.26l-0.02 -0.04 -0.52 0.27 0.26 -0.51 1.86 -1.86 0.25 0.25 -1.87 1.87 0.03 0.03 -0.02 -0.04 0.02 0.04 0.03 0.03 1.9 -1.9c0.01,-0.01 0.01,-0.02 0.01,-0.03 0,-0.01 -0,-0.02 -0.01,-0.03l-0.31 -0.31c-0.01,-0.01 -0.02,-0.01 -0.03,-0.01 -0.01,0 -0.02,0 -0.03,0.01l-1.9 1.9c-0,0 -0.01,0.01 -0.01,0.01l-0.33 0.65c-0.01,0.02 -0.01,0.04 0.01,0.05 0.01,0.01 0.04,0.02 0.05,0.01l0.65 -0.33c0,-0 0.01,-0 0.01,-0.01l-0.03 -0.03zm1.24 -1.87l0.31 0.31c0.02,0.02 0.05,0.02 0.06,0 0.02,-0.02 0.02,-0.05 0,-0.06l-0.31 -0.31c-0.02,-0.02 -0.05,-0.02 -0.06,0 -0.02,0.02 -0.02,0.05 0,0.06zm-0.13 0.13l0.31 0.31c0.02,0.02 0.05,0.02 0.06,0 0.02,-0.02 0.02,-0.05 0,-0.06l-0.31 -0.31c-0.02,-0.02 -0.05,-0.02 -0.06,0 -0.02,0.02 -0.02,0.05 0,0.06zm-1.44 1.47l0.21 0.08 0.08 0.21c0.01,0.02 0.03,0.04 0.06,0.03 0.02,-0.01 0.04,-0.03 0.03,-0.06l-0.08 -0.23c-0,-0.01 -0.01,-0.02 -0.03,-0.03l-0.23 -0.08c-0.02,-0.01 -0.05,0 -0.06,0.03 -0.01,0.02 0,0.05 0.03,0.06zm0.28 0.07l1.38 -1.38c0.02,-0.02 0.02,-0.05 0,-0.06 -0.02,-0.02 -0.05,-0.02 -0.06,0l-1.38 1.38c-0.02,0.02 -0.02,0.05 0,0.06 0.02,0.02 0.05,0.02 0.06,0zm-0.51 0.39l0.06 0.06c0.02,0.02 0.05,0.02 0.06,0 0.02,-0.02 0.02,-0.05 0,-0.06l-0.06 -0.06c-0.02,-0.02 -0.05,-0.02 -0.06,0 -0.02,0.02 -0.02,0.05 0,0.06zm1.45 -2.07l-1.97 0c-0.17,0 -0.3,0.14 -0.3,0.3l0 2.42c0,0.17 0.14,0.3 0.3,0.3l2.42 0c0.17,0 0.3,-0.14 0.3,-0.3l0 -2.15c0,-0.03 -0.02,-0.05 -0.05,-0.05 -0.03,0 -0.05,0.02 -0.05,0.05l0 2.15c-0,0.06 -0.02,0.11 -0.06,0.15 -0.04,0.04 -0.09,0.06 -0.15,0.06l-2.42 0c-0.06,0 -0.11,-0.02 -0.15,-0.06 -0.04,-0.04 -0.06,-0.09 -0.06,-0.15l0 -2.42c0,-0.06 0.02,-0.11 0.06,-0.15 0.04,-0.04 0.09,-0.06 0.15,-0.06l1.97 0c0.03,0 0.05,-0.02 0.05,-0.05 0,-0.03 -0.02,-0.05 -0.05,-0.05zm-0.29 0.29l-1.56 0c-0.07,0 -0.13,0.06 -0.13,0.13l0 2.19c0,0.07 0.06,0.13 0.13,0.13l2.19 0c0.07,0 0.13,-0.06 0.13,-0.13l0 -1.76c0,-0.03 -0.02,-0.05 -0.05,-0.05 -0.03,0 -0.05,0.02 -0.05,0.05l0 1.76c0,0.02 -0.02,0.04 -0.04,0.04l-2.19 0c-0.02,0 -0.04,-0.02 -0.04,-0.04l0 -2.19c0,-0.02 0.02,-0.04 0.04,-0.04l1.56 0c0.03,0 0.05,-0.02 0.05,-0.05 0,-0.03 -0.02,-0.05 -0.05,-0.05z"/>
 </g>
</svg>
