<?xml version="1.0" encoding="UTF-8"?>
<!DOCTYPE svg PUBLIC "-//W3C//DTD SVG 1.1//EN" "http://www.w3.org/Graphics/SVG/1.1/DTD/svg11.dtd">
<!-- Creator: CorelDRAW 2018 (64-Bit) -->
<svg xmlns="http://www.w3.org/2000/svg" xml:space="preserve" width="1.4553mm" height="1.4151mm" version="1.1" style="shape-rendering:geometricPrecision; text-rendering:geometricPrecision; image-rendering:optimizeQuality; fill-rule:evenodd; clip-rule:evenodd"
viewBox="0 0 5.52 5.37"
 xmlns:xlink="http://www.w3.org/1999/xlink">
 <defs>
  <style type="text/css">
   <![CDATA[
    .fil0 {fill:#767676;fill-rule:nonzero}
   ]]>
  </style>
 </defs>
 <g id="Layer_x0020_1">
  <metadata id="CorelCorpID_0Corel-Layer"/>
  <path class="fil0" d="M2.85 5.33l2.65 -3.08c0.02,-0.02 0.03,-0.05 0.03,-0.07 0,-0.02 -0,-0.03 -0.01,-0.05 -0.02,-0.04 -0.06,-0.07 -0.1,-0.07l-5.3 0c-0.04,0 -0.08,0.03 -0.1,0.07 -0.02,0.04 -0.01,0.09 0.02,0.12l2.65 3.08c0.02,0.03 0.05,0.04 0.08,0.04 0.03,0 0.06,-0.01 0.08,-0.04zm-2.49 -3.04l0 0 4.81 0 -2.4 2.8 -2.4 -2.8z"/>
  <path class="fil0" d="M5.45 1.3l0 -1.18c0,-0.06 -0.05,-0.11 -0.11,-0.11l-5.01 0c-0.06,0 -0.11,0.05 -0.11,0.11l0 1.18c0,0.06 0.05,0.11 0.11,0.11l5.01 0c0.06,0 0.11,-0.05 0.11,-0.11zm-5.01 -0.11l0 0 0 -0.96 4.78 0 0 0.96 -4.78 0z"/>
 </g>
</svg>
