<svg xmlns="http://www.w3.org/2000/svg" width="5.5" height="5.348" viewBox="0 0 5.52 5.37" shape-rendering="geometricPrecision" text-rendering="geometricPrecision" image-rendering="optimizeQuality" fill-rule="evenodd" clip-rule="evenodd"><path d="M2.85 5.33L5.5 2.25c.02-.02.03-.05.03-.07 0-.02 0-.03-.01-.05-.02-.04-.06-.07-.1-.07H.12c-.04 0-.08.03-.1.07-.02.04-.01.09.02.12l2.65 3.08c.02.03.05.04.08.04s.06-.01.08-.04zM.36 2.29h4.81l-2.4 2.8-2.4-2.8zm5.09-.99V.12c0-.06-.05-.11-.11-.11H.33C.27.01.22.06.22.12V1.3c0 .06.05.11.11.11h5.01c.06 0 .11-.05.11-.11zM.44 1.19V.23h4.78v.96H.44z" fill="#767676" fill-rule="nonzero"/></svg>