<?xml version="1.0" encoding="utf-8"?>
<!-- Generator: Adobe Illustrator 24.0.1, SVG Export Plug-In . SVG Version: 6.00 Build 0)  -->
<svg version="1.1" id="Layer_1" xmlns="http://www.w3.org/2000/svg" xmlns:xlink="http://www.w3.org/1999/xlink" x="0px" y="0px"
	 viewBox="0 0 85 85" style="enable-background:new 0 0 85 85;" xml:space="preserve">
<style type="text/css">
	.st0{fill:url(#SVGID_1_);}
	.st1{fill:#41A5D8;}
	.st2{fill:url(#SVGID_2_);}
	.st3{fill:#FFFFFF;}
</style>
<radialGradient id="SVGID_1_" cx="25.7774" cy="25.4024" r="23.0533" gradientUnits="userSpaceOnUse">
	<stop  offset="0" style="stop-color:#2B7BB7"/>
	<stop  offset="0.5352" style="stop-color:#2A78B6"/>
	<stop  offset="0.622" style="stop-color:#3484B9;stop-opacity:0.9718"/>
	<stop  offset="0.7188" style="stop-color:#3B8DBA;stop-opacity:0.9403"/>
	<stop  offset="0.7814" style="stop-color:#3E91BB;stop-opacity:0.92"/>
	<stop  offset="1" style="stop-color:#41A5D8"/>
</radialGradient>
<circle class="st0" cx="25.8" cy="25.4" r="23.1"/>
<circle class="st1" cx="59.2" cy="58.8" r="23.1"/>
<linearGradient id="SVGID_2_" gradientUnits="userSpaceOnUse" x1="42.3614" y1="7.2301" x2="42.5621" y2="74.2692" gradientTransform="matrix(1 0 0 -1 0 86)">
	<stop  offset="0" style="stop-color:#3077B7"/>
	<stop  offset="1" style="stop-color:#30B1E2"/>
</linearGradient>
<circle class="st2" cx="42.5" cy="42.1" r="38.1"/>
<path class="st3" d="M32.6,41.4c-1.5-1-2.7-2.3-3.6-3.8c-0.9-1.6-1.3-3.5-1.2-5.3c-0.1-2.3,0.7-4.6,2.2-6.4c1.6-1.8,3.6-3.1,5.9-3.9
	c2.5-0.9,5.1-1.3,7.7-1.3c1.7,0,3.4,0.1,5.1,0.4c1.2,0.2,2.4,0.5,3.5,0.9c1.1,0.4,2,1,2.8,1.8c0.6,0.7,0.9,1.5,0.9,2.4
	c0,0.9-0.3,1.8-0.9,2.5c-0.6,0.6-1.4,1-2.3,0.9c-0.6,0-1.2-0.1-1.7-0.4c-1.3-0.6-2.6-1.1-4-1.5c-1.3-0.3-2.6-0.5-3.9-0.5
	c-1.7-0.1-3.4,0.4-4.8,1.2c-1.3,0.8-2,2.1-1.9,3.6c0,0.9,0.3,1.9,1,2.5C38,35.3,39,36,40,36.5c1.1,0.6,2.8,1.3,5.1,2.2
	c0.2,0.1,0.5,0.2,0.7,0.3c2.2,0.9,4.3,1.9,6.3,3.2c1.6,1,2.9,2.4,3.9,4c1,1.7,1.4,3.6,1.4,5.5c0.1,2.4-0.6,4.7-1.9,6.6
	c-1.4,1.8-3.2,3.2-5.4,4c-2.6,0.9-5.3,1.4-8.1,1.3c-3.8,0.1-7.6-0.6-11-2.1c-0.9-0.4-1.7-1-2.3-1.8c-0.5-0.7-0.8-1.5-0.7-2.4
	c-0.1-0.9,0.3-1.8,1-2.4c0.7-0.6,1.6-0.9,2.5-0.9c1,0,2,0.3,2.9,0.8c1.1,0.6,2,1,2.7,1.3c0.7,0.3,1.5,0.6,2.3,0.7
	c1,0.2,2,0.3,2.9,0.3c1.7,0.1,3.5-0.3,4.9-1.3c1.1-0.9,1.7-2.2,1.7-3.6c0-1-0.4-1.9-1-2.6c-0.9-0.9-1.9-1.7-3.1-2.2
	c-1.4-0.7-3.3-1.6-5.7-2.6C36.7,43.8,34.6,42.7,32.6,41.4"/>
</svg>
