<?xml version="1.0" encoding="UTF-8"?>
<!DOCTYPE svg PUBLIC "-//W3C//DTD SVG 1.1//EN" "http://www.w3.org/Graphics/SVG/1.1/DTD/svg11.dtd">
<!-- Creator: CorelDRAW 2018 (64-Bit) -->
<svg xmlns="http://www.w3.org/2000/svg" xml:space="preserve" width="1.6725mm" height="1.6735mm" version="1.1" style="shape-rendering:geometricPrecision; text-rendering:geometricPrecision; image-rendering:optimizeQuality; fill-rule:evenodd; clip-rule:evenodd"
viewBox="0 0 21.72 21.73"
 xmlns:xlink="http://www.w3.org/1999/xlink">
 <defs>
  <style type="text/css">
   <![CDATA[
    .fil0 {fill:#767676;fill-rule:nonzero}
   ]]>
  </style>
 </defs>
 <g id="Layer_x0020_1">
  <metadata id="CorelCorpID_0Corel-Layer"/>
  <path class="fil0" d="M-0 6.44c0,0.59 0.32,1.59 0.95,3 -0.09,0.82 -0.13,1.29 -0.13,1.42 0,4.07 1.92,7.09 5.74,9.07 1.08,0.64 2.43,0.95 4.05,0.95l1.68 0c1.52,0.56 2.39,0.84 2.62,0.84l1.31 0c1.79,0 3.42,-1.07 4.91,-3.22 0.39,-1.23 0.59,-1.9 0.59,-2.04l0 -1.43c0,-0.63 -0.28,-1.47 -0.84,-2.5l0 -2.15c0,-3.3 -1.67,-6.08 -5,-8.37 -1.64,-0.79 -3.32,-1.19 -5.02,-1.19 -0.12,0 -0.59,0.04 -1.43,0.12 -1.12,-0.64 -2.28,-0.95 -3.46,-0.95 -2.41,0 -4.28,1.35 -5.61,4.06 -0.23,0.95 -0.35,1.75 -0.35,2.38zm10.73 -2.15l0.37 0c3.1,0.33 4.65,1.44 4.65,3.34 -0.18,0.51 -0.5,0.87 -0.95,1.08l-0.35 0c-0.52,0 -1.16,-0.63 -1.91,-1.9 -0.33,-0.33 -0.93,-0.53 -1.8,-0.61 -1.59,0.22 -2.38,0.7 -2.38,1.43 0,0.91 1.55,1.63 4.65,2.15 2.23,0.69 3.34,1.85 3.34,3.46l0 0.25c0,2.2 -1.63,3.51 -4.89,3.93l-0.35 0c-2.75,0 -4.54,-0.87 -5.38,-2.62 -0.15,-0.3 -0.23,-0.62 -0.23,-0.95l0 -0.49c0.12,-0.36 0.51,-0.67 1.19,-0.93 0.54,0 1.09,0.55 1.66,1.66 0,0.61 0.71,1.09 2.15,1.43l0.23 -0.12 0.25 0.12c1.17,0 2.05,-0.55 2.62,-1.66 0,-1.21 -1.39,-2.01 -4.18,-2.39 -2.46,-0.61 -3.7,-1.8 -3.7,-3.58 0,-1.85 1.31,-3.01 3.93,-3.48 0.3,-0.08 0.66,-0.12 1.07,-0.12z"/>
 </g>
</svg>
