<svg xmlns="http://www.w3.org/2000/svg" width="6.321" height="6.325" viewBox="0 0 21.72 21.73" shape-rendering="geometricPrecision" text-rendering="geometricPrecision" image-rendering="optimizeQuality" fill-rule="evenodd" clip-rule="evenodd"><path d="M0 6.44c0 .59.32 1.59.95 3-.09.82-.13 1.29-.13 1.42 0 4.07 1.92 7.09 5.74 9.07 1.08.64 2.43.95 4.05.95h1.68c1.52.56 2.39.84 2.62.84h1.31c1.79 0 3.42-1.07 4.91-3.22.39-1.23.59-1.9.59-2.04v-1.43c0-.63-.28-1.47-.84-2.5v-2.15c0-3.3-1.67-6.08-5-8.37-1.64-.79-3.32-1.19-5.02-1.19-.12 0-.59.04-1.43.12C8.31.3 7.15-.01 5.97-.01 3.56-.01 1.69 1.34.36 4.05.13 5 .01 5.8.01 6.43zm10.73-2.15h.37c3.1.33 4.65 1.44 4.65 3.34-.18.51-.5.87-.95 1.08h-.35c-.52 0-1.16-.63-1.91-1.9-.33-.33-.93-.53-1.8-.61-1.59.22-2.38.7-2.38 1.43 0 .91 1.55 1.63 4.65 2.15 2.23.69 3.34 1.85 3.34 3.46v.25c0 2.2-1.63 3.51-4.89 3.93h-.35c-2.75 0-4.54-.87-5.38-2.62-.15-.3-.23-.62-.23-.95v-.49c.12-.36.51-.67 1.19-.93.54 0 1.09.55 1.66 1.66 0 .61.71 1.09 2.15 1.43l.23-.12.25.12c1.17 0 2.05-.55 2.62-1.66 0-1.21-1.39-2.01-4.18-2.39-2.46-.61-3.7-1.8-3.7-3.58 0-1.85 1.31-3.01 3.93-3.48.3-.08.66-.12 1.07-.12z" fill="#767676" fill-rule="nonzero"/></svg>