<svg xmlns="http://www.w3.org/2000/svg" viewBox="0 0 85 85"><radialGradient id="a" cx="25.777" cy="25.402" r="23.053" gradientUnits="userSpaceOnUse"><stop offset="0" stop-color="#2b7bb7"/><stop offset=".535" stop-color="#2a78b6"/><stop offset=".622" stop-color="#3484b9" stop-opacity=".972"/><stop offset=".719" stop-color="#3b8dba" stop-opacity=".94"/><stop offset=".781" stop-color="#3e91bb" stop-opacity=".92"/><stop offset="1" stop-color="#41a5d8"/></radialGradient><circle cx="25.8" cy="25.4" r="23.1" fill="url(#a)"/><circle cx="59.2" cy="58.8" r="23.1" fill="#41a5d8"/><linearGradient id="b" gradientUnits="userSpaceOnUse" x1="42.361" y1="7.23" x2="42.562" y2="74.269" gradientTransform="matrix(1 0 0 -1 0 86)"><stop offset="0" stop-color="#3077b7"/><stop offset="1" stop-color="#30b1e2"/></linearGradient><circle cx="42.5" cy="42.1" r="38.1" fill="url(#b)"/><path d="M32.6 41.4c-1.5-1-2.7-2.3-3.6-3.8-.9-1.6-1.3-3.5-1.2-5.3-.1-2.3.7-4.6 2.2-6.4 1.6-1.8 3.6-3.1 5.9-3.9 2.5-.9 5.1-1.3 7.7-1.3 1.7 0 3.4.1 5.1.4 1.2.2 2.4.5 3.5.9s2 1 2.8 1.8c.6.7.9 1.5.9 2.4 0 .9-.3 1.8-.9 2.5-.6.6-1.4 1-2.3.9-.6 0-1.2-.1-1.7-.4-1.3-.6-2.6-1.1-4-1.5-1.3-.3-2.6-.5-3.9-.5-1.7-.1-3.4.4-4.8 1.2-1.3.8-2 2.1-1.9 3.6 0 .9.3 1.9 1 2.5.6.8 1.6 1.5 2.6 2 1.1.6 2.8 1.3 5.1 2.2.2.1.5.2.7.3 2.2.9 4.3 1.9 6.3 3.2 1.6 1 2.9 2.4 3.9 4 1 1.7 1.4 3.6 1.4 5.5.1 2.4-.6 4.7-1.9 6.6-1.4 1.8-3.2 3.2-5.4 4-2.6.9-5.3 1.4-8.1 1.3-3.8.1-7.6-.6-11-2.1-.9-.4-1.7-1-2.3-1.8-.5-.7-.8-1.5-.7-2.4-.1-.9.3-1.8 1-2.4.7-.6 1.6-.9 2.5-.9 1 0 2 .3 2.9.8 1.1.6 2 1 2.7 1.3.7.3 1.5.6 2.3.7 1 .2 2 .3 2.9.3 1.7.1 3.5-.3 4.9-1.3a4.6 4.6 0 001.7-3.6c0-1-.4-1.9-1-2.6-.9-.9-1.9-1.7-3.1-2.2-1.4-.7-3.3-1.6-5.7-2.6-2.4-1-4.5-2.1-6.5-3.4" fill="#fff"/></svg>