<?xml version="1.0" encoding="UTF-8"?>
<!DOCTYPE svg PUBLIC "-//W3C//DTD SVG 1.1//EN" "http://www.w3.org/Graphics/SVG/1.1/DTD/svg11.dtd">
<!-- Creator: CorelDRAW 2018 (64-Bit) -->
<svg xmlns="http://www.w3.org/2000/svg" xml:space="preserve" width="1.5555mm" height="1.4821mm" version="1.1" style="shape-rendering:geometricPrecision; text-rendering:geometricPrecision; image-rendering:optimizeQuality; fill-rule:evenodd; clip-rule:evenodd"
viewBox="0 0 3.59 3.42"
 xmlns:xlink="http://www.w3.org/1999/xlink">
 <defs>
  <style type="text/css">
   <![CDATA[
    .fil0 {fill:#E27C04;fill-rule:nonzero}
   ]]>
  </style>
 </defs>
 <g id="Layer_x0020_1">
  <metadata id="CorelCorpID_0Corel-Layer"/>
  <path class="fil0" d="M0.75 3.41l1.04 -0.55 1.04 0.55c0.02,0.01 0.05,0.01 0.07,-0 0.02,-0.01 0.03,-0.04 0.03,-0.06l-0.2 -1.16 0.84 -0.82c0.02,-0.02 0.02,-0.04 0.02,-0.06 -0.01,-0.02 -0.03,-0.04 -0.05,-0.04l-1.16 -0.17 -0.52 -1.05c-0.01,-0.02 -0.03,-0.04 -0.06,-0.04 -0.02,0 -0.05,0.01 -0.06,0.04l-0.52 1.05 -1.16 0.17c-0.02,0 -0.04,0.02 -0.05,0.04 -0.01,0.02 -0,0.05 0.02,0.06l0.84 0.82 -0.2 1.16c-0,0.02 0.01,0.05 0.03,0.06 0.02,0.01 0.04,0.02 0.07,0z"/>
 </g>
</svg>
