<svg xmlns="http://www.w3.org/2000/svg" width="5.879" height="5.602" viewBox="0 0 3.59 3.42" shape-rendering="geometricPrecision" text-rendering="geometricPrecision" image-rendering="optimizeQuality" fill-rule="evenodd" clip-rule="evenodd"><path d="M.75 3.41l1.04-.55 1.04.55c.02.01.05.01.07 0 .02-.01.03-.04.03-.06l-.2-1.16.84-.82c.02-.02.02-.04.02-.06-.01-.02-.03-.04-.05-.04L2.38 1.1 1.86.05A.068.068 0 001.8.01c-.02 0-.05.01-.06.04L1.22 1.1l-1.16.17c-.02 0-.04.02-.05.04-.01.02 0 .05.02.06l.84.82-.2 1.16c0 .02.01.05.03.06.02.01.04.02.07 0z" fill="#e27c04" fill-rule="nonzero"/></svg>