<?xml version="1.0" encoding="UTF-8"?>
<!DOCTYPE svg PUBLIC "-//W3C//DTD SVG 1.1//EN" "http://www.w3.org/Graphics/SVG/1.1/DTD/svg11.dtd">
<!-- Creator: CorelDRAW 2018 (64-Bit) -->
<svg xmlns="http://www.w3.org/2000/svg" xml:space="preserve" width="2.7174mm" height="2.3478mm" version="1.1" style="shape-rendering:geometricPrecision; text-rendering:geometricPrecision; image-rendering:optimizeQuality; fill-rule:evenodd; clip-rule:evenodd"
viewBox="0 0 5.35 4.63"
 xmlns:xlink="http://www.w3.org/1999/xlink">
 <defs>
  <style type="text/css">
   <![CDATA[
    .fil1 {fill:#81ADCB;fill-rule:nonzero}
    .fil2 {fill:#0CA3E8;fill-rule:nonzero}
    .fil0 {fill:#008FDF;fill-rule:nonzero}
   ]]>
  </style>
 </defs>
 <g id="Layer_x0020_1">
  <metadata id="CorelCorpID_0Corel-Layer"/>
  <g id="_3527471024">
   <path class="fil0" d="M5.35 0.16l-0.85 4.27c0,0 -0.12,0.3 -0.44,0.15l-1.95 -1.5 -0.71 -0.34 -1.2 -0.4c0,0 -0.18,-0.07 -0.2,-0.21 -0.02,-0.14 0.21,-0.22 0.21,-0.22l4.75 -1.86c0,0 0.39,-0.17 0.39,0.11z"/>
   <path class="fil1" d="M1.96 4.39c0,0 -0.06,-0.01 -0.13,-0.23 -0.07,-0.22 -0.43,-1.41 -0.43,-1.41l2.87 -1.82c0,0 0.17,-0.1 0.16,0 0,0 0.03,0.02 -0.06,0.1 -0.09,0.08 -2.26,2.03 -2.26,2.03l-0.16 1.33z"/>
   <path class="fil2" d="M2.86 3.66l-0.77 0.7c0,0 -0.06,0.05 -0.13,0.02l0.15 -1.31 0.75 0.59z"/>
  </g>
 </g>
</svg>
