<svg xmlns="http://www.w3.org/2000/svg" width="10.27" height="8.874" viewBox="0 0 5.35 4.63" shape-rendering="geometricPrecision" text-rendering="geometricPrecision" image-rendering="optimizeQuality" fill-rule="evenodd" clip-rule="evenodd"><g fill-rule="nonzero"><path d="M5.35.16L4.5 4.43s-.12.3-.44.15l-1.95-1.5-.71-.34-1.2-.4s-.18-.07-.2-.21c-.02-.14.21-.22.21-.22L4.96.05s.39-.17.39.11z" fill="#008fdf"/><path d="M1.96 4.39s-.06-.01-.13-.23-.43-1.41-.43-1.41L4.27.93s.17-.1.16 0c0 0 .03.02-.06.1L2.11 3.06l-.16 1.33z" fill="#81adcb"/><path d="M2.86 3.66l-.77.7s-.06.05-.13.02l.15-1.31.75.59z" fill="#0ca3e8"/></g></svg>