<svg xmlns="http://www.w3.org/2000/svg" width="5.857" height="4.875" viewBox="0 0 2.56 2.13" shape-rendering="geometricPrecision" text-rendering="geometricPrecision" image-rendering="optimizeQuality" fill-rule="evenodd" clip-rule="evenodd"><path d="M0 .97v.06c.43.13.66.22.69.25.13.45.21.69.24.72.04 0 .06.01.06.02.03 0 .15-.11.37-.32h.03l.6.44h.1c.05 0 .16-.47.34-1.41.06-.23.1-.44.13-.62V.09C2.53.03 2.5 0 2.48 0c-.07 0-.38.11-.91.32C.76.62.25.83.03.92L0 .96z" fill="#767676" fill-rule="nonzero"/></svg>