<svg xmlns="http://www.w3.org/2000/svg" viewBox="0 0 85 85"><path d="M42.5 82.1c22.1 0 40-17.9 40-40s-17.9-40-40-40-40 17.9-40 40 17.9 40 40 40" fill="#43c0eb"/><path d="M63.2 24.7l-7.7 38.6s-1.1 2.7-4 1.4L33.9 51.1 27.5 48l-10.8-3.6s-1.7-.6-1.8-1.9c-.2-1.3 1.9-2 1.9-2l43-16.9c-.1.1 3.4-1.5 3.4 1.1z" fill="#fff"/><path d="M32.5 62.9s-.5 0-1.2-2.1c-.6-2-3.9-12.7-3.9-12.7l26-16.5s1.5-.9 1.4 0c0 0 .3.2-.5.9S34 50.8 34 50.8" fill="#e6e5e6"/><path d="M40.7 56.3l-7 6.4s-.5.4-1.1.2L33.9 51" fill="#a1a1a0"/></svg>