<?xml version="1.0" encoding="utf-8"?>
<!-- Generator: Adobe Illustrator 24.0.1, SVG Export Plug-In . SVG Version: 6.00 Build 0)  -->
<svg version="1.1" id="Layer_1" xmlns="http://www.w3.org/2000/svg" xmlns:xlink="http://www.w3.org/1999/xlink" x="0px" y="0px"
	 viewBox="0 0 85 85" style="enable-background:new 0 0 85 85;" xml:space="preserve">
<style type="text/css">
	.st0{fill:#43C0EB;}
	.st1{fill:#FFFFFF;}
	.st2{fill:#E6E5E6;}
	.st3{fill:#A1A1A0;}
</style>
<g>
	<path class="st0" d="M42.5,82.1c22.1,0,40-17.9,40-40c0-22.1-17.9-40-40-40c-22.1,0-40,17.9-40,40C2.5,64.2,20.4,82.1,42.5,82.1"/>
	<path class="st1" d="M63.2,24.7l-7.7,38.6c0,0-1.1,2.7-4,1.4L33.9,51.1L27.5,48l-10.8-3.6c0,0-1.7-0.6-1.8-1.9
		c-0.2-1.3,1.9-2,1.9-2l43-16.9C59.7,23.7,63.2,22.1,63.2,24.7z"/>
	<path class="st2" d="M32.5,62.9c0,0-0.5,0-1.2-2.1c-0.6-2-3.9-12.7-3.9-12.7l26-16.5c0,0,1.5-0.9,1.4,0c0,0,0.3,0.2-0.5,0.9
		C53.5,33.2,34,50.8,34,50.8"/>
	<path class="st3" d="M40.7,56.3l-7,6.4c0,0-0.5,0.4-1.1,0.2L33.9,51"/>
</g>
</svg>
