<?xml version="1.0" encoding="UTF-8"?>
<!DOCTYPE svg PUBLIC "-//W3C//DTD SVG 1.1//EN" "http://www.w3.org/Graphics/SVG/1.1/DTD/svg11.dtd">
<!-- Creator: CorelDRAW 2018 (64-Bit) -->
<svg xmlns="http://www.w3.org/2000/svg" xml:space="preserve" width="1.5496mm" height="1.2899mm" version="1.1" style="shape-rendering:geometricPrecision; text-rendering:geometricPrecision; image-rendering:optimizeQuality; fill-rule:evenodd; clip-rule:evenodd"
viewBox="0 0 2.56 2.13"
 xmlns:xlink="http://www.w3.org/1999/xlink">
 <defs>
  <style type="text/css">
   <![CDATA[
    .fil0 {fill:#767676;fill-rule:nonzero}
   ]]>
  </style>
 </defs>
 <g id="Layer_x0020_1">
  <metadata id="CorelCorpID_0Corel-Layer"/>
  <path class="fil0" d="M-0 0.97l0 0.06c0.43,0.13 0.66,0.22 0.69,0.25 0.13,0.45 0.21,0.69 0.24,0.72 0.04,0 0.06,0.01 0.06,0.02 0.03,0 0.15,-0.11 0.37,-0.32l0.03 0 0.6 0.44 0.1 0c0.05,0 0.16,-0.47 0.34,-1.41 0.06,-0.23 0.1,-0.44 0.13,-0.62l0 -0.02c-0.03,-0.06 -0.06,-0.09 -0.08,-0.09 -0.07,0 -0.38,0.11 -0.91,0.32 -0.81,0.3 -1.32,0.51 -1.54,0.6l-0.03 0.04z"/>
 </g>
</svg>
