<?xml version="1.0" encoding="UTF-8"?>
<!DOCTYPE svg PUBLIC "-//W3C//DTD SVG 1.1//EN" "http://www.w3.org/Graphics/SVG/1.1/DTD/svg11.dtd">
<!-- Creator: CorelDRAW 2018 (64-Bit) -->
<svg xmlns="http://www.w3.org/2000/svg" xml:space="preserve" width="1.8627mm" height="1.8627mm" version="1.1" style="shape-rendering:geometricPrecision; text-rendering:geometricPrecision; image-rendering:optimizeQuality; fill-rule:evenodd; clip-rule:evenodd"
viewBox="0 0 4.55 4.55"
 xmlns:xlink="http://www.w3.org/1999/xlink">
 <defs>
  <style type="text/css">
   <![CDATA[
    .fil0 {fill:#767676;fill-rule:nonzero}
   ]]>
  </style>
 </defs>
 <g id="Layer_x0020_1">
  <metadata id="CorelCorpID_0Corel-Layer"/>
  <path class="fil0" d="M1.01 3.11l0.15 -0.09c0.04,-0.02 0.06,-0.08 0.03,-0.12 -0.02,-0.04 -0.08,-0.06 -0.12,-0.03l-0.15 0.09c-0.09,-0.18 -0.15,-0.38 -0.16,-0.59l0.18 0c0.05,0 0.09,-0.04 0.09,-0.09 0,-0.05 -0.04,-0.09 -0.09,-0.09l-0.18 0c0.01,-0.21 0.07,-0.41 0.16,-0.59l0.15 0.09c0.04,0.02 0.1,0.01 0.12,-0.03 0.02,-0.04 0.01,-0.1 -0.03,-0.12l-0.15 -0.09c0.11,-0.17 0.26,-0.32 0.43,-0.43l0.09 0.15c0.02,0.04 0.08,0.06 0.12,0.03 0.04,-0.02 0.06,-0.08 0.03,-0.12l-0.09 -0.15c0.18,-0.09 0.38,-0.15 0.59,-0.16l0 0.18c0,0.05 0.04,0.09 0.09,0.09 0.05,0 0.09,-0.04 0.09,-0.09l0 -0.18c0.21,0.01 0.41,0.07 0.59,0.16l-0.09 0.15c-0.02,0.04 -0.01,0.1 0.03,0.12 0.04,0.02 0.1,0.01 0.12,-0.03l0.09 -0.15c0.17,0.11 0.32,0.26 0.43,0.43l-0.15 0.09c-0.04,0.02 -0.06,0.08 -0.03,0.12 0.02,0.04 0.08,0.06 0.12,0.03l0.15 -0.09c0.09,0.18 0.15,0.38 0.16,0.59l-0.18 0c-0.05,0 -0.09,0.04 -0.09,0.09 0,0.05 0.04,0.09 0.09,0.09l0.18 0c-0.01,0.21 -0.07,0.41 -0.16,0.59l-0.15 -0.09c-0.04,-0.02 -0.1,-0.01 -0.12,0.03 -0.02,0.04 -0.01,0.1 0.03,0.12l0.15 0.09c-0.11,0.17 -0.26,0.32 -0.43,0.43l-0.09 -0.15c-0.02,-0.04 -0.08,-0.06 -0.12,-0.03 -0.04,0.02 -0.06,0.08 -0.03,0.12l0.09 0.15c-0.18,0.09 -0.38,0.15 -0.59,0.16l0 -0.18c0,-0.05 -0.04,-0.09 -0.09,-0.09 -0.05,0 -0.09,0.04 -0.09,0.09l0 0.18c-0.21,-0.01 -0.41,-0.07 -0.59,-0.16l0.09 -0.15c0.02,-0.04 0.01,-0.1 -0.03,-0.12 -0.04,-0.02 -0.1,-0.01 -0.12,0.03l-0.09 0.15c-0.17,-0.11 -0.32,-0.26 -0.43,-0.43zm2.95 -0.83c0,-0.93 -0.75,-1.69 -1.69,-1.69 -0.92,0 -1.69,0.74 -1.69,1.69 0,0.92 0.75,1.69 1.69,1.69 0.93,0 1.69,-0.76 1.69,-1.69zm-1.69 -0.18c0.1,0 0.18,0.08 0.18,0.18 0,0.1 -0.08,0.18 -0.18,0.18 -0.1,0 -0.18,-0.08 -0.18,-0.18 0,-0.1 0.08,-0.18 0.18,-0.18zm0 0.53c0.17,0 0.3,-0.11 0.34,-0.27l0.54 0c0.05,0 0.09,-0.04 0.09,-0.09 0,-0.05 -0.04,-0.09 -0.09,-0.09l-0.54 0c-0.03,-0.12 -0.13,-0.22 -0.26,-0.26l0 -0.63c0,-0.05 -0.04,-0.09 -0.09,-0.09 -0.05,0 -0.09,0.04 -0.09,0.09l0 0.63c-0.15,0.04 -0.27,0.18 -0.27,0.34 0,0.2 0.16,0.36 0.36,0.36zm0.09 1.83c0,0.05 -0.04,0.09 -0.09,0.09 -0.05,0 -0.09,-0.04 -0.09,-0.09 0,-0.05 0.04,-0.09 0.09,-0.09 0.05,0 0.09,0.04 0.09,0.09zm-0.09 -4.46c-1.26,0 -2.28,1.02 -2.28,2.28 0,1.14 0.83,2.05 1.86,2.24 0.05,0.01 0.09,-0.02 0.1,-0.07 0.01,-0.05 -0.02,-0.09 -0.07,-0.1 -0.96,-0.17 -1.72,-1.01 -1.72,-2.06 0,-1.16 0.94,-2.1 2.1,-2.1 1.16,0 2.1,0.94 2.1,2.1 0,1.05 -0.76,1.89 -1.72,2.06 -0.05,0.01 -0.08,0.06 -0.07,0.1 0.01,0.05 0.06,0.08 0.1,0.07 1.03,-0.19 1.86,-1.1 1.86,-2.24 0,-1.26 -1.02,-2.28 -2.28,-2.28z"/>
 </g>
</svg>
