<?xml version="1.0" encoding="UTF-8"?>
<!DOCTYPE svg PUBLIC "-//W3C//DTD SVG 1.1//EN" "http://www.w3.org/Graphics/SVG/1.1/DTD/svg11.dtd">
<!-- Creator: CorelDRAW 2018 (64-Bit) -->
<svg xmlns="http://www.w3.org/2000/svg" xml:space="preserve" width="3.3055mm" height="4.4636mm" version="1.1" style="shape-rendering:geometricPrecision; text-rendering:geometricPrecision; image-rendering:optimizeQuality; fill-rule:evenodd; clip-rule:evenodd"
viewBox="0 0 8.42 11.36"
 xmlns:xlink="http://www.w3.org/1999/xlink">
 <defs>
  <style type="text/css">
   <![CDATA[
    .fil0 {fill:black;fill-rule:nonzero}
   ]]>
  </style>
 </defs>
 <g id="Layer_x0020_1">
  <metadata id="CorelCorpID_0Corel-Layer"/>
  <g id="_300109600">
   <path class="fil0" d="M7.54 2.67l0 6.95c0,0.4 -0.16,0.76 -0.42,1.02 -0.26,0.26 -0.62,0.42 -1.02,0.42l-3.79 0c-0.4,0 -0.76,-0.16 -1.02,-0.42 -0.26,-0.26 -0.42,-0.62 -0.42,-1.02l0 -6.95c0,-0.08 -0.07,-0.15 -0.15,-0.15 -0.08,0 -0.15,0.07 -0.15,0.15l0 6.95c0,0.96 0.78,1.74 1.74,1.74l3.79 0c0.96,-0 1.74,-0.78 1.74,-1.74l0 -6.95c0,-0.08 -0.07,-0.15 -0.15,-0.15 -0.08,0 -0.15,0.07 -0.15,0.15z"/>
   <path class="fil0" d="M1.5 3.73l0 5.41c0,0.08 0.07,0.15 0.15,0.15 0.08,0 0.15,-0.07 0.15,-0.15l0 -5.41c0,-0.08 -0.07,-0.15 -0.15,-0.15 -0.08,0 -0.15,0.07 -0.15,0.15z"/>
   <path class="fil0" d="M2.78 3.73l0 5.41c0,0.08 0.07,0.15 0.15,0.15 0.08,0 0.15,-0.07 0.15,-0.15l0 -5.41c0,-0.08 -0.07,-0.15 -0.15,-0.15 -0.08,0 -0.15,0.07 -0.15,0.15z"/>
   <path class="fil0" d="M4.06 3.73l0 5.41c0,0.08 0.07,0.15 0.15,0.15 0.08,0 0.15,-0.07 0.15,-0.15l0 -5.41c0,-0.08 -0.07,-0.15 -0.15,-0.15 -0.08,0 -0.15,0.07 -0.15,0.15z"/>
   <path class="fil0" d="M5.33 3.73l0 5.41c0,0.08 0.07,0.15 0.15,0.15 0.08,0 0.15,-0.07 0.15,-0.15l0 -5.41c0,-0.08 -0.07,-0.15 -0.15,-0.15 -0.08,0 -0.15,0.07 -0.15,0.15z"/>
   <path class="fil0" d="M6.61 3.73l0 5.41c0,0.08 0.07,0.15 0.15,0.15 0.08,0 0.15,-0.07 0.15,-0.15l0 -5.41c0,-0.08 -0.07,-0.15 -0.15,-0.15 -0.08,0 -0.15,0.07 -0.15,0.15z"/>
   <path class="fil0" d="M8.26 1.41l0 -0.15 -2.36 0 0 0.15 0.15 0c0,-0.24 -0.06,-0.45 -0.17,-0.63 -0.16,-0.27 -0.42,-0.47 -0.71,-0.59 -0.3,-0.13 -0.63,-0.19 -0.97,-0.19 -0.45,0 -0.9,0.11 -1.25,0.34 -0.18,0.12 -0.33,0.26 -0.43,0.44 -0.11,0.18 -0.17,0.39 -0.17,0.63l0.15 0 0 -0.15 -2.36 0c-0.04,0 -0.08,0.02 -0.11,0.04 -0.03,0.03 -0.04,0.07 -0.04,0.11l0 0.78c0,0.04 0.02,0.08 0.04,0.11 0.03,0.03 0.07,0.04 0.11,0.04l8.11 0c0.04,0 0.08,-0.02 0.11,-0.04 0.03,-0.03 0.04,-0.07 0.04,-0.11l0 -0.78c0,-0.04 -0.02,-0.08 -0.04,-0.11 -0.03,-0.03 -0.07,-0.04 -0.11,-0.04l0 0.15 -0.15 0 0 0.63 -7.81 0 0 -0.48 2.21 0c0.04,0 0.08,-0.02 0.11,-0.04 0.03,-0.03 0.04,-0.07 0.04,-0.11 0,-0.19 0.05,-0.34 0.13,-0.48 0.12,-0.2 0.32,-0.36 0.57,-0.47 0.25,-0.11 0.55,-0.16 0.85,-0.16 0.4,-0 0.8,0.1 1.08,0.29 0.14,0.09 0.26,0.21 0.34,0.34 0.08,0.14 0.12,0.29 0.12,0.48 0,0.04 0.02,0.08 0.04,0.11 0.03,0.03 0.07,0.04 0.11,0.04l2.36 0 0 -0.15 -0.15 0 0.15 0z"/>
  </g>
 </g>
</svg>
