<svg xmlns="http://www.w3.org/2000/svg" width="12.493" height="16.87" viewBox="0 0 8.42 11.36" shape-rendering="geometricPrecision" text-rendering="geometricPrecision" image-rendering="optimizeQuality" fill-rule="evenodd" clip-rule="evenodd"><defs><style>.fil0{fill:#000;fill-rule:nonzero}</style></defs><g id="Layer_x0020_1"><g id="_300109600"><path class="fil0" d="M7.54 2.67v6.95a1.435 1.435 0 01-1.44 1.44H2.31A1.435 1.435 0 01.87 9.62V2.67c0-.08-.07-.15-.15-.15-.08 0-.15.07-.15.15v6.95c0 .96.78 1.74 1.74 1.74H6.1c.96 0 1.74-.78 1.74-1.74V2.67c0-.08-.07-.15-.15-.15-.08 0-.15.07-.15.15z"/><path class="fil0" d="M1.5 3.73v5.41c0 .08.07.15.15.15.08 0 .15-.07.15-.15V3.73c0-.08-.07-.15-.15-.15-.08 0-.15.07-.15.15zm1.28 0v5.41c0 .08.07.15.15.15.08 0 .15-.07.15-.15V3.73c0-.08-.07-.15-.15-.15-.08 0-.15.07-.15.15zm1.28 0v5.41c0 .08.07.15.15.15.08 0 .15-.07.15-.15V3.73c0-.08-.07-.15-.15-.15-.08 0-.15.07-.15.15zm1.27 0v5.41c0 .08.07.15.15.15.08 0 .15-.07.15-.15V3.73c0-.08-.07-.15-.15-.15-.08 0-.15.07-.15.15zm1.28 0v5.41c0 .08.07.15.15.15.08 0 .15-.07.15-.15V3.73c0-.08-.07-.15-.15-.15-.08 0-.15.07-.15.15zm1.65-2.32v-.15H5.9v.15h.15c0-.24-.06-.45-.17-.63-.16-.27-.42-.47-.71-.59C4.87.06 4.54 0 4.2 0c-.45 0-.9.11-1.25.34-.18.12-.33.26-.43.44-.11.18-.17.39-.17.63h.15v-.15H.14a.21.21 0 00-.11.04.15.15 0 00-.04.11v.78c0 .04.02.08.04.11.03.03.07.04.11.04h8.11c.04 0 .08-.02.11-.04a.15.15 0 00.04-.11v-.78a.21.21 0 00-.04-.11.15.15 0 00-.11-.04v.15H8.1v.63H.29v-.48H2.5c.04 0 .08-.02.11-.04a.15.15 0 00.04-.11c0-.19.05-.34.13-.48.12-.2.32-.36.57-.47C3.6.35 3.9.3 4.2.3c.4 0 .8.1 1.08.29.14.09.26.21.34.34.08.14.12.29.12.48 0 .04.02.08.04.11.03.03.07.04.11.04h2.36v-.15H8.1h.15z"/></g></g></svg>