<svg xmlns="http://www.w3.org/2000/svg" width="11.178" height="9.293" viewBox="0 0 8.55 7.11" shape-rendering="geometricPrecision" text-rendering="geometricPrecision" image-rendering="optimizeQuality" fill-rule="evenodd" clip-rule="evenodd"><path d="M4.15 1.69v.43c0 .07-.04.11-.11.11-1.11-.15-2.07-.54-2.86-1.17L.44.37H.38C.38.43.31.57.17.8v.64c.05.36.29.77.74 1.22v.05c-.24 0-.49-.07-.74-.21v.05c0 .68.44 1.27 1.33 1.75l-.1.05h-.26L.87 4.3v.1c.4.74.92 1.12 1.54 1.12v.16c-.7.42-1.39.64-2.08.64H.01v.1c1 .46 1.87.69 2.6.69 1.54 0 2.85-.62 3.93-1.86.78-1.08 1.17-2.11 1.17-3.08V1.8c.57-.54.85-.84.86-.91V.84c-.2.1-.49.19-.86.27L7.66.99C7.99.8 8.24.53 8.4.2V.15h-.05c-.52.25-.84.38-.95.38h-.16C6.85.21 6.49.03 6.18 0h-.43c-.59 0-1.07.33-1.43 1-.1.18-.16.41-.16.69z" fill="#008fdf" fill-rule="nonzero"/></svg>