<?xml version="1.0" encoding="UTF-8"?>
<!DOCTYPE svg PUBLIC "-//W3C//DTD SVG 1.1//EN" "http://www.w3.org/Graphics/SVG/1.1/DTD/svg11.dtd">
<!-- Creator: CorelDRAW 2018 (64-Bit) -->
<svg xmlns="http://www.w3.org/2000/svg" xml:space="preserve" width="7.9276mm" height="4.6218mm" version="1.1" style="shape-rendering:geometricPrecision; text-rendering:geometricPrecision; image-rendering:optimizeQuality; fill-rule:evenodd; clip-rule:evenodd"
viewBox="0 0 1635.87 953.71"
 xmlns:xlink="http://www.w3.org/1999/xlink">
 <defs>
  <style type="text/css">
   <![CDATA[
    .str0 {stroke:#5E5E5E;stroke-width:34.94;stroke-miterlimit:22.9256}
    .fil0 {fill:none}
   ]]>
  </style>
 </defs>
 <g id="Layer_x0020_1">
  <metadata id="CorelCorpID_0Corel-Layer"/>
  <g id="_9334686864">
   <path class="fil0 str0" d="M524.65 727.51l369.78 -208.62c21.73,-12.28 21.75,-52.27 0,-64.24l-365.92 -200.84c-21.75,-11.95 -100.35,-68.57 -100.62,21.23l-1.26 428.76c-0.23,83.72 85.16,30.97 98.02,23.71z"/>
   <path class="fil0 str0" d="M153.73 17.48l980.37 0c74.95,0 136.25,61.29 136.25,136.25l0 178.8 250.59 -194.4 97.44 -13.93 0 709.97 -78.89 0 -269.14 -225.73 0 191.54c0,74.97 -61.31,136.25 -136.25,136.25l-980.37 0c-74.95,0 -136.25,-61.29 -136.25,-136.25l0 -646.25c0,-74.97 61.31,-136.25 136.25,-136.25z"/>
  </g>
 </g>
</svg>
