<svg xmlns="http://www.w3.org/2000/svg" width="29.963" height="17.468" viewBox="0 0 1635.87 953.71" shape-rendering="geometricPrecision" text-rendering="geometricPrecision" image-rendering="optimizeQuality" fill-rule="evenodd" clip-rule="evenodd"><defs><style>.str0{stroke:#5e5e5e;stroke-width:34.94;stroke-miterlimit:22.9256}.fil0{fill:none}</style></defs><g id="Layer_x0020_1"><g id="_9334686864"><path class="fil0 str0" d="M524.65 727.51l369.78-208.62c21.73-12.28 21.75-52.27 0-64.24L528.51 253.81c-21.75-11.95-100.35-68.57-100.62 21.23l-1.26 428.76c-.23 83.72 85.16 30.97 98.02 23.71z"/><path class="fil0 str0" d="M153.73 17.48h980.37c74.95 0 136.25 61.29 136.25 136.25v178.8l250.59-194.4 97.44-13.93v709.97h-78.89l-269.14-225.73v191.54c0 74.97-61.31 136.25-136.25 136.25H153.73c-74.95 0-136.25-61.29-136.25-136.25V153.73c0-74.97 61.31-136.25 136.25-136.25z"/></g></g></svg>