<svg xmlns="http://www.w3.org/2000/svg" width="13.359" height="9.293" viewBox="0 0 10.01 6.96" shape-rendering="geometricPrecision" text-rendering="geometricPrecision" image-rendering="optimizeQuality" fill-rule="evenodd" clip-rule="evenodd"><path d="M4.67 0C1.82 0 .4.22.4.66.18.79.05 1.71 0 3.4v.05c0 1.92.24 3 .71 3.26.37.17 1.21.25 2.54.25h4.58c1.06 0 1.69-.24 1.88-.71.2-.51.3-1.32.3-2.44V3.1c0-1.59-.2-2.52-.61-2.8C9.09.1 7.52 0 4.67 0zm-.66 2.08h.05c1.6.83 2.43 1.29 2.49 1.37L4.17 4.77h-.16V2.08z" fill="#cd0017" fill-rule="nonzero"/></svg>