<?xml version="1.0" encoding="UTF-8"?>
<!DOCTYPE svg PUBLIC "-//W3C//DTD SVG 1.1//EN" "http://www.w3.org/Graphics/SVG/1.1/DTD/svg11.dtd">
<!-- Creator: CorelDRAW 2018 (64-Bit) -->
<svg xmlns="http://www.w3.org/2000/svg" xml:space="preserve" width="3.5346mm" height="2.4589mm" version="1.1" style="shape-rendering:geometricPrecision; text-rendering:geometricPrecision; image-rendering:optimizeQuality; fill-rule:evenodd; clip-rule:evenodd"
viewBox="0 0 10.01 6.96"
 xmlns:xlink="http://www.w3.org/1999/xlink">
 <defs>
  <style type="text/css">
   <![CDATA[
    .fil0 {fill:#CD0017;fill-rule:nonzero}
   ]]>
  </style>
 </defs>
 <g id="Layer_x0020_1">
  <metadata id="CorelCorpID_0Corel-Layer"/>
  <path class="fil0" d="M4.67 0c-2.85,0 -4.27,0.22 -4.27,0.66 -0.22,0.13 -0.35,1.05 -0.4,2.74l0 0.05c0,1.92 0.24,3 0.71,3.26 0.37,0.17 1.21,0.25 2.54,0.25l4.58 0c1.06,0 1.69,-0.24 1.88,-0.71 0.2,-0.51 0.3,-1.32 0.3,-2.44l0 -0.71c0,-1.59 -0.2,-2.52 -0.61,-2.8 -0.31,-0.2 -1.88,-0.3 -4.73,-0.3zm-0.66 2.08l0.05 0c1.6,0.83 2.43,1.29 2.49,1.37l-2.38 1.32 -0.16 0 0 -2.69z"/>
 </g>
</svg>
