<svg xmlns="http://www.w3.org/2000/svg" width="4.781" height="4.938" viewBox="0 0 0.66 0.68" shape-rendering="geometricPrecision" text-rendering="geometricPrecision" image-rendering="optimizeQuality" fill-rule="evenodd" clip-rule="evenodd"><defs><style>.fil2{fill:#fefefe}.fil1{fill:#cd0017}</style></defs><g id="Layer_x0020_1"><g id="_2161917424"><path d="M.24 0c.04 0 .12.02.15.03.02.01.05.02.07.04 0 0 .01 0 .01.01C.48.09.49.1.5.1c.06.03.12.13.14.2.03.11 0 .28-.11.34C.43.7.31.68.2.62L.19.61C.16.59.13.57.09.54a.41.41 0 01-.1-.22A.167.167 0 010 .2C0 .19.01.17.01.16.03.09.16-.01.23-.01z" fill="#fefefe"/><path class="fil1" d="M.21.07C.16.06.13.07.09.12L.08.13C.08.14.07.14.07.15.06.17.06.18.05.2.04.23.05.26.06.29s.02.06.03.08C.1.39.12.41.15.44.19.47.23.5.27.52l.02.01C.34.56.4.56.46.55h.03C.64.47.56.51.45.45L.44.44A.238.238 0 01.31.28C.3.26.3.24.3.22.3.19.29.16.28.13.26.1.25.07.21.07z"/><path class="fil1" d="M.63.42C.64.39.63.36.62.31A.322.322 0 00.5.13C.49.12.48.12.46.1.45.09.44.09.43.08H.42a.3.3 0 00-.1-.04C.31.04.29.04.27.03H.24C.28.05.3.07.33.1l.01.01C.37.16.38.19.4.24l.03.09c.01.01.02.02.03.04l.02.02.01.01s0 .01.01.01c.05.05.11.07.12 0zM.6.52C.59.53.58.53.57.54.56.55.54.56.53.56H.52C.51.56.5.57.5.57S.49.57.49.58C.47.59.46.59.44.59H.42C.38.59.34.59.31.58.29.57.26.56.24.54L.22.53A.427.427 0 01.08.4.108.108 0 01.05.33c0 .01 0 .02.01.02v.02l.03.09c.02.03.04.06.06.08.02.02.05.04.09.07.12.07.3.08.37-.07C.61.53.62.52.62.51L.61.52z"/><path class="fil1" d="M.37.34c.02.04.06.07.1.08L.45.4.44.39C.42.37.41.36.4.34.39.32.38.29.37.26A.37.37 0 00.32.15C.33.17.33.2.34.23v.01c.01.04.02.07.03.1z"/><path class="fil2" d="M.56.34C.55.31.54.29.52.28c.01.01.02.04.03.06.01.03.01.05.01.07C.56.39.56.37.55.34z"/><path class="fil2" d="M.58.3C.56.26.53.23.51.21c.02.02.04.06.06.1.02.04.02.08.02.11C.6.39.59.35.58.3zM.12.29V.22v.07c0 .03.01.05.02.07C.13.35.12.32.11.3z"/><path class="fil2" d="M.08.26C.07.21.09.17.1.15.09.18.09.22.1.26.1.3.12.34.13.37A.16.16 0 01.09.26z"/></g></g></svg>