<?xml version="1.0" encoding="UTF-8"?>
<!DOCTYPE svg PUBLIC "-//W3C//DTD SVG 1.1//EN" "http://www.w3.org/Graphics/SVG/1.1/DTD/svg11.dtd">
<!-- Creator: CorelDRAW 2018 (64-Bit) -->
<svg xmlns="http://www.w3.org/2000/svg" xml:space="preserve" width="1.2651mm" height="1.3065mm" version="1.1" style="shape-rendering:geometricPrecision; text-rendering:geometricPrecision; image-rendering:optimizeQuality; fill-rule:evenodd; clip-rule:evenodd"
viewBox="0 0 0.66 0.68"
 xmlns:xlink="http://www.w3.org/1999/xlink">
 <defs>
  <style type="text/css">
   <![CDATA[
    .fil2 {fill:#FEFEFE}
    .fil0 {fill:#FEFEFE}
    .fil1 {fill:#CD0017}
   ]]>
  </style>
 </defs>
 <g id="Layer_x0020_1">
  <metadata id="CorelCorpID_0Corel-Layer"/>
  <g id="_2161917424">
   <path class="fil0" d="M0.24 0c0,0 0,0 0,0 0.04,-0 0.12,0.02 0.15,0.03 0.02,0.01 0.05,0.02 0.07,0.04 0,0 0.01,0 0.01,0.01 0.01,0.01 0.02,0.02 0.03,0.02 0.06,0.03 0.12,0.13 0.14,0.2 0.03,0.11 -0,0.28 -0.11,0.34 -0.1,0.06 -0.22,0.04 -0.33,-0.02l-0.01 -0.01c-0.03,-0.02 -0.06,-0.04 -0.1,-0.07 -0.05,-0.05 -0.08,-0.12 -0.1,-0.22 -0.01,-0.04 -0.01,-0.08 0.01,-0.12 0,-0.01 0.01,-0.03 0.01,-0.04 0.02,-0.07 0.15,-0.17 0.22,-0.17z"/>
   <path class="fil1" d="M0.21 0.07l0 0c-0.05,-0.01 -0.08,0 -0.12,0.05 -0,0 -0.01,0.01 -0.01,0.01 -0,0.01 -0.01,0.01 -0.01,0.02l-0 0c-0.01,0.02 -0.01,0.03 -0.02,0.05 -0.01,0.03 0,0.06 0.01,0.09 0.01,0.03 0.02,0.06 0.03,0.08 0.01,0.02 0.03,0.04 0.06,0.07 0.04,0.03 0.08,0.06 0.12,0.08l0.02 0.01c0.05,0.03 0.11,0.03 0.17,0.02 0,-0 0.01,-0 0.01,-0 0.01,-0 0.01,-0 0.02,-0l0 -0 0 -0 0 0 0 -0 0 -0 0 0 0 -0 0 0c0,-0 0,-0 0,-0l0 -0 0 -0 0 -0 0 -0 0 -0 0 -0 0 -0 0 -0 0 -0 0 -0 0 -0 0 -0 0 -0 0 -0 0 -0 0 -0 0 -0 0 -0 0 -0 0 -0 0 -0 0 -0 0 -0 0 -0 0 -0 0 -0 0 -0c0.15,-0.08 0.07,-0.04 -0.04,-0.1l-0.01 -0.01c-0.07,-0.04 -0.1,-0.07 -0.13,-0.16 -0.01,-0.02 -0.01,-0.04 -0.01,-0.06 -0,-0.03 -0.01,-0.06 -0.02,-0.09 -0.02,-0.03 -0.03,-0.06 -0.07,-0.06l-0 -0z"/>
   <path class="fil1" d="M0.63 0.42c0.01,-0.03 0,-0.06 -0.01,-0.11 -0.01,-0.06 -0.07,-0.15 -0.12,-0.18 -0.01,-0.01 -0.02,-0.01 -0.04,-0.03 -0.01,-0.01 -0.02,-0.01 -0.03,-0.02l-0.01 -0c-0.03,-0.02 -0.06,-0.03 -0.1,-0.04 -0.01,-0 -0.03,-0 -0.05,-0.01 -0,-0 -0.01,-0 -0.01,-0l-0 -0c-0,0 -0,0 -0.01,0 -0,0 -0.01,0 -0.01,0 0.04,0.02 0.06,0.04 0.09,0.07l0.01 0.01c0.03,0.05 0.04,0.08 0.06,0.13 0.01,0.03 0.02,0.06 0.03,0.09 0.01,0.01 0.02,0.02 0.03,0.04 0.01,0.01 0.02,0.02 0.02,0.02 0,0 0.01,0.01 0.01,0.01l0 0c0,0 0,0.01 0.01,0.01l0 0 0 0c0.05,0.05 0.11,0.07 0.12,-0z"/>
   <path class="fil1" d="M0.6 0.52l-0 0 -0 0c-0.01,0.01 -0.02,0.01 -0.03,0.02 -0.01,0.01 -0.03,0.02 -0.04,0.02 -0,0 -0,0 -0.01,0 -0.01,0 -0.02,0.01 -0.02,0.01 -0,0 -0.01,0 -0.01,0.01 -0.02,0.01 -0.03,0.01 -0.05,0.01 -0.01,0 -0.01,-0 -0.02,-0 -0.04,-0 -0.08,0 -0.11,-0.01 -0.02,-0.01 -0.05,-0.02 -0.07,-0.04l-0.02 -0.01c-0.05,-0.03 -0.1,-0.07 -0.14,-0.13 -0.02,-0.02 -0.03,-0.05 -0.03,-0.07l-0 -0 -0 -0c0,0.01 0,0.02 0.01,0.02l0 0.02c0.01,0.03 0.02,0.06 0.03,0.09 0.02,0.03 0.04,0.06 0.06,0.08 0.02,0.02 0.05,0.04 0.09,0.07 0.12,0.07 0.3,0.08 0.37,-0.07 0,-0.01 0.01,-0.02 0.01,-0.03 -0,0 -0.01,0.01 -0.01,0.01z"/>
   <path class="fil1" d="M0.37 0.34c0.02,0.04 0.06,0.07 0.1,0.08l-0 -0c-0.01,-0.01 -0.01,-0.01 -0.02,-0.02 -0,-0 -0.01,-0.01 -0.01,-0.01 -0.02,-0.02 -0.03,-0.03 -0.04,-0.05 -0.01,-0.02 -0.02,-0.05 -0.03,-0.08 -0.01,-0.04 -0.03,-0.08 -0.05,-0.11 0.01,0.02 0.01,0.05 0.02,0.08l0 0.01c0.01,0.04 0.02,0.07 0.03,0.1z"/>
   <path class="fil2" d="M0.56 0.34c-0.01,-0.03 -0.02,-0.05 -0.04,-0.06 0.01,0.01 0.02,0.04 0.03,0.06 0.01,0.03 0.01,0.05 0.01,0.07 0,-0.02 0,-0.04 -0.01,-0.07z"/>
   <path class="fil2" d="M0.58 0.3c-0.02,-0.04 -0.05,-0.07 -0.07,-0.09 0.02,0.02 0.04,0.06 0.06,0.1 0.02,0.04 0.02,0.08 0.02,0.11 0.01,-0.03 0,-0.07 -0.01,-0.12z"/>
   <path class="fil2" d="M0.12 0.29c-0,-0.03 -0,-0.05 0,-0.07 -0,0.02 -0,0.04 0,0.07 0,0.03 0.01,0.05 0.02,0.07 -0.01,-0.01 -0.02,-0.04 -0.03,-0.06z"/>
   <path class="fil2" d="M0.08 0.26c-0.01,-0.05 0.01,-0.09 0.02,-0.11 -0.01,0.03 -0.01,0.07 -0,0.11 0,0.04 0.02,0.08 0.03,0.11 -0.02,-0.02 -0.04,-0.06 -0.04,-0.11z"/>
  </g>
 </g>
</svg>
