<svg xmlns="http://www.w3.org/2000/svg" width="41.213" height="13.022" viewBox="0 0 166.14 52.5" shape-rendering="geometricPrecision" text-rendering="geometricPrecision" image-rendering="optimizeQuality" fill-rule="evenodd" clip-rule="evenodd"><path fill="#c30018" d="M0 0h166.14v52.5H0z"/><path d="M155.93 11.13a3.034 3.034 0 010 6.07 3.03 3.03 0 01-3.03-3.04c0-1.67 1.35-3.03 3.03-3.03zm0-.6c-2.01 0-3.64 1.63-3.64 3.63a3.64 3.64 0 003.64 3.64c2.01 0 3.63-1.63 3.63-3.64a3.63 3.63 0 00-3.63-3.63zm-1.39 5.59h.63v-1.66h.37c.48 0 .67.17 1.17 1.05l.34.61h.77l-.47-.76c-.39-.63-.61-.87-.91-.98.65-.06 1.12-.51 1.12-1.12 0-.39-.26-.78-.61-.93-.27-.11-.46-.13-1.06-.13h-1.35v3.91zm.63-2.2v-1.17h.72c.74 0 1 .15 1 .58 0 .41-.3.59-.95.59h-.77zm-114.8-4.7c-.8 1.7-1.97 2.5-2.77 4.17l-2.52 4.47c-2.06 3.29-6.94 9.44-6.94 9.44-4.39 4.17-8.69 10.75-15.3 13.36.14-6.28 4.39-10.86 8.34-15.58 6.78-6.17 11.27-12.51 19.2-15.86zM77.3 36c2.86-10.46 6.11-14.98 10.33-22.03 1.18-.14 2.58.38 2.8 1.37 0 .33-.08.66.27.85-5.02 6.1-10.49 18.68-8.52 17.52 1.34-.8 2.16-1.72 3.19-2.89 5.42-6.15 6.99-8.59 11.34-15.08.36.11 1.37 0 1.37 0 3.79 2.72-.63 5.66-1.83 8.32-2.16 4.79-4.73 7.88-5.55 12.71l.28.27c11.18-9.7 15.57-17.74 16.78-18.29 1.01-.85 1.48-1.89 1.67-3.07.74-.82 1.47-.42 2.22 0 .84.48.74 1.48 1.13 2.22-2.11 3.87-2.77 7.42-4.25 11.26-1.28 3.32 3.89-2.14 3.89-2.14 3.46-3.7 7.76-7.08 10.86-11.69 1.32.28 3.2.44 4.17 1.95 1.25 1.97-.02 4.03-1.23 5.84-.6 2.77-1.99 5.46-2.47 8.26 3.59-3.07 8.5-7.16 12.48-9.36 0 0 7.95-5.51 12.23-3.9 1.67.36 1.01 2.17 1.95 3.04-1.56 6.28-4.42 12.04-7.24 17.8.19 1.76-1.04 2.94-1.37 4.47-.91 1.78-3.18 5.7-3.35 5.54-.08.74-.93 1.15-.82 1.95-.36-.17-.28-.52-.28-.82 0 0-.11-.58 0-.82 0 0 .63-3.46.82-5.02.47-.6.91-1.62.55-2.22 0 0 1.1-2.61.85-2.5.25-1.12 2.74-5.76 3.04-7.24 1.4-3.62 2.8-7.24 4.17-10.86-1.01-.71-2.03.19-3.05.3-3.18 1.07-6.42 2.55-8.91 4.72-1.26.06-11.58 10.29-15.85 14.46-1.81.58-2.44-1.07-3.05-2.22 1.7-4.21 4.19-12.05 6.25-16.13l-5.86 6.3c-4.17 4.83-7.24 7.69-11.41 11.78-1.56.38-2.21.51-2.5-1.95-.52-2.93 2.08-9.29 2.98-11.68l-3.92 4.68c-2.96 3.76-5.94 7.36-10.49 10.07-1.97.36-2.96-.41-3.9-1.95-.88-2.96.79-5.69 1.56-8.3 0 0-1.56 3.13-5.97 8.03-.8.89-3.41 1.54-4.78.27-.34-.31-.53-.48-.72-.95-6.06 3.15-13.55 2.18-18.83 5.4-1.59.27-2.25-1.07-2.77-2.22v-.55C63.54 36.75 68.9 29.11 74.68 22c0 0 4.41-6.75 5.07-7.77 1.56-1.54.89-3.44-.38-3.62-5.21-.74-8.11 1.29-16.62.97-.84-.3-1.87-.75-2.16-1.75-.17-.61-.77-1.4-.21-1.96 2.22 1.01 5.35.79 7.78.55 5.05.01 13.34-3.24 16.05 2.51.17 4.48-3.53 7.2-5.29 10.82-4.28 5.46-8.12 11.36-12.81 16.4.71.08 1.97-.11 2.8-.55 1.62-.27 7.63-1.54 8.37-1.62zM44.54 5.6c.77.49 1.56 1.78.85 2.8-4.94 8.59-10.3 17.81-14.06 26.89l1.35-.84c6.01-6.3 11.87-13.52 12.91-15.39.86-1.55 2.36-4.55 3.68-6.09 1.15.16 2.58.58 2.8 1.95-2.2 5.5-4.82 11.26-6.41 15.46.87-.85 1.62-2.17 2.46-3.24 5.61-7.07 5.21-6.72 12.27-12.07.62-.47 1.24-.89 2.14-1.21 2.75-.98 5.22-.08 7.33 1.49 1.04 1.18 1.76 2.5 2.22 3.9-.19.77.46 2.58-.55 3.35-2.36-.22-1.65-3.21-3.35-4.44-.77-.93-1.67-1.56-2.77-1.67-4.44.91-8.81 5.78-13.09 10.83-1.91 2.25-2.71 3.75-4.44 6.15-2.5 3.46-4.28 5.93-6.39 8.89-1.32.82-2.8-.14-3.35-1.4-.33-5.51 4.44-10.01 6.22-15.01.08-.27-4.12 5.41-6.73 8.07l-7.01 7.52c-1.1.16-2.06.88-3.05 0-2.47-2.14-.71-5.13 0-7.52.08-.47.82-1.54.27-1.4-4.58 4.39-8.69 11.06-15.3 11.14-1.89.02-2.77-2.06-3.07-3.9.14-4.42 2.74-8.04 4.75-11.41 4.47-5.82 7.88-9.89 14.16-14.86 3.97-3.14 7.48-5.75 10.85-7.12.96-1.21 2.96.08 3.89-1.12.52-.17 1.4.27 1.4.27z" fill="#fefefe"/></svg>