<?xml version="1.0" encoding="UTF-8"?>
<!DOCTYPE svg PUBLIC "-//W3C//DTD SVG 1.1//EN" "http://www.w3.org/Graphics/SVG/1.1/DTD/svg11.dtd">
<!-- Creator: CorelDRAW 2018 (64-Bit) -->
<svg xmlns="http://www.w3.org/2000/svg" xml:space="preserve" width="10.9043mm" height="3.4454mm" version="1.1" style="shape-rendering:geometricPrecision; text-rendering:geometricPrecision; image-rendering:optimizeQuality; fill-rule:evenodd; clip-rule:evenodd"
viewBox="0 0 166.14 52.5"
 xmlns:xlink="http://www.w3.org/1999/xlink">
 <defs>
  <style type="text/css">
   <![CDATA[
    .fil1 {fill:#FEFEFE}
    .fil0 {fill:#C30018}
   ]]>
  </style>
 </defs>
 <g id="Layer_x0020_1">
  <metadata id="CorelCorpID_0Corel-Layer"/>
  <g id="_3631361680">
   <polygon class="fil0" points="-0,0 166.14,0 166.14,52.5 -0,52.5 "/>
   <path class="fil1" d="M155.93 11.13c1.67,0 3.03,1.36 3.03,3.03 0,1.68 -1.36,3.04 -3.03,3.04 -1.68,0 -3.03,-1.36 -3.03,-3.04 0,-1.67 1.35,-3.03 3.03,-3.03l0 0zm0 -0.6c-2.01,0 -3.64,1.63 -3.64,3.63 0,2.01 1.63,3.64 3.64,3.64 2.01,0 3.63,-1.63 3.63,-3.64 0,-2.01 -1.63,-3.63 -3.63,-3.63l0 0zm-1.39 5.59l0.63 0 0 -1.66 0.37 0c0.48,0 0.67,0.17 1.17,1.05l0.34 0.61 0.77 0 -0.47 -0.76c-0.39,-0.63 -0.61,-0.87 -0.91,-0.98 0.65,-0.06 1.12,-0.51 1.12,-1.12 0,-0.39 -0.26,-0.78 -0.61,-0.93 -0.27,-0.11 -0.46,-0.13 -1.06,-0.13l-1.35 0 0 3.91zm0.63 -2.2l0 -1.17 0.72 0c0.74,0 1,0.15 1,0.58 0,0.41 -0.3,0.59 -0.95,0.59l-0.77 0 0 0z"/>
   <path class="fil1" d="M40.37 9.22c-0.8,1.7 -1.97,2.5 -2.77,4.17l-2.52 4.47c-2.06,3.29 -6.94,9.44 -6.94,9.44 -4.39,4.17 -8.69,10.75 -15.3,13.36 0.14,-6.28 4.39,-10.86 8.34,-15.58 6.78,-6.17 11.27,-12.51 19.2,-15.86l0 0zm36.93 26.78c2.86,-10.46 6.11,-14.98 10.33,-22.03 1.18,-0.14 2.58,0.38 2.8,1.37 0,0.33 -0.08,0.66 0.27,0.85 -5.02,6.1 -10.49,18.68 -8.52,17.52 1.34,-0.8 2.16,-1.72 3.19,-2.89 5.42,-6.15 6.99,-8.59 11.34,-15.08 0.36,0.11 1.37,0 1.37,0 3.79,2.72 -0.63,5.66 -1.83,8.32 -2.16,4.79 -4.73,7.88 -5.55,12.71l0.28 0.27c11.18,-9.7 15.57,-17.74 16.78,-18.29 1.01,-0.85 1.48,-1.89 1.67,-3.07 0.74,-0.82 1.47,-0.42 2.22,0 0.84,0.48 0.74,1.48 1.13,2.22 -2.11,3.87 -2.77,7.42 -4.25,11.26 -1.28,3.32 3.89,-2.14 3.89,-2.14 3.46,-3.7 7.76,-7.08 10.86,-11.69 1.32,0.28 3.2,0.44 4.17,1.95 1.25,1.97 -0.02,4.03 -1.23,5.84 -0.6,2.77 -1.99,5.46 -2.47,8.26 3.59,-3.07 8.5,-7.16 12.48,-9.36 0,0 7.95,-5.51 12.23,-3.9 1.67,0.36 1.01,2.17 1.95,3.04 -1.56,6.28 -4.42,12.04 -7.24,17.8 0.19,1.76 -1.04,2.94 -1.37,4.47 -0.91,1.78 -3.18,5.7 -3.35,5.54 -0.08,0.74 -0.93,1.15 -0.82,1.95 -0.36,-0.17 -0.28,-0.52 -0.28,-0.82 0,0 -0.11,-0.58 0,-0.82 0,0 0.63,-3.46 0.82,-5.02 0.47,-0.6 0.91,-1.62 0.55,-2.22 0,0 1.1,-2.61 0.85,-2.5 0.25,-1.12 2.74,-5.76 3.04,-7.24 1.4,-3.62 2.8,-7.24 4.17,-10.86 -1.01,-0.71 -2.03,0.19 -3.05,0.3 -3.18,1.07 -6.42,2.55 -8.91,4.72 -1.26,0.06 -11.58,10.29 -15.85,14.46 -1.81,0.58 -2.44,-1.07 -3.05,-2.22 1.7,-4.21 4.19,-12.05 6.25,-16.13l-5.86 6.3c-4.17,4.83 -7.24,7.69 -11.41,11.78 -1.56,0.38 -2.21,0.51 -2.5,-1.95 -0.52,-2.93 2.08,-9.29 2.98,-11.68l-3.92 4.68c-2.96,3.76 -5.94,7.36 -10.49,10.07 -1.97,0.36 -2.96,-0.41 -3.9,-1.95 -0.88,-2.96 0.79,-5.69 1.56,-8.3 0,0 -1.56,3.13 -5.97,8.03 -0.8,0.89 -3.41,1.54 -4.78,0.27 -0.34,-0.31 -0.53,-0.48 -0.72,-0.95 -6.06,3.15 -13.55,2.18 -18.83,5.4 -1.59,0.27 -2.25,-1.07 -2.77,-2.22l0 -0.55c7.98,-4.75 13.34,-12.39 19.12,-19.5 0,0 4.41,-6.75 5.07,-7.77 1.56,-1.54 0.89,-3.44 -0.38,-3.62 -5.21,-0.74 -8.11,1.29 -16.62,0.97 -0.84,-0.3 -1.87,-0.75 -2.16,-1.75 -0.17,-0.61 -0.77,-1.4 -0.21,-1.96 2.22,1.01 5.35,0.79 7.78,0.55 5.05,0.01 13.34,-3.24 16.05,2.51 0.17,4.48 -3.53,7.2 -5.29,10.82 -4.28,5.46 -8.12,11.36 -12.81,16.4 0.71,0.08 1.97,-0.11 2.8,-0.55 1.62,-0.27 7.63,-1.54 8.37,-1.62l0 0zm-32.76 -30.4c0.77,0.49 1.56,1.78 0.85,2.8 -4.94,8.59 -10.3,17.81 -14.06,26.89l1.35 -0.84c6.01,-6.3 11.87,-13.52 12.91,-15.39 0.86,-1.55 2.36,-4.55 3.68,-6.09 1.15,0.16 2.58,0.58 2.8,1.95 -2.2,5.5 -4.82,11.26 -6.41,15.46 0.87,-0.85 1.62,-2.17 2.46,-3.24 5.61,-7.07 5.21,-6.72 12.27,-12.07 0.62,-0.47 1.24,-0.89 2.14,-1.21 2.75,-0.98 5.22,-0.08 7.33,1.49 1.04,1.18 1.76,2.5 2.22,3.9 -0.19,0.77 0.46,2.58 -0.55,3.35 -2.36,-0.22 -1.65,-3.21 -3.35,-4.44 -0.77,-0.93 -1.67,-1.56 -2.77,-1.67 -4.44,0.91 -8.81,5.78 -13.09,10.83 -1.91,2.25 -2.71,3.75 -4.44,6.15 -2.5,3.46 -4.28,5.93 -6.39,8.89 -1.32,0.82 -2.8,-0.14 -3.35,-1.4 -0.33,-5.51 4.44,-10.01 6.22,-15.01 0.08,-0.27 -4.12,5.41 -6.73,8.07l-7.01 7.52c-1.1,0.16 -2.06,0.88 -3.05,0 -2.47,-2.14 -0.71,-5.13 0,-7.52 0.08,-0.47 0.82,-1.54 0.27,-1.4 -4.58,4.39 -8.69,11.06 -15.3,11.14 -1.89,0.02 -2.77,-2.06 -3.07,-3.9 0.14,-4.42 2.74,-8.04 4.75,-11.41 4.47,-5.82 7.88,-9.89 14.16,-14.86 3.97,-3.14 7.48,-5.75 10.85,-7.12 0.96,-1.21 2.96,0.08 3.89,-1.12 0.52,-0.17 1.4,0.27 1.4,0.27l0 0z"/>
  </g>
 </g>
</svg>
