<svg xmlns="http://www.w3.org/2000/svg" width="42.487" height="44.624" viewBox="0 0 38.91 40.87" shape-rendering="geometricPrecision" text-rendering="geometricPrecision" image-rendering="optimizeQuality" fill-rule="evenodd" clip-rule="evenodd"><path d="M38.16 31.92l.75-.98c-.79-.25-1.56-.92-2.74-1.38-2.78-1.08-6.55-2.17-9.16-2.43-.34-.03-.63-.11-.86-.22a1.36 1.36 0 01-.67-.71c-.14-.35-.18-.78-.13-1.28.09-.88.44-1.92.99-3.02l.29-.59c1.25-2.49 3.42-6.82 3.25-11.08-.11-2.86-1.11-5.55-3.05-7.46C25.12 1.08 22.69.02 19.51.02h-.12c-3.18 0-5.61 1.06-7.32 2.75-1.94 1.91-2.93 4.61-3.05 7.46-.17 4.26 1.99 8.58 3.24 11.08l.3.59c.54 1.09.9 2.14.98 3.02.05.5.01.94-.13 1.28-.13.31-.35.55-.67.71-.23.11-.51.19-.86.22-2.6.26-6.38 1.22-9.16 2.3-1.18.46-1.96 1.27-2.74 1.52l.82.91c.75-.25 1.3-.94 2.34-1.34 2.71-1.06 6.4-1.98 8.85-2.22.49-.05.91-.17 1.26-.34.6-.29 1-.75 1.23-1.32.22-.53.28-1.16.21-1.84-.1-1.02-.5-2.21-1.1-3.42l-.3-.59c-1.2-2.4-3.28-6.55-3.12-10.51.1-2.57.98-4.99 2.7-6.68 1.5-1.48 3.65-2.41 6.5-2.41h.12c2.85 0 5 .93 6.5 2.41 1.71 1.69 2.59 4.11 2.7 6.68.16 3.97-1.92 8.12-3.13 10.51l-.3.59c-.6 1.21-1 2.4-1.1 3.42-.07.68-.01 1.31.21 1.84.23.57.64 1.02 1.23 1.32.35.17.77.29 1.26.34 2.45.25 6.14 1.3 8.85 2.36 1.02.4 1.67 1.03 2.41 1.28z" fill="#a3a4a4" fill-rule="nonzero"/><path d="M38.19 31.92c-.74-.25-1.39-.88-2.41-1.28-2.71-1.06-6.4-2.11-8.85-2.36-.49-.05-.91-.17-1.26-.34-.6-.29-1-.75-1.23-1.32-.22-.53-.28-1.16-.21-1.84.1-1.02.5-2.21 1.1-3.42l.3-.59c1.2-2.4 3.29-6.55 3.13-10.51-.1-2.57-.98-4.99-2.7-6.68-1.5-1.48-3.65-2.41-6.5-2.41h-.12c-2.85 0-5 .93-6.5 2.41-1.71 1.69-2.59 4.11-2.7 6.68-.16 3.97 1.92 8.12 3.12 10.51l.3.59c.6 1.22 1 2.4 1.1 3.42.07.68.01 1.31-.21 1.84-.23.57-.64 1.02-1.23 1.32-.35.17-.77.29-1.26.34-2.45.25-6.14 1.17-8.85 2.22-1.04.41-1.71 1.18-2.46 1.43.53.66 1.1 1.29 1.7 1.88a24.002 24.002 0 0017.03 7.05c6.65 0 12.67-2.7 17.03-7.05.6-.6 1.17-1.24 1.71-1.9z" fill="#e7e7e7"/></svg>