<?xml version="1.0" encoding="UTF-8"?>
<!DOCTYPE svg PUBLIC "-//W3C//DTD SVG 1.1//EN" "http://www.w3.org/Graphics/SVG/1.1/DTD/svg11.dtd">
<!-- Creator: CorelDRAW 2018 (64-Bit) -->
<svg xmlns="http://www.w3.org/2000/svg" xml:space="preserve" width="11.2413mm" height="11.8068mm" version="1.1" style="shape-rendering:geometricPrecision; text-rendering:geometricPrecision; image-rendering:optimizeQuality; fill-rule:evenodd; clip-rule:evenodd"
viewBox="0 0 38.91 40.87"
 xmlns:xlink="http://www.w3.org/1999/xlink">
 <defs>
  <style type="text/css">
   <![CDATA[
    .fil1 {fill:#E7E7E7}
    .fil0 {fill:#A3A4A4;fill-rule:nonzero}
   ]]>
  </style>
 </defs>
 <g id="Layer_x0020_1">
  <metadata id="CorelCorpID_0Corel-Layer"/>
  <path class="fil0" d="M38.16 31.92l0.75 -0.98c-0.79,-0.25 -1.56,-0.92 -2.74,-1.38 -2.78,-1.08 -6.55,-2.17 -9.16,-2.43 -0.34,-0.03 -0.63,-0.11 -0.86,-0.22 -0.33,-0.16 -0.54,-0.41 -0.67,-0.71 -0.14,-0.35 -0.18,-0.78 -0.13,-1.28 0.09,-0.88 0.44,-1.92 0.99,-3.02l0.29 -0.59c1.25,-2.49 3.42,-6.82 3.25,-11.08 -0.11,-2.86 -1.11,-5.55 -3.05,-7.46 -1.71,-1.69 -4.14,-2.75 -7.32,-2.75 -0.01,0 -0.11,0 -0.12,0 -3.18,0 -5.61,1.06 -7.32,2.75 -1.94,1.91 -2.93,4.61 -3.05,7.46 -0.17,4.26 1.99,8.58 3.24,11.08l0.3 0.59c0.54,1.09 0.9,2.14 0.98,3.02 0.05,0.5 0.01,0.94 -0.13,1.28 -0.13,0.31 -0.35,0.55 -0.67,0.71 -0.23,0.11 -0.51,0.19 -0.86,0.22 -2.6,0.26 -6.38,1.22 -9.16,2.3 -1.18,0.46 -1.96,1.27 -2.74,1.52l0.82 0.91c0.75,-0.25 1.3,-0.94 2.34,-1.34 2.71,-1.06 6.4,-1.98 8.85,-2.22 0.49,-0.05 0.91,-0.17 1.26,-0.34 0.6,-0.29 1,-0.75 1.23,-1.32 0.22,-0.53 0.28,-1.16 0.21,-1.84 -0.1,-1.02 -0.5,-2.21 -1.1,-3.42l-0.3 -0.59c-1.2,-2.4 -3.28,-6.55 -3.12,-10.51 0.1,-2.57 0.98,-4.99 2.7,-6.68 1.5,-1.48 3.65,-2.41 6.5,-2.41l0.12 0c2.85,0 5,0.93 6.5,2.41 1.71,1.69 2.59,4.11 2.7,6.68 0.16,3.97 -1.92,8.12 -3.13,10.51l-0.3 0.59c-0.6,1.21 -1,2.4 -1.1,3.42 -0.07,0.68 -0.01,1.31 0.21,1.84 0.23,0.57 0.64,1.02 1.23,1.32 0.35,0.17 0.77,0.29 1.26,0.34 2.45,0.25 6.14,1.3 8.85,2.36 1.02,0.4 1.67,1.03 2.41,1.28z"/>
  <path class="fil1" d="M38.19 31.92c-0.74,-0.25 -1.39,-0.88 -2.41,-1.28 -2.71,-1.06 -6.4,-2.11 -8.85,-2.36 -0.49,-0.05 -0.91,-0.17 -1.26,-0.34 -0.6,-0.29 -1,-0.75 -1.23,-1.32 -0.22,-0.53 -0.28,-1.16 -0.21,-1.84 0.1,-1.02 0.5,-2.21 1.1,-3.42l0.3 -0.59c1.2,-2.4 3.29,-6.55 3.13,-10.51 -0.1,-2.57 -0.98,-4.99 -2.7,-6.68 -1.5,-1.48 -3.65,-2.41 -6.5,-2.41l-0.12 -0c-2.85,0 -5,0.93 -6.5,2.41 -1.71,1.69 -2.59,4.11 -2.7,6.68 -0.16,3.97 1.92,8.12 3.12,10.51l0.3 0.59c0.6,1.22 1,2.4 1.1,3.42 0.07,0.68 0.01,1.31 -0.21,1.84 -0.23,0.57 -0.64,1.02 -1.23,1.32 -0.35,0.17 -0.77,0.29 -1.26,0.34 -2.45,0.25 -6.14,1.17 -8.85,2.22 -1.04,0.41 -1.71,1.18 -2.46,1.43 0.53,0.66 1.1,1.29 1.7,1.88 4.36,4.36 10.38,7.05 17.03,7.05 6.65,0 12.67,-2.7 17.03,-7.05 0.6,-0.6 1.17,-1.24 1.71,-1.9z"/>
 </g>
</svg>
