<svg xmlns="http://www.w3.org/2000/svg" width="12.153" height="12.153" viewBox="0 0 6.03 6.03" shape-rendering="geometricPrecision" text-rendering="geometricPrecision" image-rendering="optimizeQuality" fill-rule="evenodd" clip-rule="evenodd"><path d="M3.02 0c.83 0 1.59.34 2.13.88a3.016 3.016 0 010 4.26 3.016 3.016 0 01-4.26 0 3.016 3.016 0 010-4.26C1.44.33 2.19 0 3.02 0z" fill="#fefefe" fill-rule="nonzero"/><path d="M5.22 4.93c-.17-.13-1.16-.41-1.4-.43-.07-.03-.15-.05-.18-.12-.03-.06-.03-.14-.03-.21.39-.89.58-1.18.55-1.81-.01-.3-.17-.58-.38-.78-.18-.17-.44-.28-.79-.28h-.01c-.35 0-.61.11-.79.28-.21.2-.32.48-.33.78-.02.46.17 1 .32 1.28l.04.07c.07.14.11.32.12.44.01.08 0 .15-.03.21-.03.07-.13.08-.21.11-.86.12-1.17.39-1.33.47.06.08.06.1.13.17.53.51 1.26.82 2.07.82.81 0 1.54-.31 2.07-.82.07-.07.09-.11.16-.19z" fill="#e7e7e7"/><path d="M3.02 1.18h.01c.34 0 .65.1.9.34.24.24.36.57.37.91.02.47-.19.92-.39 1.33l-.03.07c-.05.1-.1.23-.11.34 0 .04 0 .09.01.13.01.03.03.05.06.06.03.01.06.02.09.02.34.03.77.16 1.1.29.11.04.15.08.25.12l.05.02-.14.19-.03-.01c-.1-.03-.11-.06-.21-.1-.31-.12-.71-.24-1.04-.28a.75.75 0 01-.16-.04.372.372 0 01-.17-.18.484.484 0 01-.03-.24c.01-.14.07-.29.13-.42l.03-.07c.18-.37.38-.8.37-1.23-.01-.28-.1-.56-.31-.76-.2-.2-.47-.27-.74-.27h-.01c-.28 0-.54.08-.74.27-.2.2-.3.48-.31.76-.02.42.18.86.37 1.23l.04.07c.06.13.12.28.13.42.01.08 0 .16-.03.24-.03.08-.09.14-.17.18-.05.03-.11.04-.16.04-.33.03-.73.14-1.04.26-.1.04-.13.11-.23.15l-.02.01-.16-.17.06-.02c.1-.03.16-.12.27-.17.33-.13.75-.24 1.1-.27.03 0 .06-.01.09-.02a.09.09 0 00.06-.06c.02-.04.02-.09.01-.13a.97.97 0 00-.11-.34l-.04-.07c-.21-.41-.41-.87-.39-1.33.01-.34.13-.67.37-.91s.56-.34.9-.34h.01z" fill="#767676"/></svg>