<?xml version="1.0" encoding="UTF-8"?>
<!DOCTYPE svg PUBLIC "-//W3C//DTD SVG 1.1//EN" "http://www.w3.org/Graphics/SVG/1.1/DTD/svg11.dtd">
<!-- Creator: CorelDRAW 2018 (64-Bit) -->
<svg xmlns="http://www.w3.org/2000/svg" xml:space="preserve" width="3.2155mm" height="3.2155mm" version="1.1" style="shape-rendering:geometricPrecision; text-rendering:geometricPrecision; image-rendering:optimizeQuality; fill-rule:evenodd; clip-rule:evenodd"
viewBox="0 0 6.03 6.03"
 xmlns:xlink="http://www.w3.org/1999/xlink">
 <defs>
  <style type="text/css">
   <![CDATA[
    .fil1 {fill:#E7E7E7}
    .fil2 {fill:#767676}
    .fil0 {fill:#FEFEFE;fill-rule:nonzero}
   ]]>
  </style>
 </defs>
 <g id="Layer_x0020_1">
  <metadata id="CorelCorpID_0Corel-Layer"/>
  <path class="fil0" d="M3.02 0c0.83,0 1.59,0.34 2.13,0.88 0.55,0.55 0.88,1.3 0.88,2.13 0,0.83 -0.34,1.59 -0.88,2.13 -0.55,0.55 -1.3,0.88 -2.13,0.88 -0.83,0 -1.59,-0.34 -2.13,-0.88 -0.55,-0.55 -0.88,-1.3 -0.88,-2.13 0,-0.83 0.34,-1.59 0.88,-2.13 0.55,-0.55 1.3,-0.88 2.13,-0.88z"/>
  <path class="fil1" d="M5.22 4.93c-0.17,-0.13 -1.16,-0.41 -1.4,-0.43 -0.07,-0.03 -0.15,-0.05 -0.18,-0.12 -0.03,-0.06 -0.03,-0.14 -0.03,-0.21 0.39,-0.89 0.58,-1.18 0.55,-1.81 -0.01,-0.3 -0.17,-0.58 -0.38,-0.78 -0.18,-0.17 -0.44,-0.28 -0.79,-0.28l-0.01 0c-0.35,0 -0.61,0.11 -0.79,0.28 -0.21,0.2 -0.32,0.48 -0.33,0.78 -0.02,0.46 0.17,1 0.32,1.28l0.04 0.07c0.07,0.14 0.11,0.32 0.12,0.44 0.01,0.08 0,0.15 -0.03,0.21 -0.03,0.07 -0.13,0.08 -0.21,0.11 -0.86,0.12 -1.17,0.39 -1.33,0.47 0.06,0.08 0.06,0.1 0.13,0.17 0.53,0.51 1.26,0.82 2.07,0.82 0.81,0 1.54,-0.31 2.07,-0.82 0.07,-0.07 0.09,-0.11 0.16,-0.19z"/>
  <path class="fil2" d="M3.02 1.18l0.01 0c0.34,0 0.65,0.1 0.9,0.34 0.24,0.24 0.36,0.57 0.37,0.91 0.02,0.47 -0.19,0.92 -0.39,1.33l-0.03 0.07c-0.05,0.1 -0.1,0.23 -0.11,0.34 -0,0.04 -0,0.09 0.01,0.13 0.01,0.03 0.03,0.05 0.06,0.06 0.03,0.01 0.06,0.02 0.09,0.02 0.34,0.03 0.77,0.16 1.1,0.29 0.11,0.04 0.15,0.08 0.25,0.12l0.05 0.02 -0.14 0.19 -0.03 -0.01c-0.1,-0.03 -0.11,-0.06 -0.21,-0.1 -0.31,-0.12 -0.71,-0.24 -1.04,-0.28 -0.06,-0.01 -0.11,-0.02 -0.16,-0.04 -0.08,-0.04 -0.13,-0.1 -0.17,-0.18 -0.03,-0.07 -0.04,-0.16 -0.03,-0.24 0.01,-0.14 0.07,-0.29 0.13,-0.42l0.03 -0.07c0.18,-0.37 0.38,-0.8 0.37,-1.23 -0.01,-0.28 -0.1,-0.56 -0.31,-0.76 -0.2,-0.2 -0.47,-0.27 -0.74,-0.27l-0.01 -0c-0.28,0 -0.54,0.08 -0.74,0.27 -0.2,0.2 -0.3,0.48 -0.31,0.76 -0.02,0.42 0.18,0.86 0.37,1.23l0.04 0.07c0.06,0.13 0.12,0.28 0.13,0.42 0.01,0.08 0,0.16 -0.03,0.24 -0.03,0.08 -0.09,0.14 -0.17,0.18 -0.05,0.03 -0.11,0.04 -0.16,0.04 -0.33,0.03 -0.73,0.14 -1.04,0.26 -0.1,0.04 -0.13,0.11 -0.23,0.15l-0.02 0.01 -0.16 -0.17 0.06 -0.02c0.1,-0.03 0.16,-0.12 0.27,-0.17 0.33,-0.13 0.75,-0.24 1.1,-0.27 0.03,-0 0.06,-0.01 0.09,-0.02 0.03,-0.01 0.05,-0.03 0.06,-0.06 0.02,-0.04 0.02,-0.09 0.01,-0.13 -0.01,-0.12 -0.06,-0.24 -0.11,-0.34l-0.04 -0.07c-0.21,-0.41 -0.41,-0.87 -0.39,-1.33 0.01,-0.34 0.13,-0.67 0.37,-0.91 0.24,-0.24 0.56,-0.34 0.9,-0.34l0.01 0z"/>
 </g>
</svg>
