<?xml version="1.0" encoding="UTF-8"?>
<!DOCTYPE svg PUBLIC "-//W3C//DTD SVG 1.1//EN" "http://www.w3.org/Graphics/SVG/1.1/DTD/svg11.dtd">
<!-- Creator: CorelDRAW 2018 (64-Bit) -->
<svg xmlns="http://www.w3.org/2000/svg" xml:space="preserve" width="32.71mm" height="21.4309mm" version="1.1" style="shape-rendering:geometricPrecision; text-rendering:geometricPrecision; image-rendering:optimizeQuality; fill-rule:evenodd; clip-rule:evenodd"
viewBox="0 0 742.52 486.48"
 xmlns:xlink="http://www.w3.org/1999/xlink">
 <defs>
  <style type="text/css">
   <![CDATA[
    .fil1 {fill:#CD0017}
    .fil0 {fill:#CD0017;fill-rule:nonzero}
   ]]>
  </style>
 </defs>
 <g id="Layer_x0020_1">
  <metadata id="CorelCorpID_0Corel-Layer"/>
  <g id="_2067910592">
   <g>
    <g>
     <path class="fil0" d="M262.27 302.87c1.65,6.34 3.27,14.71 4.01,25.97 1.73,25.97 -1.02,26.94 3.84,27.22 -1.14,1.62 -1.2,3.1 -0.51,4.38 1.48,1.02 3.1,1.73 4.64,2.42 1.54,0.68 3.24,1.45 4.52,2.59 5.55,1.17 11.37,0.71 11.12,-1.99 0.23,-2.56 1.14,0.48 3.27,-2.47 1.02,-5.77 -9.98,-3.81 -14.11,-13.03 -6.43,-14.28 -6.37,-55.75 -0.71,-61.83 7.11,-7.62 10.13,-27.48 13.08,-50.88 -3.73,-1.76 -7.45,-3.67 -11.18,-5.72l-0.65 5.12c-3.41,27.62 -6.4,51.42 -14.9,60.58 -0.99,1.05 -1.79,3.84 -2.42,7.65zm132.6 61.58c5.97,0 10.35,-1.59 8.08,-4.01 5.63,-1.22 0.25,-4.1 -4.84,-5.21 -8.9,-7.42 -1.57,-50.91 0.94,-57.23 1.91,-4.72 21.16,-42.66 33.19,-63.06l-1.68 0.14c-0.11,0 -0.26,0 -0.4,0 -6.49,3.92 -19.85,18.15 -39.85,68.63l-0.48 1.19c-2.25,5.69 -6.57,32.48 -4.95,47.44l0.43 0.23 -0.23 1.34c0.48,3.41 1.37,6.06 2.7,7.48 1.79,0.43 5.09,1.39 7.08,3.04zm-91.1 -264.37c-56.77,0 -37.46,44.63 -48.55,55.78 -7.31,11.35 -14.22,14.02 -22.07,28.78 -0.08,0.08 -0.17,0.14 -0.26,0.37 0,0 -0.03,0.17 -0.03,0.23 -4.04,7.97 -5.75,18.17 -2.73,31.71 0.23,0.91 0.57,2.05 0.82,3.1 0,7.96 0.46,15.76 1.71,21.73 0.28,5.09 0.8,9.84 1.68,13.68 0.17,0.71 0.26,1.42 0.4,2.16 0.42,12.32 -1.85,21.98 -1.85,21.98 0,0 1.93,-5.03 3.13,-12.57 0.97,13.77 -1.68,25.06 -1.68,25.06 0,0 2.7,-6.91 3.64,-16.84 1.42,-6.03 2.73,-15.16 1.25,-25.29 -0.17,-1.22 -0.26,-2.36 -0.4,-3.53 4.01,14.19 7.14,29.61 3.9,42.18 -4.69,6.43 5.55,14.19 7.82,48.72 1.76,26.59 -1.02,27.59 3.92,27.9 -4.41,6.23 7,10.21 14.45,10.21 3.41,0 5.97,-0.86 5.8,-2.67 0.09,-0.97 0.26,-1.14 0.6,-1.14 0.17,0 0.4,0.06 0.68,0.06 0.51,0 1.19,-0.2 2.08,-1.45 1.05,-5.92 -10.21,-3.9 -14.48,-13.34 -6.57,-14.62 -6.51,-57.11 -0.71,-63.31 8.85,-9.53 11.52,-37.49 15.39,-67.98 28.18,16.33 53.13,21.56 72.73,21.56 14.59,0 26.19,-2.9 33.96,-6.32l-12.49 61.01c1.34,3.04 0.43,26.42 0.03,42.86 -0.31,11.77 -4.1,13.74 0.74,16.12 -0.06,5.75 -9.16,6.88 -1.74,10.41 2.53,1.2 3.53,1.14 6.4,1.56 1.85,0.26 3.67,0.37 5.35,0.37 6.2,0 10.78,-1.65 8.39,-4.15 5.83,-1.25 0.25,-4.29 -5.06,-5.43 -9.27,-7.71 -1.62,-53.07 1,-59.61 3.1,-7.8 23.83,-61.58 42.09,-71.42 0.28,0.06 0.57,0.09 0.88,0.09 5.03,0 14.59,-6.74 18.74,-13.17 0.82,0.03 1.62,0.03 2.42,0.03 20.82,0 43.63,-11.09 61.35,-33.99 12.14,-15.76 14.79,-41.44 23.98,-41.95 9.24,-0.54 14.34,-8.99 23.86,-8.99 1.25,0 2.59,0.14 4.01,0.48 0.26,0.05 0.51,0.08 0.74,0.08 1.08,0 1.93,-0.54 3.24,-0.54 0.54,0 1.17,0.09 1.9,0.37 2.16,0.82 3.67,1.14 4.69,1.14 3.3,0 1.59,-3.3 -0.71,-3.81 0.31,0.06 0.6,0.09 0.88,0.09 5.49,0 2.45,-8.42 -2.22,-12.94 0,-5.89 -5.03,-7.37 -7.74,-8.45 -3.81,-1.51 -7.23,-1.96 -10.33,-1.96 -4.38,0 -8.16,0.88 -11.63,0.88 -1.22,0 -2.42,-0.11 -3.61,-0.43 -5.58,-1.48 -8.22,-2.59 -8.22,-2.59 -1.73,-0.74 -3.61,-1.11 -5.52,-1.11 -1.74,0 -3.53,0.31 -5.32,1.03 -1.17,-2.22 -2.93,-4.47 -5.35,-4.55 -0.03,0 -0.08,0 -0.11,0 -2.79,0 -3.07,4.95 -1.65,9.53 -2.44,2.53 -4.84,5.92 -7,10.32 -7.05,14.51 -28.64,44.54 -49.12,44.54 -4.58,0 -9.1,-1.51 -13.4,-5 -24.97,-25.49 -8.93,-34.1 -32.54,-46.16 -26.45,-12.57 -31.51,18.57 -61.66,15.47 -20.71,-2.13 -28.78,-30.92 -46.5,-30.92z"/>
     <path class="fil1" d="M328.24 90.3c-1.5,15.14 9.17,28.92 24.38,31.12 15.64,2.26 30.15,-8.59 32.41,-24.23 0.14,-0.97 0.23,-1.93 0.27,-2.89l0.14 0.02 2.36 -16.32c-0.09,0.59 -0.29,1.16 -0.61,1.7 0.25,-0.55 0.42,-1.12 0.5,-1.72 0.56,-3.83 -2.44,-7.6 -7.72,-10.59 -4.66,-2.64 -11.27,-4.81 -18.71,-5.89 -7.44,-1.07 -14.38,-0.86 -19.59,0.35 -5.91,1.37 -9.85,4.15 -10.41,7.98 -0.09,0.6 -0.09,1.2 -0,1.79 -0.15,-0.61 -0.19,-1.21 -0.11,-1.81l-0.86 5.93c-1.36,-0.97 -3.02,-1.55 -4.82,-1.55 -4.58,0 -8.29,3.71 -8.29,8.29 0,4.58 3.71,8.29 8.29,8.29 0.96,0 1.89,-0.16 2.75,-0.47zm14.48 -23.91c4.69,-1.09 11.03,-1.26 17.89,-0.27 6.86,0.99 12.89,2.96 17.07,5.32 3.57,2.02 5.65,4.14 5.4,5.88 -0.25,1.73 -2.85,3.17 -6.84,4.1 -4.69,1.09 -11.03,1.26 -17.9,0.27 -6.86,-0.99 -12.88,-2.95 -17.06,-5.32 -3.57,-2.02 -5.65,-4.15 -5.4,-5.88 0.25,-1.73 2.84,-3.17 6.83,-4.1z"/>
     <path class="fil1" d="M358.4 0c-10.54,20.07 31.63,25.17 4.76,55.1 12.65,-30.53 -25.11,-40.45 -4.76,-55.1z"/>
     <path class="fil1" d="M347.03 20.85c-5.87,14.31 20.14,16.02 3.03,35.08 6.66,-20.41 -15.84,-22.69 -3.03,-35.08z"/>
    </g>
    <path class="fil0" d="M67.23 414.08c0,0.85 -0.46,1.28 -1.39,1.28 -1.61,0 -8,-0.3 -19.17,-0.91 -0.26,10.76 -0.39,18.28 -0.39,22.53 0,5.01 0.2,12.57 0.59,22.64 0.39,10.09 0.59,17.65 0.59,22.66 0,0.81 -0.2,1.33 -0.57,1.53 -0.13,0.09 -0.74,0.2 -1.79,0.33 -2.55,0.35 -6.3,0.5 -11.24,0.5 -5.49,0 -9.32,-0.15 -11.55,-0.5 -1.2,-0.22 -1.79,-0.87 -1.79,-1.98 0,-5.01 0.22,-12.55 0.65,-22.59 0.44,-10.07 0.65,-17.58 0.65,-22.62 0,-3.31 -0.17,-10.72 -0.52,-22.22 -8.47,0.87 -15.25,1.31 -20.28,1.31 -0.68,0 -1.02,-0.22 -1.02,-0.63 0,-0.57 0.3,-2.2 0.89,-4.92 0.68,-2.99 1.07,-4.79 1.16,-5.43 0.11,-2 0.26,-3.99 0.44,-5.99 0.31,-3.2 0.81,-4.79 1.53,-4.79 0.09,0 0.39,0.02 0.89,0.07 6.88,0.87 17.06,1.31 30.52,1.31 3.84,0 10.9,-0.39 21.18,-1.2 5.51,-0.42 8.3,-0.63 8.34,-0.63 0.85,0 1.33,0.04 1.46,0.15 0.13,0.11 0.22,0.52 0.26,1.24 0,1.16 -0.05,2.74 -0.13,4.79 -0.09,2.27 -0.13,3.85 -0.13,4.79 0,1.07 0.15,2.62 0.41,4.68 0.28,2.07 0.41,3.62 0.41,4.62zm83.07 38.69c0,10.85 -1.31,18.26 -3.9,22.2 -4.77,7.23 -16.67,10.85 -35.69,10.85 -8.61,0 -15.23,-0.65 -19.87,-1.98 -7.41,-2.11 -12.22,-6.19 -14.42,-12.18 -1.11,-2.94 -1.68,-8.17 -1.68,-15.71 0,-1.74 0.07,-4.34 0.2,-7.78 0.13,-3.44 0.2,-6.01 0.2,-7.71 0,-4.95 -0.24,-12.35 -0.72,-22.2 -0.48,-9.87 -0.72,-17.25 -0.72,-22.16 0,-1.02 0.46,-1.53 1.35,-1.53 2.59,0 6.51,0.11 11.79,0.33 5.27,0.2 9.2,0.31 11.81,0.31 1.07,0 1.59,0.48 1.59,1.42 0,5.62 -0.17,14.03 -0.52,25.23 -0.35,11.22 -0.52,19.63 -0.52,25.25 0,6.69 0.7,11.2 2.11,13.53 1.87,3.21 5.77,4.79 11.74,4.79 8.71,0 13.07,-4.23 13.07,-12.7 0,-6.17 -0.15,-15.42 -0.46,-27.76 -0.3,-12.35 -0.46,-21.61 -0.46,-27.78 0,-1.31 0.52,-1.98 1.59,-1.98 2.51,0 6.3,-0.11 11.35,-0.31 5.05,-0.22 8.84,-0.33 11.35,-0.33 1.24,0 1.85,0.5 1.85,1.53 0,4.9 -0.2,12.29 -0.59,22.16 -0.39,9.85 -0.59,17.25 -0.59,22.2 0,1.35 0.02,3.4 0.06,6.14 0.05,2.75 0.07,4.79 0.07,6.17zm88.65 30.7c0,0.3 -0.44,0.52 -1.28,0.65 -1.61,0.26 -5.66,0.39 -12.18,0.39 -5.58,0 -9.35,-0.13 -11.35,-0.39 -0.94,-0.11 -1.46,-0.22 -1.59,-0.31 -0.26,-0.13 -0.57,-0.57 -0.89,-1.28 -0.65,-1.65 -1.59,-4.14 -2.83,-7.41 -1.65,-4.25 -4.27,-10.52 -7.82,-18.83 -0.76,-1.68 -2.53,-2.59 -5.27,-2.76 1.26,0.09 -0.91,0.13 -6.54,0.13 -0.63,0 -0.96,1.09 -0.96,3.25 0,2.9 0.26,7.23 0.79,12.99 0.52,5.73 0.78,10.07 0.78,12.96 0,0.72 -0.2,1.16 -0.57,1.26 -0.61,0.04 -1.2,0.09 -1.79,0.13 -2.53,0.17 -6.43,0.26 -11.74,0.26 -6.08,0 -9.74,-0.13 -10.98,-0.39 -1.24,-0.24 -1.85,-0.91 -1.85,-1.96 0,-4.68 0.22,-11.77 0.65,-21.2 0.44,-9.46 0.65,-16.53 0.65,-21.26 0,-17.99 -0.39,-32.05 -1.18,-42.11l-0.07 -0.89c-0.04,-0.74 0.63,-1.22 2,-1.48 1.39,-0.26 7.89,-0.5 19.5,-0.76 7.86,-0.17 14.14,-0.26 18.8,-0.26 9.72,0 17.63,2.2 23.75,6.58 6.93,4.92 10.39,12.05 10.39,21.37 0,6.21 -0.89,11.18 -2.68,14.86 -1.76,3.7 -5.05,7.3 -9.85,10.78 -0.98,0.69 -1.46,1.33 -1.46,1.92 0,-0.04 2.59,5.3 7.78,16.04 5.18,10.72 7.78,16.62 7.78,17.74zm-26.8 -57.26c0,-5.19 -1.7,-8.78 -5.1,-10.78 -2.64,-1.53 -6.78,-2.29 -12.37,-2.29 -4.05,0 -6.21,0.61 -6.45,1.85 -0.26,1.44 -0.39,5.62 -0.39,12.5 0,0.98 0.02,2.42 0.07,4.34 0.04,1.92 0.07,3.33 0.07,4.27 0,0.22 0.67,0.43 2.05,0.65 2.59,0.37 5.31,0.57 8.17,0.57 9.3,0 13.97,-3.7 13.97,-11.11zm108.52 43.51c0,0.67 -0.44,1.57 -1.33,2.66 -7.84,9.3 -18.23,13.97 -31.2,13.97 -13.27,0 -24.03,-4.53 -32.29,-13.6 -8.04,-8.76 -12.05,-19.83 -12.05,-33.18 0,-12.92 3.94,-23.9 11.81,-32.92 8.21,-9.44 18.67,-14.16 31.35,-14.16 13.79,0 24.6,4.23 32.42,12.7 0.85,0.94 1.28,1.76 1.28,2.48 0,0.83 -1.48,3.81 -4.44,9.02 -2.96,5.18 -4.82,8.11 -5.58,8.74 -0.35,0.35 -0.79,0.5 -1.28,0.5 -0.22,0 -1.29,-0.85 -3.18,-2.55 -2.31,-2.05 -4.55,-3.66 -6.78,-4.79 -3.36,-1.72 -6.84,-2.57 -10.46,-2.57 -6.25,0 -11.26,2.33 -15.01,7.02 -3.44,4.36 -5.16,9.72 -5.16,16.1 0,6.47 1.72,11.89 5.16,16.27 3.75,4.77 8.76,7.15 15.01,7.15 3.68,0 7.21,-0.81 10.52,-2.42 2.16,-1.07 4.38,-2.55 6.62,-4.44 1.87,-1.61 2.92,-2.42 3.14,-2.42 0.41,0 0.85,0.24 1.26,0.7 0.67,0.76 2.53,3.42 5.53,7.97 3.09,4.71 4.64,7.3 4.64,7.78zm95.56 -30.28c0,13.29 -4.23,24.4 -12.7,33.38 -8.63,9.1 -19.57,13.66 -32.79,13.66 -13.14,0 -24.05,-4.6 -32.72,-13.79 -8.52,-8.98 -12.77,-20.04 -12.77,-33.25 0,-13.22 4.25,-24.34 12.77,-33.36 8.67,-9.24 19.59,-13.86 32.72,-13.86 13.05,0 23.94,4.62 32.66,13.86 8.56,9.08 12.83,20.22 12.83,33.36zm-24.18 -0.13c0,-6.39 -1.94,-11.81 -5.8,-16.28 -4.05,-4.69 -9.21,-7.02 -15.51,-7.02 -5.99,0 -11.09,2.42 -15.25,7.28 -4.03,4.68 -6.06,10.07 -6.06,16.14 0,6.51 1.9,11.94 5.69,16.27 3.99,4.55 9.19,6.84 15.62,6.84 5.99,0 11.11,-2.4 15.32,-7.21 3.99,-4.6 5.99,-9.93 5.99,-16.03zm99.61 -23.86c0,0.46 -0.44,0.7 -1.28,0.7 -3.18,0 -8.02,-0.28 -14.51,-0.85 -6.47,-0.57 -11.33,-0.85 -14.58,-0.85 -4.07,0 -6.45,0.15 -7.15,0.44 -1.57,0.72 -2.35,2.77 -2.35,6.1 0,4.03 1.02,6.32 3.07,6.86 0.85,0.22 2.14,0.33 3.88,0.33 2.94,0 7.34,-0.15 13.18,-0.48 5.86,-0.33 10.26,-0.48 13.18,-0.48 1.42,0 2.11,3.75 2.11,11.24 0,6.49 -0.24,10.28 -0.7,11.35 -0.3,0.76 -0.87,1.16 -1.72,1.16 0.54,0 -0.79,-0.15 -4.03,-0.46 -4.55,-0.41 -11.44,-0.63 -20.68,-0.63 -2.99,0 -4.66,0.02 -5.06,0.07 -2.16,0.35 -3.25,1.26 -3.25,2.74 0,6.06 0.26,13.01 0.79,20.9 0.44,7.12 0.65,10.28 0.65,9.52 0,1.11 -1.33,1.74 -4.01,1.92 0.72,-0.04 -1.18,-0.07 -5.69,-0.07 -7.95,0 -13.1,-0.28 -15.38,-0.83 -1.24,-0.31 -1.85,-0.96 -1.85,-1.98 0,-4.73 0.15,-11.81 0.46,-21.29 0.3,-9.45 0.46,-16.56 0.46,-21.28 0,-5.6 -0.26,-12.68 -0.76,-21.18 -0.76,-13.16 -1.16,-20.22 -1.2,-21.2l-0.07 -0.76c-0.04,-1.07 0.59,-1.59 1.92,-1.59 3.14,0 7.91,0.06 14.27,0.2 6.36,0.13 11.13,0.2 14.31,0.2 3.4,0 8.52,-0.26 15.36,-0.78 6.82,-0.5 11.94,-0.76 15.34,-0.76 2.14,0 3.31,0.87 3.57,2.64 0,1.83 0.09,4.58 0.26,8.24 0.07,0.94 0.35,2.77 0.81,5.45 0.41,2.35 0.63,4.16 0.63,5.45zm73.46 0c0,0.46 -0.44,0.7 -1.28,0.7 -3.18,0 -8.02,-0.28 -14.51,-0.85 -6.47,-0.57 -11.33,-0.85 -14.58,-0.85 -4.07,0 -6.45,0.15 -7.15,0.44 -1.57,0.72 -2.35,2.77 -2.35,6.1 0,4.03 1.02,6.32 3.07,6.86 0.85,0.22 2.14,0.33 3.88,0.33 2.94,0 7.34,-0.15 13.18,-0.48 5.86,-0.33 10.26,-0.48 13.18,-0.48 1.42,0 2.11,3.75 2.11,11.24 0,6.49 -0.24,10.28 -0.7,11.35 -0.3,0.76 -0.87,1.16 -1.72,1.16 0.54,0 -0.79,-0.15 -4.03,-0.46 -4.55,-0.41 -11.44,-0.63 -20.68,-0.63 -2.99,0 -4.66,0.02 -5.06,0.07 -2.16,0.35 -3.24,1.26 -3.24,2.74 0,6.06 0.26,13.01 0.78,20.9 0.44,7.12 0.65,10.28 0.65,9.52 0,1.11 -1.33,1.74 -4.01,1.92 0.72,-0.04 -1.18,-0.07 -5.69,-0.07 -7.95,0 -13.1,-0.28 -15.38,-0.83 -1.24,-0.31 -1.85,-0.96 -1.85,-1.98 0,-4.73 0.15,-11.81 0.46,-21.29 0.3,-9.45 0.46,-16.56 0.46,-21.28 0,-5.6 -0.26,-12.68 -0.76,-21.18 -0.76,-13.16 -1.16,-20.22 -1.2,-21.2l-0.07 -0.76c-0.04,-1.07 0.59,-1.59 1.92,-1.59 3.14,0 7.91,0.06 14.27,0.2 6.36,0.13 11.13,0.2 14.31,0.2 3.4,0 8.52,-0.26 15.36,-0.78 6.82,-0.5 11.94,-0.76 15.34,-0.76 2.13,0 3.31,0.87 3.57,2.64 0,1.83 0.09,4.58 0.26,8.24 0.07,0.94 0.35,2.77 0.81,5.45 0.41,2.35 0.63,4.16 0.63,5.45zm72.94 48.87c0,1.83 -0.37,5.18 -1.09,10.07 -0.76,5.29 -1.46,8.47 -2.05,9.47 -0.5,0.81 -1.22,1.22 -2.11,1.22 -0.37,0 -1.02,-0.07 -1.92,-0.2 -3.09,-0.42 -12.16,-0.63 -27.17,-0.63 -3.29,0 -8.15,-0.02 -14.62,-0.07 -6.47,-0.04 -11.33,-0.06 -14.55,-0.06 -1.42,0 -2.11,-0.61 -2.11,-1.85 0,-4.77 0.26,-11.92 0.78,-21.48 0.52,-9.54 0.79,-16.69 0.79,-21.46 0,-4.86 -0.26,-13.9 -0.79,-27.12 -0.13,-3.4 -0.37,-8.5 -0.72,-15.25l-0.07 -0.89c-0.09,-0.98 0.46,-1.46 1.59,-1.46 3.16,0 7.89,0.07 14.23,0.24 6.32,0.17 11.05,0.26 14.2,0.26 3.12,0 7.8,-0.08 14.05,-0.26 6.25,-0.17 10.94,-0.24 14.05,-0.24 2.22,0 3.48,0.83 3.83,2.46 0.22,0.98 0.57,3.94 1.02,8.89 0.46,4.92 0.68,7.93 0.68,9 0,0.89 -0.44,1.33 -1.28,1.33 -0.24,0 -0.7,-0.02 -1.33,-0.07 -11.35,-0.91 -21.53,-1.37 -30.57,-1.37 -2.25,0 -3.64,0.52 -4.14,1.59 -0.22,0.52 -0.33,2.16 -0.33,4.92 0,2.9 0.44,4.79 1.28,5.73 0.72,0.81 2.12,1.22 4.16,1.22 0.41,0 1.24,-0.02 2.48,-0.09 1.24,-0.07 2.27,-0.11 3.07,-0.11 5.38,0 10.81,-0.13 16.32,-0.41 0.46,-0.04 1.63,-0.15 3.51,-0.33 1.46,-0.15 2.59,-0.24 3.46,-0.24 1.02,0 1.53,0.48 1.53,1.46 0,-0.89 -0.39,2.38 -1.18,9.78 -0.35,3.4 -0.52,6.8 -0.52,10.2 0,0.85 -0.61,1.29 -1.85,1.29 0,0 -1.92,-0.22 -5.75,-0.63 -2.42,-0.26 -7.97,-0.39 -16.6,-0.39l-6.77 0c-1.74,0 -2.77,0.44 -3.07,1.29 -0.04,0.2 -0.07,1.52 -0.07,3.97 0,3.22 0.22,5.31 0.63,6.25 0.74,1.61 3.46,2.57 8.19,2.88 -0.09,0 3.01,0 9.33,0 2.25,0 5.6,-0.2 10.07,-0.59 4.44,-0.39 7.78,-0.59 10,-0.59 0.94,0 1.39,0.76 1.39,2.29zm73.86 0c0,1.83 -0.37,5.18 -1.09,10.07 -0.76,5.29 -1.46,8.47 -2.05,9.47 -0.5,0.81 -1.22,1.22 -2.11,1.22 -0.37,0 -1.02,-0.07 -1.92,-0.2 -3.09,-0.42 -12.16,-0.63 -27.17,-0.63 -3.29,0 -8.15,-0.02 -14.62,-0.07 -6.47,-0.04 -11.33,-0.06 -14.55,-0.06 -1.42,0 -2.11,-0.61 -2.11,-1.85 0,-4.77 0.26,-11.92 0.78,-21.48 0.52,-9.54 0.79,-16.69 0.79,-21.46 0,-4.86 -0.26,-13.9 -0.79,-27.12 -0.13,-3.4 -0.37,-8.5 -0.72,-15.25l-0.07 -0.89c-0.09,-0.98 0.46,-1.46 1.59,-1.46 3.16,0 7.89,0.07 14.23,0.24 6.32,0.17 11.05,0.26 14.21,0.26 3.11,0 7.8,-0.08 14.05,-0.26 6.25,-0.17 10.94,-0.24 14.05,-0.24 2.22,0 3.48,0.83 3.83,2.46 0.22,0.98 0.57,3.94 1.02,8.89 0.46,4.92 0.67,7.93 0.67,9 0,0.89 -0.44,1.33 -1.28,1.33 -0.24,0 -0.7,-0.02 -1.33,-0.07 -11.35,-0.91 -21.53,-1.37 -30.57,-1.37 -2.25,0 -3.64,0.52 -4.14,1.59 -0.22,0.52 -0.33,2.16 -0.33,4.92 0,2.9 0.44,4.79 1.28,5.73 0.72,0.81 2.11,1.22 4.16,1.22 0.41,0 1.24,-0.02 2.48,-0.09 1.24,-0.07 2.27,-0.11 3.07,-0.11 5.38,0 10.81,-0.13 16.32,-0.41 0.46,-0.04 1.63,-0.15 3.51,-0.33 1.46,-0.15 2.59,-0.24 3.46,-0.24 1.02,0 1.53,0.48 1.53,1.46 0,-0.89 -0.39,2.38 -1.18,9.78 -0.35,3.4 -0.52,6.8 -0.52,10.2 0,0.85 -0.61,1.29 -1.85,1.29 0,0 -1.92,-0.22 -5.75,-0.63 -2.42,-0.26 -7.97,-0.39 -16.6,-0.39l-6.78 0c-1.74,0 -2.77,0.44 -3.07,1.29 -0.04,0.2 -0.06,1.52 -0.06,3.97 0,3.22 0.22,5.31 0.63,6.25 0.74,1.61 3.46,2.57 8.19,2.88 -0.09,0 3.01,0 9.33,0 2.25,0 5.6,-0.2 10.07,-0.59 4.44,-0.39 7.78,-0.59 10,-0.59 0.94,0 1.39,0.76 1.39,2.29z"/>
   </g>
   <path class="fil0" d="M716.17 384.59l10.47 0 0 1.82 -4.14 0 0 11.11 -2.19 0 0 -11.11 -4.14 0 0 -1.82zm12.64 0l3.37 0 3.42 10.35 3.78 -10.35 3.13 0 0 12.93 -2.19 0 0 -10.41 -3.81 10.41 -1.96 0 -3.6 -10.91 0 10.91 -2.14 0 0 -12.93z"/>
  </g>
 </g>
</svg>
