<?xml version="1.0" encoding="UTF-8"?>
<!DOCTYPE svg PUBLIC "-//W3C//DTD SVG 1.1//EN" "http://www.w3.org/Graphics/SVG/1.1/DTD/svg11.dtd">
<!-- Creator: CorelDRAW 2018 (64-Bit) -->
<svg xmlns="http://www.w3.org/2000/svg" xml:space="preserve" width="0.9398mm" height="1.1171mm" version="1.1" style="shape-rendering:geometricPrecision; text-rendering:geometricPrecision; image-rendering:optimizeQuality; fill-rule:evenodd; clip-rule:evenodd"
viewBox="0 0 9.98 11.87"
 xmlns:xlink="http://www.w3.org/1999/xlink">
 <defs>
  <style type="text/css">
   <![CDATA[
    .fil0 {fill:#CD0017;fill-rule:nonzero}
   ]]>
  </style>
 </defs>
 <g id="Layer_x0020_1">
  <metadata id="CorelCorpID_0Corel-Layer"/>
  <path class="fil0" d="M-0 0.7l0 10.47c0,0.38 0.31,0.7 0.7,0.7 0.08,0 0.15,-0.02 0.22,-0.06 0,0 8.41,-5.14 8.72,-5.33 0.28,-0.17 0.35,-0.38 0.34,-0.55 -0,-0.25 -0.18,-0.45 -0.33,-0.53l-8.74 -5.34c-0.07,-0.04 -0.14,-0.06 -0.22,-0.06 -0.38,0 -0.7,0.31 -0.7,0.7zm8.91 5.24l0 0 -8.07 4.93 0 -9.86 8.07 4.93z"/>
 </g>
</svg>
