<svg xmlns="http://www.w3.org/2000/svg" width="120.246" height="22.404" viewBox="0 0 3181.5 592.78" shape-rendering="geometricPrecision" text-rendering="geometricPrecision" image-rendering="optimizeQuality" fill-rule="evenodd" clip-rule="evenodd"><defs><style>.fil0{fill:#cd0017;fill-rule:nonzero}</style></defs><g id="Layer_x0020_1"><g id="_3053191808"><path class="fil0" d="M53.17 478.18c2.6 10.02 5.16 23.22 6.33 41 2.74 41-1.62 42.53 6.06 42.98-1.8 2.55-1.89 4.89-.81 6.91 2.34 1.62 4.89 2.74 7.32 3.82 2.42 1.07 5.12 2.29 7.14 4.08 8.76 1.85 17.96 1.13 17.56-3.14.36-4.04 1.79.77 5.16-3.91 1.62-9.11-15.76-6.01-22.27-20.56-10.15-22.55-10.06-88.02-1.12-97.63 11.22-12.03 15.98-43.37 20.65-80.33-5.88-2.79-11.76-5.8-17.64-9.03l-1.04 8.09c-5.39 43.6-10.1 81.18-23.53 95.64-1.57 1.67-2.83 6.06-3.81 12.08zm209.34 97.22c9.43 0 16.35-2.51 12.76-6.33 8.89-1.93.4-6.47-7.64-8.22-14.05-11.72-2.47-80.38 1.49-90.35 3-7.45 33.41-67.35 52.4-99.55l-2.65.22h-.63c-10.24 6.2-31.34 28.65-62.91 108.36l-.76 1.89c-3.55 8.98-10.38 51.28-7.82 74.9l.68.36-.36 2.11c.76 5.39 2.15 9.56 4.26 11.81 2.83.67 8.04 2.2 11.18 4.8zM118.68 158.01c-89.63 0-59.14 70.45-76.65 88.06-11.54 17.91-22.45 22.13-34.85 45.44-.13.13-.27.22-.4.58 0 0-.05.27-.05.36-6.37 12.58-9.07 28.7-4.31 50.07.36 1.44.9 3.24 1.3 4.9 0 12.57.72 24.88 2.7 34.31.45 8.03 1.26 15.53 2.65 21.6.27 1.12.4 2.24.63 3.41.67 19.44-2.92 34.71-2.92 34.71s3.05-7.95 4.94-19.85c1.52 21.74-2.65 39.56-2.65 39.56s4.26-10.91 5.75-26.58c2.24-9.52 4.31-23.94 1.97-39.92-.27-1.93-.4-3.73-.63-5.57 6.33 22.41 11.27 46.75 6.16 66.59-7.41 10.15 8.75 22.41 12.34 76.93 2.79 41.99-1.61 43.56 6.2 44.05-6.96 9.84 11.05 16.12 22.81 16.12 5.39 0 9.43-1.35 9.16-4.22.14-1.53.41-1.8.95-1.8.27 0 .63.09 1.07.09.81 0 1.89-.31 3.28-2.29 1.66-9.34-16.12-6.15-22.86-21.06-10.37-23.08-10.28-90.17-1.12-99.96 13.97-15.04 18.19-59.18 24.3-107.32 44.5 25.78 83.88 34.04 114.82 34.04 23.04 0 41.36-4.58 53.62-9.97l-19.72 96.32c2.11 4.81.68 41.72.05 67.67-.5 18.59-6.47 21.69 1.17 25.46-.09 9.08-14.46 10.87-2.74 16.44 3.99 1.89 5.57 1.8 10.1 2.47 2.92.41 5.79.58 8.44.58 9.79 0 17.02-2.6 13.25-6.55 9.21-1.98.4-6.78-7.99-8.58-14.64-12.17-2.56-83.79 1.57-94.12 4.89-12.31 37.63-97.22 66.46-112.76.45.09.9.14 1.39.14 7.95 0 23.04-10.65 29.59-20.8 1.31.05 2.56.05 3.82.05 32.87 0 68.89-17.51 96.86-53.66 19.18-24.88 23.35-65.43 37.86-66.24 14.59-.85 22.63-14.19 37.67-14.19 1.98 0 4.09.23 6.34.77.4.08.8.13 1.16.13 1.71 0 3.06-.85 5.12-.85.85 0 1.84.13 3.01.58 3.41 1.3 5.79 1.8 7.41 1.8 5.21 0 2.51-5.21-1.12-6.02.49.09.94.13 1.39.13 8.67 0 3.86-13.29-3.5-20.43 0-9.29-7.95-11.63-12.22-13.34-6.02-2.38-11.4-3.09-16.3-3.09-6.91 0-12.89 1.39-18.36 1.39-1.94 0-3.82-.18-5.71-.68-8.8-2.33-12.98-4.08-12.98-4.08-2.73-1.17-5.7-1.75-8.71-1.75-2.74 0-5.57.49-8.39 1.61-1.85-3.5-4.63-7.05-8.45-7.18h-.18c-4.4 0-4.85 7.81-2.6 15.04-3.86 4-7.63 9.34-11.05 16.3-11.13 22.9-45.22 70.32-77.55 70.32-7.23 0-14.37-2.38-21.15-7.9-39.43-40.23-14.1-53.84-51.37-72.88-41.76-19.85-49.76 29.32-97.36 24.43-32.69-3.37-45.44-48.81-73.42-48.81z"/><path d="M157.32 142.58c-2.37 23.9 14.48 45.66 38.49 49.13 24.7 3.57 47.61-13.55 51.18-38.24.22-1.53.37-3.06.43-4.57l.22.03 3.73-25.77c-.14.94-.47 1.84-.97 2.69.39-.87.66-1.78.8-2.72.88-6.06-3.85-12-12.18-16.72-7.36-4.17-17.8-7.6-29.54-9.29-11.74-1.7-22.71-1.36-30.93.54-9.34 2.17-15.55 6.55-16.43 12.6a9.94 9.94 0 00-.01 2.83 7.29 7.29 0 01-.16-2.86l-1.36 9.37a12.99 12.99 0 00-7.61-2.45c-7.23 0-13.09 5.86-13.09 13.08 0 7.23 5.86 13.09 13.09 13.09 1.52 0 2.98-.27 4.34-.74zm22.87-37.75c7.41-1.71 17.42-2 28.25-.43 10.84 1.56 20.35 4.66 26.95 8.4 5.63 3.19 8.92 6.54 8.53 9.29-.4 2.73-4.5 5.01-10.8 6.47-7.4 1.71-17.41 2-28.25.43-10.83-1.56-20.34-4.66-26.94-8.4-5.64-3.19-8.92-6.54-8.53-9.28.4-2.74 4.49-5.01 10.79-6.48zM204.93 0c-16.65 31.69 49.94 39.74 7.52 87 19.97-48.21-39.65-63.87-7.52-87zm-17.94 32.92c-9.27 22.59 31.8 25.3 4.79 55.38 10.52-32.22-25.02-35.82-4.79-55.38z" fill="#cd0017"/><path class="fil0" d="M853 342.67c0 2.94-1.58 4.44-4.81 4.44-5.57 0-27.63-1.05-66.23-3.15-.91 37.18-1.36 63.15-1.36 77.82 0 17.31.68 43.43 2.03 78.2 1.36 34.85 2.04 60.96 2.04 78.27 0 2.79-.68 4.6-1.96 5.28-.45.3-2.56.67-6.18 1.12-8.8 1.21-21.75 1.74-38.83 1.74-18.97 0-32.21-.53-39.89-1.74-4.14-.75-6.17-3-6.17-6.85 0-17.3.75-43.35 2.26-78.04 1.5-34.78 2.25-60.74 2.25-78.13 0-11.44-.6-37.03-1.8-76.77-29.28 3.01-52.69 4.52-70.07 4.52-2.34 0-3.54-.76-3.54-2.19 0-1.95 1.05-7.6 3.08-17.01 2.34-10.31 3.69-16.56 4-18.74.37-6.92.9-13.77 1.5-20.69 1.05-11.07 2.78-16.56 5.27-16.56.3 0 1.35.07 3.08.22 23.79 3.01 58.93 4.52 105.45 4.52 13.24 0 37.63-1.36 73.16-4.14 19.04-1.43 28.67-2.18 28.82-2.18 2.94 0 4.59.14 5.05.52.44.38.75 1.81.9 4.29 0 3.99-.15 9.48-.46 16.56-.29 7.83-.44 13.32-.44 16.56 0 3.69.52 9.03 1.43 16.18.97 7.15 1.42 12.49 1.42 15.95zm286.99 133.68c0 37.48-4.52 63.07-13.47 76.69-16.48 24.99-57.58 37.48-123.29 37.48-29.72 0-52.6-2.26-68.64-6.84-25.59-7.31-42.22-21.38-49.82-42.08-3.84-10.16-5.8-28.22-5.8-54.27 0-6.02.23-14.97.68-26.87.45-11.89.68-20.77.68-26.64 0-17.09-.83-42.67-2.49-76.69-1.65-34.1-2.48-59.61-2.48-76.55 0-3.54 1.58-5.26 4.67-5.26 8.95 0 22.5.37 40.71 1.12 18.22.68 31.77 1.06 40.8 1.06 3.69 0 5.49 1.65 5.49 4.89 0 19.42-.6 48.47-1.8 87.15-1.21 38.77-1.81 67.82-1.81 87.24 0 23.1 2.41 38.69 7.3 46.74 6.47 11.06 19.95 16.56 40.57 16.56 30.1 0 45.16-14.61 45.16-43.89 0-21.3-.53-53.28-1.58-95.88-1.06-42.67-1.59-74.66-1.59-95.97 0-4.51 1.81-6.84 5.5-6.84 8.66 0 21.75-.38 39.21-1.06 17.46-.75 30.56-1.12 39.21-1.12 4.3 0 6.4 1.72 6.4 5.26 0 16.94-.67 42.45-2.03 76.55-1.35 34.02-2.03 59.6-2.03 76.69 0 4.67.07 11.74.23 21.22.15 9.49.22 16.56.22 21.31zm306.25 106.05c0 1.05-1.5 1.8-4.44 2.25-5.57.9-19.56 1.36-42.07 1.36-19.27 0-32.29-.46-39.21-1.36-3.24-.37-5.05-.75-5.5-1.05-.9-.45-1.95-1.95-3.08-4.44-2.26-5.72-5.5-14.3-9.79-25.59-5.72-14.68-14.75-36.36-27.02-65.03-2.63-5.8-8.73-8.96-18.21-9.56 4.36.3-3.17.45-22.58.45-2.18 0-3.31 3.77-3.31 11.22 0 10.01.9 24.98 2.71 44.86 1.8 19.79 2.7 34.77 2.7 44.78 0 2.48-.67 3.99-1.95 4.36-2.11.15-4.14.31-6.17.46-8.73.6-22.21.9-40.57.9-21 0-33.64-.46-37.93-1.36-4.29-.82-6.4-3.16-6.4-6.77 0-16.18.75-40.64 2.26-73.23 1.5-32.67 2.26-57.13 2.26-73.46 0-62.17-1.36-110.72-4.07-145.49l-.23-3.08c-.14-2.56 2.19-4.22 6.93-5.12 4.81-.9 27.25-1.74 67.36-2.64 27.17-.6 48.85-.9 64.95-.9 33.57 0 60.89 7.6 82.05 22.73 23.93 17.01 35.9 41.62 35.9 73.84 0 21.45-3.09 38.6-9.26 51.32-6.1 12.8-17.46 25.22-34.02 37.26-3.39 2.41-5.05 4.59-5.05 6.62 0-.15 8.96 18.3 26.88 55.4 17.91 37.03 26.86 57.42 26.86 61.27zm-92.57-197.8c0-17.92-5.87-30.33-17.61-37.26-9.11-5.27-23.41-7.9-42.75-7.9-14 0-21.45 2.11-22.28 6.4-.9 4.97-1.36 19.42-1.36 43.2 0 3.39.08 8.36.23 14.98.15 6.62.23 11.51.23 14.75 0 .75 2.33 1.5 7.07 2.26 8.95 1.28 18.36 1.96 28.22 1.96 32.14 0 48.25-12.8 48.25-38.39zm374.89 150.31c0 2.33-1.5 5.41-4.59 9.18-27.09 32.13-62.99 48.24-107.78 48.24-45.83 0-83.02-15.65-111.54-46.97-27.77-30.25-41.62-68.49-41.62-114.62 0-44.64 13.62-82.57 40.79-113.73 28.37-32.59 64.5-48.92 108.31-48.92 47.64 0 84.97 14.6 111.99 43.88 2.94 3.23 4.44 6.09 4.44 8.58 0 2.86-5.12 13.17-15.35 31.16-10.24 17.91-16.64 28-19.27 30.18-1.2 1.2-2.71 1.73-4.44 1.73-.75 0-4.44-2.93-10.99-8.8-7.98-7.08-15.73-12.65-23.41-16.57-11.59-5.94-23.63-8.87-36.12-8.87-21.6 0-38.92 8.05-51.86 24.23-11.89 15.05-17.84 33.57-17.84 55.62 0 22.35 5.95 41.1 17.84 56.23 12.94 16.48 30.26 24.68 51.86 24.68 12.72 0 24.91-2.78 36.35-8.35 7.45-3.69 15.13-8.81 22.88-15.36 6.47-5.57 10.08-8.35 10.83-8.35 1.44 0 2.94.83 4.37 2.4 2.34 2.64 8.74 11.82 19.12 27.55 10.69 16.26 16.03 25.22 16.03 26.88zm330.11-104.63c0 45.91-14.6 84.3-43.88 115.31-29.8 31.46-67.59 47.19-113.27 47.19-45.38 0-83.09-15.88-113.05-47.64-29.42-31.01-44.1-69.24-44.1-114.86 0-45.68 14.68-84.07 44.1-115.23 29.96-31.91 67.67-47.87 113.05-47.87 45.08 0 82.72 15.96 112.82 47.87 29.58 31.39 44.33 69.85 44.33 115.23zm-83.54-.44c0-22.06-6.7-40.8-20.02-56.23-14-16.18-31.84-24.23-53.59-24.23-20.7 0-38.31 8.35-52.69 25.13-13.92 16.18-20.92 34.78-20.92 55.77 0 22.51 6.55 41.25 19.65 56.23 13.77 15.72 31.76 23.63 53.96 23.63 20.7 0 38.39-8.28 52.91-24.91 13.78-15.88 20.7-34.32 20.7-55.39zm344.11-82.42c0 1.58-1.5 2.41-4.44 2.41-10.99 0-27.7-.98-50.13-2.94-22.35-1.96-39.13-2.93-50.35-2.93-14.07 0-22.28.52-24.68 1.5-5.42 2.48-8.13 9.56-8.13 21.08 0 13.92 3.53 21.83 10.61 23.7 2.94.76 7.37 1.13 13.4 1.13 10.16 0 25.36-.53 45.53-1.65 20.25-1.13 35.45-1.66 45.54-1.66 4.89 0 7.29 12.95 7.29 38.84 0 22.43-.82 35.53-2.4 39.21-1.05 2.63-3.01 3.99-5.95 3.99 1.88 0-2.71-.53-13.92-1.58-15.73-1.43-39.52-2.19-71.43-2.19-10.31 0-16.1.08-17.46.23-7.45 1.21-11.21 4.37-11.21 9.48 0 20.93.9 44.94 2.71 72.19 1.5 24.61 2.25 35.52 2.25 32.89 0 3.84-4.59 6.02-13.85 6.62 2.49-.15-4.06-.23-19.64-.23-27.47 0-45.24-.97-53.13-2.86-4.3-1.05-6.4-3.31-6.4-6.85 0-16.33.52-40.79 1.58-73.53 1.05-32.67 1.58-57.2 1.58-73.53 0-19.35-.91-43.8-2.64-73.16-2.63-45.46-3.99-69.85-4.14-73.24l-.22-2.63c-.15-3.68 2.03-5.49 6.62-5.49 10.84 0 27.32.22 49.3.67 21.97.46 38.46.68 49.45.68 11.74 0 29.43-.9 53.06-2.71 23.56-1.73 41.25-2.63 52.99-2.63 7.37 0 11.44 3.01 12.34 9.1 0 6.33.3 15.81.9 28.45.23 3.24 1.21 9.56 2.79 18.82 1.43 8.13 2.18 14.38 2.18 18.82zm253.79 0c0 1.58-1.5 2.41-4.44 2.41-10.99 0-27.69-.98-50.13-2.94-22.35-1.96-39.13-2.93-50.35-2.93-14.07 0-22.27.52-24.68 1.5-5.42 2.48-8.13 9.56-8.13 21.08 0 13.92 3.54 21.83 10.61 23.7 2.94.76 7.38 1.13 13.4 1.13 10.16 0 25.36-.53 45.53-1.65 20.25-1.13 35.45-1.66 45.54-1.66 4.89 0 7.3 12.95 7.3 38.84 0 22.43-.83 35.53-2.41 39.21-1.05 2.63-3.01 3.99-5.95 3.99 1.89 0-2.71-.53-13.92-1.58-15.73-1.43-39.51-2.19-71.43-2.19-10.31 0-16.1.08-17.46.23-7.45 1.21-11.21 4.37-11.21 9.48 0 20.93.9 44.94 2.71 72.19 1.5 24.61 2.26 35.52 2.26 32.89 0 3.84-4.6 6.02-13.85 6.62 2.48-.15-4.07-.23-19.65-.23-27.47 0-45.23-.97-53.13-2.86-4.3-1.05-6.4-3.31-6.4-6.85 0-16.33.53-40.79 1.58-73.53 1.05-32.67 1.58-57.2 1.58-73.53 0-19.35-.9-43.8-2.63-73.16-2.64-45.46-4-69.85-4.14-73.24l-.23-2.63c-.15-3.68 2.03-5.49 6.62-5.49 10.84 0 27.32.22 49.3.67 21.98.46 38.46.68 49.45.68 11.74 0 29.43-.9 53.06-2.71 23.56-1.73 41.25-2.63 52.99-2.63 7.38 0 11.44 3.01 12.34 9.1 0 6.33.3 15.81.91 28.45.22 3.24 1.2 9.56 2.78 18.82 1.43 8.13 2.18 14.38 2.18 18.82zm251.99 168.82c0 6.32-1.28 17.91-3.76 34.77-2.64 18.29-5.05 29.28-7.08 32.74-1.73 2.79-4.21 4.22-7.3 4.22-1.28 0-3.54-.23-6.62-.68-10.69-1.43-42-2.18-93.86-2.18-11.37 0-28.15-.08-50.5-.23-22.35-.15-39.14-.23-50.28-.23-4.89 0-7.3-2.11-7.3-6.4 0-16.48.9-41.16 2.71-74.21 1.8-32.96 2.71-57.65 2.71-74.13 0-16.78-.91-48.02-2.71-93.71-.45-11.74-1.28-29.35-2.48-52.68l-.23-3.09c-.3-3.39 1.58-5.04 5.5-5.04 10.91 0 27.24.23 49.14.83 21.83.6 38.16.9 49.07.9 10.77 0 26.95-.3 48.55-.9 21.6-.6 37.79-.83 48.55-.83 7.68 0 12.04 2.86 13.24 8.51.76 3.38 1.96 13.62 3.54 30.7 1.58 17.01 2.34 27.4 2.34 31.08 0 3.1-1.51 4.6-4.45 4.6-.82 0-2.4-.07-4.59-.23-39.21-3.16-74.36-4.74-105.59-4.74-7.76 0-12.57 1.8-14.3 5.5-.76 1.8-1.13 7.44-1.13 17.01 0 10.01 1.5 16.55 4.44 19.79 2.48 2.79 7.3 4.22 14.37 4.22 1.43 0 4.29-.08 8.58-.31 4.29-.22 7.83-.37 10.61-.37 18.6 0 37.34-.46 56.38-1.43 1.58-.15 5.64-.53 12.12-1.13 5.04-.53 8.95-.83 11.96-.83 3.54 0 5.27 1.65 5.27 5.04 0-3.08-1.35 8.21-4.06 33.8a343.302 343.302 0 00-1.81 35.22c0 2.93-2.11 4.44-6.4 4.44 0 0-6.62-.76-19.87-2.18-8.35-.9-27.54-1.36-57.35-1.36h-23.4c-6.03 0-9.56 1.51-10.62 4.45-.15.67-.22 5.26-.22 13.69 0 11.14.75 18.37 2.18 21.6 2.56 5.57 11.96 8.88 28.3 9.94h32.21c7.75 0 19.35-.68 34.77-2.03 15.36-1.36 26.87-2.04 34.55-2.04 3.24 0 4.82 2.64 4.82 7.91zm255.15 0c0 6.32-1.28 17.91-3.76 34.77-2.64 18.29-5.05 29.28-7.08 32.74-1.73 2.79-4.22 4.22-7.3 4.22-1.28 0-3.54-.23-6.63-.68-10.68-1.43-41.99-2.18-93.85-2.18-11.36 0-28.15-.08-50.5-.23-22.36-.15-39.14-.23-50.28-.23-4.89 0-7.3-2.11-7.3-6.4 0-16.48.9-41.16 2.71-74.21 1.8-32.96 2.71-57.65 2.71-74.13 0-16.78-.91-48.02-2.71-93.71-.45-11.74-1.28-29.35-2.48-52.68l-.23-3.09c-.3-3.39 1.58-5.04 5.5-5.04 10.91 0 27.24.23 49.14.83 21.83.6 38.16.9 49.08.9 10.76 0 26.94-.3 48.54-.9 21.6-.6 37.78-.83 48.55-.83 7.67 0 12.04 2.86 13.24 8.51.75 3.38 1.96 13.62 3.54 30.7 1.58 17.01 2.33 27.4 2.33 31.08 0 3.1-1.5 4.6-4.44 4.6-.82 0-2.41-.07-4.59-.23-39.21-3.16-74.36-4.74-105.6-4.74-7.75 0-12.57 1.8-14.29 5.5-.76 1.8-1.13 7.44-1.13 17.01 0 10.01 1.5 16.55 4.44 19.79 2.48 2.79 7.3 4.22 14.37 4.22 1.43 0 4.29-.08 8.58-.31 4.29-.22 7.83-.37 10.61-.37 18.6 0 37.33-.46 56.38-1.43 1.58-.15 5.64-.53 12.12-1.13 5.04-.53 8.95-.83 11.96-.83 3.54 0 5.27 1.65 5.27 5.04 0-3.08-1.35 8.21-4.07 33.8-1.2 11.74-1.8 23.48-1.8 35.22 0 2.93-2.1 4.44-6.4 4.44 0 0-6.62-.76-19.87-2.18-8.35-.9-27.54-1.36-57.35-1.36h-23.4c-6.03 0-9.56 1.51-10.62 4.45-.15.67-.22 5.26-.22 13.69 0 11.14.75 18.37 2.18 21.6 2.56 5.57 11.97 8.88 28.3 9.94h32.21c7.75 0 19.35-.68 34.77-2.03 15.36-1.36 26.87-2.04 34.55-2.04 3.24 0 4.82 2.64 4.82 7.91zm14.21-299.69h34.61v6.02h-13.68v36.76h-7.25v-36.76h-13.68v-6.02zm41.79 0h11.15l11.31 34.23 12.51-34.23h10.36v42.78h-7.26v-34.44l-12.59 34.44h-6.49l-11.91-36.09v36.09h-7.08v-42.78z"/></g></g></svg>