<?xml version="1.0" encoding="UTF-8"?>
<!DOCTYPE svg PUBLIC "-//W3C//DTD SVG 1.1//EN" "http://www.w3.org/Graphics/SVG/1.1/DTD/svg11.dtd">
<!-- Creator: CorelDRAW 2018 (64-Bit) -->
<svg xmlns="http://www.w3.org/2000/svg" xml:space="preserve" width="8.3337mm" height="9.9794mm" version="1.1" style="shape-rendering:geometricPrecision; text-rendering:geometricPrecision; image-rendering:optimizeQuality; fill-rule:evenodd; clip-rule:evenodd"
viewBox="0 0 833.36 997.93"
 xmlns:xlink="http://www.w3.org/1999/xlink">
 <defs>
  <style type="text/css">
   <![CDATA[
    .fil0 {fill:#A3A4A4;fill-rule:nonzero}
    .fil1 {fill:#CD0017;fill-rule:nonzero}
   ]]>
  </style>
 </defs>
 <g id="Layer_x0020_1">
  <metadata id="CorelCorpID_0Corel-Layer"/>
  <g id="_3041380784">
   <path class="fil0" d="M465.88 72.68c-26.58,-55.8 -61.58,-90.28 -117.2,-63.33 -32,15.31 -46.8,46.86 -40.83,83.8 10.92,64.2 98.69,93.47 112.99,150.11 -4.46,-59.14 -81.59,-97.87 -85.51,-150.87 -2.03,-24.35 21.22,-55.28 52.02,-52.87 30.8,2.41 71.32,66.35 55.06,128.96l25.26 -44.27c16.97,-29.74 50.81,-49.97 82.82,-45.08 23.88,3.65 50.42,22.62 48.52,54.89 -5.02,80.5 -93.45,100.87 -149.9,135.25 -44.54,27.07 -95.83,69.66 -65.59,126.42 -18.54,-56.76 32.63,-86.57 75.67,-107.84 74.23,-35.48 165.01,-51.63 175.18,-150.84 7.65,-76.39 -47.58,-117.31 -130.19,-85.47 -13.75,5.01 -26.67,12.06 -38.3,21.14z"/>
   <path class="fil1" d="M654.12 865.15c26.84,-62.14 42.01,-138.46 45.15,-225.96l-0.99 0 -0.1 -4.58c0,-0.99 0.38,-2.4 0.95,-3.25l-0.39 -2.89 4.87 0.74c17.42,2.47 30.54,4.69 41.5,11.39 35.02,21.37 50.58,55.51 50.58,110.74 0,52.47 -23,85.37 -74.52,106.72 -17.63,7.3 -37.56,12.79 -59.11,16.36l-1.2 0.1c-2.26,0 -4.37,-1.34 -5.75,-3.14 -1.62,-2.08 -2.01,-3.76 -0.99,-6.23zm-638.1 132.78l739.57 0c8.25,0 16,-8.11 16,-17.5 0,-9.38 -7.75,-17.52 -16,-17.52l-138.11 0c-3.53,0 -5.43,-5.54 -6.42,-7.52 -1.34,-2.64 -1.06,-7.37 0.6,-9.59 2.86,-3.85 5.54,-7.44 8.04,-10.06 0.81,-0.84 1.73,-2.03 2.61,-3.05l-0.6 -0.64 0.96 0.11c1.37,-1.56 2.75,-3.25 4.05,-5.3 1.38,-2.08 3.71,-3.35 6.07,-3.35l4.45 -0.31c13.53,-2.54 54.69,-10.23 94.93,-26.63 64.3,-26.21 101.19,-78.61 101.19,-143.79 0,-84.6 -45.19,-124.91 -72.13,-141.38 -24.79,-15.13 -47.19,-20.99 -55.69,-22.78 -3.27,-0.71 -5.67,-3.6 -5.78,-7.02 -0.28,-21.94 -1.3,-32.84 -1.62,-36.97l-0.11 -1.37c-0.56,-7.01 -5.46,-9.16 -12.41,-9.76 -0.88,0.81 -2.01,0.7 -3.57,0.7l-551 0c-8.22,0 -15.98,9.8 -15.98,19.15 0,9.38 7.76,18.73 15.98,18.73l530.06 0.21c5.33,0 6.03,3.77 6.1,5.32 1.7,48.39 4.61,295.92 -112.01,381.14 -0.88,0.95 -2.22,4.16 -4.3,4.16l-343.57 0c-2.29,0 -3.39,-3.56 -3.88,-4.66 -108.56,-46.77 -132.11,-310.78 -132.04,-408.57 0,-4.38 -1.73,-9.06 -4.59,-11.88 -1.44,-1.38 -3.24,-1.98 -6.24,-2.5l-1.31 -1.24c-1.23,0.6 -2.43,0.14 -3.84,0.14 -0.07,0 -0.18,0 -0.25,0 -0.03,0 -0.07,0.85 -0.1,0.85 -1.63,-0.14 -2.76,-0.46 -3.43,-1.09 -8.59,0.84 -12.23,4.05 -12.23,10.29 0,4.02 0.21,99.7 19.36,200.07 18.49,96.91 45.85,165.75 79.14,199.04 2.19,2.23 2.65,8.93 1.59,11.51 -1.16,2.85 -3.28,8.04 -6.74,8.04l-116.76 0c-8.26,0 -16.02,8.14 -16.02,17.52 0,9.39 7.76,17.5 16.02,17.5z"/>
  </g>
 </g>
</svg>
